<?xml version="1.0" encoding="UTF-8" standalone="no"?>
<!DOCTYPE svg PUBLIC "-//W3C//DTD SVG 1.1//EN" "http://www.w3.org/Graphics/SVG/1.1/DTD/svg11.dtd">
<svg width="100%" height="100%" viewBox="0 0 3714 903" version="1.1" xmlns="http://www.w3.org/2000/svg" xmlns:xlink="http://www.w3.org/1999/xlink" xml:space="preserve" xmlns:serif="http://www.serif.com/" style="fill-rule:evenodd;clip-rule:evenodd;stroke-linejoin:round;stroke-miterlimit:2;">
    <g transform="matrix(4.16667,0,0,4.16667,-557.908,-478.046)">
        <path d="M629.889,162.961L629.889,238.413C629.889,283.388 596.194,313.864 554.632,313.864C513.068,313.864 479.374,283.388 479.374,238.413L479.374,162.961L517.51,162.961C517.51,176.676 517.513,232.328 517.513,235.131C517.513,258.448 534.132,274.393 554.632,274.393C575.133,274.393 591.752,258.448 591.752,235.131L591.752,162.961L629.889,162.961Z" style="fill:rgb(10,113,185);fill-rule:nonzero;"/>
    </g>
    <g transform="matrix(4.16667,0,0,4.16667,-557.908,-478.046)">
        <path d="M172.037,309.97L133.898,309.97L133.898,114.731L172.034,114.731L172.034,168.229C182.995,162.337 195.645,159.07 209.156,159.07C250.718,159.07 284.413,189.546 284.413,234.522L284.413,309.97L246.276,309.97L246.276,237.8C246.276,214.486 229.657,198.541 209.156,198.541C188.656,198.541 172.037,214.486 172.037,237.8L172.037,309.97Z" style="fill:rgb(10,113,185);fill-rule:nonzero;"/>
    </g>
    <g transform="matrix(4.16667,0,0,4.16667,-557.908,-478.046)">
        <path d="M345.407,309.97L307.271,309.97L307.271,114.731L345.407,114.731L345.407,168.229C356.368,162.337 369.017,159.07 382.529,159.07C424.091,159.07 457.785,189.546 457.785,234.522L457.785,309.97L419.649,309.97L419.649,237.8C419.649,214.486 403.029,198.541 382.529,198.541C362.029,198.541 345.409,214.486 345.409,237.8L345.407,309.97Z" style="fill:rgb(10,113,185);fill-rule:nonzero;"/>
    </g>
    <g transform="matrix(4.16667,0,0,4.16667,-557.908,-478.046)">
        <path d="M962.738,331.352L997.471,331.352C1012.71,331.352 1025.07,319.028 1025.07,303.826C1025.07,288.62 1012.71,276.295 997.471,276.295L962.738,276.295L962.738,331.352Z" style="fill:rgb(10,113,185);fill-rule:nonzero;"/>
    </g>
    <g transform="matrix(4.16667,0,0,4.16667,-557.908,-478.046)">
        <path d="M711.402,286.041C710.601,283.997 709.452,282.302 707.953,280.961C706.458,279.622 704.642,278.616 702.503,277.946C700.364,277.277 697.979,276.941 695.341,276.941C694.237,276.941 693.363,276.95 692.724,276.965C692.081,276.984 691.493,277.001 690.959,277.02C690.424,277.039 689.836,277.054 689.195,277.072C688.553,277.09 687.682,277.118 686.576,277.152L686.576,310.17C687.608,310.17 688.882,310.189 690.398,310.225C691.91,310.259 693.543,310.278 695.288,310.278C697.068,310.278 698.976,310.048 701.007,309.589C703.036,309.131 704.909,308.285 706.619,307.049C708.328,305.814 709.754,304.086 710.894,301.865C712.033,299.642 712.605,296.766 712.605,293.238C712.605,290.487 712.203,288.087 711.402,286.041ZM706.832,300.33C706.155,302.164 705.229,303.61 704.054,304.668C702.878,305.726 701.522,306.459 699.992,306.863C698.46,307.27 696.839,307.474 695.127,307.474C694.451,307.474 693.772,307.456 693.096,307.419C692.419,307.385 691.672,307.315 690.853,307.208L690.853,279.692C691.456,279.656 692.071,279.637 692.696,279.637L694.487,279.637C699.154,279.637 702.549,280.795 704.669,283.104C706.787,285.415 707.847,288.83 707.847,293.344C707.847,296.166 707.509,298.496 706.832,300.33ZM720.14,286.941L720.14,301.546C720.14,302.782 720.194,303.962 720.301,305.092C720.407,306.221 720.728,307.208 721.264,308.055C721.797,308.902 722.607,309.581 723.694,310.091C724.78,310.602 726.287,310.859 728.21,310.859C729.423,310.859 730.482,310.675 731.391,310.305C732.299,309.932 733.063,309.501 733.688,309.008C734.313,308.513 734.803,308.021 735.159,307.526C735.513,307.031 735.781,306.662 735.96,306.414L736.494,310.436L740.503,310.067C740.467,309.889 740.424,309.581 740.369,309.14C740.316,308.7 740.263,308.205 740.21,307.658C740.155,307.111 740.11,306.53 740.076,305.912C740.04,305.294 740.021,304.72 740.021,304.191L740.021,286.941L735.854,286.941L735.854,299.959C735.854,301.018 735.684,302.023 735.345,302.974C735.007,303.928 734.544,304.756 733.956,305.462C733.368,306.168 732.673,306.725 731.872,307.128C731.07,307.536 730.188,307.737 729.225,307.737C728.158,307.737 727.293,307.606 726.635,307.34C725.974,307.077 725.475,306.679 725.137,306.151C724.798,305.622 724.575,304.967 724.469,304.191C724.362,303.417 724.308,302.534 724.308,301.546L724.308,286.941L720.14,286.941ZM736.734,277.284C736.253,276.807 735.674,276.568 734.998,276.568C734.285,276.568 733.697,276.807 733.234,277.284C732.771,277.76 732.539,278.316 732.539,278.95C732.539,279.585 732.771,280.141 733.234,280.618C733.697,281.095 734.285,281.331 734.998,281.331C735.674,281.331 736.253,281.095 736.734,280.618C737.216,280.141 737.456,279.585 737.456,278.95C737.456,278.316 737.216,277.76 736.734,277.284ZM726.875,277.284C726.41,276.807 725.822,276.568 725.111,276.568C724.433,276.568 723.854,276.807 723.372,277.284C722.894,277.76 722.652,278.316 722.652,278.95C722.652,279.585 722.894,280.141 723.372,280.618C723.854,281.095 724.433,281.331 725.111,281.331C725.822,281.331 726.41,281.095 726.875,280.618C727.336,280.141 727.57,279.585 727.57,278.95C727.57,278.316 727.336,277.76 726.875,277.284ZM763.19,300.568C762.743,299.774 762.176,299.095 761.479,298.53C760.784,297.966 760.028,297.524 759.209,297.206C758.39,296.89 757.588,296.624 756.803,296.414C755.343,296.026 754.158,295.479 753.25,294.773C752.342,294.067 751.886,293.116 751.886,291.915C751.886,290.998 752.287,290.23 753.089,289.613C753.89,288.998 754.914,288.686 756.162,288.686C757.479,288.686 758.505,288.934 759.236,289.428C759.965,289.923 760.599,290.434 761.132,290.963L763.163,288.371C762.594,287.875 761.765,287.399 760.678,286.941C759.59,286.482 758.14,286.252 756.323,286.252C755.218,286.252 754.167,286.386 753.17,286.65C752.172,286.915 751.288,287.31 750.523,287.841C749.756,288.371 749.144,289.04 748.68,289.851C748.217,290.664 747.985,291.599 747.985,292.657C747.985,293.892 748.198,294.922 748.626,295.75C749.055,296.582 749.606,297.27 750.282,297.814C750.959,298.364 751.69,298.787 752.474,299.085C753.259,299.385 754.006,299.642 754.719,299.853C756.215,300.275 757.418,300.797 758.326,301.415C759.236,302.033 759.69,303.063 759.69,304.509C759.69,305.744 759.324,306.688 758.594,307.34C757.862,307.994 756.82,308.321 755.468,308.321C754.755,308.321 754.085,308.205 753.463,307.976C752.839,307.747 752.26,307.456 751.727,307.102C751.19,306.749 750.719,306.389 750.31,306.019C749.899,305.646 749.57,305.303 749.32,304.986L747.291,308.214C749.536,309.978 752.242,310.859 755.413,310.859C756.589,310.859 757.694,310.7 758.728,310.384C759.761,310.067 760.652,309.599 761.399,308.981C762.148,308.364 762.743,307.596 763.19,306.679C763.636,305.762 763.858,304.705 763.858,303.503C763.858,302.338 763.636,301.361 763.19,300.568ZM785.264,300.568C784.816,299.774 784.248,299.095 783.554,298.53C782.857,297.966 782.101,297.524 781.281,297.206C780.462,296.89 779.66,296.624 778.877,296.414C777.415,296.026 776.23,295.479 775.322,294.773C774.414,294.067 773.96,293.116 773.96,291.915C773.96,290.998 774.359,290.23 775.161,289.613C775.963,288.998 776.986,288.686 778.235,288.686C779.552,288.686 780.578,288.934 781.309,289.428C782.037,289.923 782.671,290.434 783.204,290.963L785.236,288.371C784.666,287.875 783.838,287.399 782.75,286.941C781.663,286.482 780.212,286.252 778.396,286.252C777.291,286.252 776.239,286.386 775.243,286.65C774.244,286.915 773.363,287.31 772.596,287.841C771.828,288.371 771.216,289.04 770.753,289.851C770.289,290.664 770.058,291.599 770.058,292.657C770.058,293.892 770.271,294.922 770.698,295.75C771.127,296.582 771.679,297.27 772.355,297.814C773.032,298.364 773.763,298.787 774.548,299.085C775.331,299.385 776.078,299.642 776.791,299.853C778.289,300.275 779.49,300.797 780.398,301.415C781.309,302.033 781.763,303.063 781.763,304.509C781.763,305.744 781.397,306.688 780.666,307.34C779.936,307.994 778.894,308.321 777.54,308.321C776.827,308.321 776.158,308.205 775.536,307.976C774.911,307.747 774.333,307.456 773.799,307.102C773.264,306.749 772.791,306.389 772.383,306.019C771.972,305.646 771.643,305.303 771.393,304.986L769.363,308.214C771.608,309.978 774.314,310.859 777.485,310.859C778.662,310.859 779.768,310.7 780.8,310.384C781.833,310.067 782.726,309.599 783.473,308.981C784.222,308.364 784.816,307.596 785.264,306.679C785.708,305.762 785.931,304.705 785.931,303.503C785.931,302.338 785.708,301.361 785.264,300.568ZM811.958,299.27L811.958,296.943C811.958,295.637 811.806,294.341 811.504,293.054C811.202,291.764 810.693,290.618 809.98,289.613C809.268,288.609 808.314,287.796 807.122,287.179C805.929,286.561 804.423,286.252 802.604,286.252C801.109,286.252 799.711,286.552 798.41,287.154C797.109,287.753 795.979,288.591 795.016,289.666C794.054,290.743 793.297,292.03 792.746,293.529C792.191,295.029 791.917,296.696 791.917,298.53C791.917,302.586 792.859,305.656 794.75,307.737C796.637,309.819 799.434,310.859 803.141,310.859C805.063,310.859 806.757,310.47 808.217,309.697C809.679,308.92 811.05,307.79 812.332,306.309L810.676,304.616C809.109,305.992 807.763,306.89 806.642,307.315C805.518,307.737 804.423,307.949 803.354,307.949C801.002,307.949 799.238,307.2 798.063,305.701C796.887,304.201 796.229,302.057 796.085,299.27L811.958,299.27ZM806.428,290.752C807.336,292.021 807.79,293.714 807.79,295.831L807.79,296.624L796.191,296.624C796.335,295.601 796.585,294.623 796.94,293.687C797.297,292.754 797.751,291.923 798.303,291.202C798.854,290.477 799.516,289.906 800.28,289.481C801.048,289.058 801.91,288.845 802.873,288.845C804.332,288.845 805.518,289.481 806.428,290.752ZM823.931,273.872L819.708,273.872L819.708,310.173L823.931,310.173L823.931,273.872ZM848.457,303.24C847.922,304.509 847.272,305.488 846.505,306.175C845.74,306.863 844.938,307.324 844.101,307.553C843.263,307.783 842.56,307.896 841.989,307.896C840.92,307.896 839.994,307.658 839.211,307.181C838.426,306.707 837.776,306.043 837.259,305.197C836.743,304.35 836.359,303.344 836.11,302.182C835.86,301.018 835.735,299.764 835.735,298.425C835.735,297.047 835.896,295.788 836.217,294.641C836.539,293.495 836.993,292.516 837.581,291.704C838.169,290.893 838.87,290.266 839.692,289.826C840.51,289.385 841.401,289.163 842.364,289.163C843.29,289.163 844.171,289.331 845.009,289.666C845.847,290.003 846.577,290.539 847.199,291.281C847.824,292.021 848.323,292.957 848.698,294.084C849.07,295.215 849.259,296.573 849.259,298.16C849.259,300.275 848.99,301.969 848.457,303.24ZM849.526,310.436L853.533,310.067C853.497,309.889 853.454,309.581 853.399,309.14C853.347,308.7 853.293,308.205 853.24,307.658C853.186,307.111 853.141,306.53 853.106,305.912C853.07,305.294 853.052,304.72 853.052,304.191L853.052,273.872L849.204,273.872L849.204,290.275C848.635,289.181 847.717,288.237 846.453,287.445C845.188,286.65 843.699,286.252 841.989,286.252C840.527,286.252 839.156,286.518 837.874,287.047C836.591,287.576 835.47,288.362 834.507,289.401C833.545,290.443 832.777,291.748 832.21,293.317C831.638,294.888 831.354,296.696 831.354,298.741C831.354,300.4 831.559,301.962 831.969,303.424C832.378,304.888 833.002,306.175 833.84,307.288C834.675,308.398 835.744,309.272 837.045,309.908C838.346,310.543 839.888,310.859 841.67,310.859C842.81,310.859 843.797,310.7 844.635,310.384C845.472,310.067 846.185,309.678 846.772,309.219C847.36,308.761 847.833,308.275 848.189,307.764C848.546,307.253 848.812,306.804 848.99,306.414L849.526,310.436ZM882.234,293.424C881.735,291.923 881.004,290.645 880.042,289.587C879.081,288.53 877.878,287.707 876.435,287.126C874.993,286.543 873.343,286.252 871.49,286.252C869.638,286.252 867.999,286.543 866.573,287.126C865.149,287.707 863.946,288.53 862.966,289.587C861.985,290.645 861.247,291.923 860.748,293.424C860.248,294.922 860.001,296.591 860.001,298.425C860.001,300.33 860.294,302.048 860.882,303.582C861.47,305.118 862.28,306.422 863.313,307.498C864.346,308.575 865.567,309.404 866.975,309.987C868.382,310.568 869.888,310.859 871.49,310.859C873.095,310.859 874.601,310.568 876.008,309.987C877.415,309.404 878.634,308.575 879.669,307.498C880.702,306.422 881.513,305.118 882.101,303.582C882.688,302.048 882.981,300.33 882.981,298.425C882.981,296.591 882.731,294.922 882.234,293.424ZM876.647,305.197C875.42,306.927 873.699,307.79 871.49,307.79C869.281,307.79 867.563,306.927 866.335,305.197C865.104,303.469 864.489,301.176 864.489,298.319C864.489,295.497 865.095,293.238 866.308,291.544C867.518,289.851 869.247,289.004 871.49,289.004C873.735,289.004 875.463,289.851 876.675,291.544C877.888,293.238 878.493,295.497 878.493,298.319C878.493,301.176 877.878,303.469 876.647,305.197ZM889.928,310.17L893.885,310.17L893.885,299.006C893.885,298.23 893.91,297.454 893.965,296.677C894.019,295.903 894.133,295.161 894.312,294.455C894.705,293.008 895.281,291.801 896.049,290.832C896.813,289.86 897.679,289.376 898.641,289.376C900.244,289.376 901.1,290.242 901.206,291.969L904.68,290.752C904.646,289.976 904.484,289.306 904.198,288.741C903.914,288.175 903.558,287.726 903.131,287.39C902.702,287.056 902.23,286.809 901.715,286.65C901.197,286.491 900.707,286.412 900.244,286.412C898.854,286.412 897.643,286.799 896.609,287.576C895.576,288.353 894.705,289.395 893.991,290.698L893.456,286.677L889.449,287.047C889.483,287.224 889.528,287.533 889.581,287.973C889.636,288.414 889.689,288.917 889.742,289.481C889.797,290.046 889.84,290.627 889.876,291.226C889.91,291.829 889.928,292.391 889.928,292.92L889.928,310.17ZM927.434,274.718C926.968,274.434 926.248,274.18 925.268,273.951C924.287,273.721 923.227,273.606 922.087,273.606C920.519,273.606 919.113,273.889 917.864,274.453C916.618,275.018 915.549,275.987 914.659,277.363C913.98,278.386 913.571,279.505 913.429,280.722C913.286,281.939 913.215,283.079 913.215,284.137L913.215,286.941L908.993,286.941L908.993,289.587L913.215,289.587L913.215,310.17L917.225,310.17L917.225,289.587L923.692,289.587L923.692,286.941L917.225,286.941L917.225,284.295C917.225,283.413 917.259,282.48 917.331,281.49C917.401,280.502 917.581,279.613 917.864,278.818C918.15,278.026 918.568,277.363 919.122,276.833C919.674,276.305 920.448,276.04 921.447,276.04C922.479,276.04 923.369,276.216 924.119,276.568C924.868,276.922 925.49,277.292 925.989,277.68L927.434,274.718Z" style="fill-rule:nonzero;"/>
    </g>
    <g transform="matrix(4.16667,0,0,4.16667,-557.908,-478.046)">
        <path d="M711.944,219.717L707.817,219.717L707.817,240.037C707.817,242.225 707.597,244.014 707.154,245.408C706.714,246.802 706.105,247.905 705.329,248.715C704.553,249.529 703.645,250.082 702.604,250.382C701.563,250.681 700.443,250.832 699.245,250.832C698.008,250.832 696.871,250.681 695.831,250.382C694.791,250.082 693.89,249.529 693.132,248.715C692.373,247.905 691.774,246.802 691.334,245.408C690.891,244.014 690.671,242.225 690.671,240.037L690.671,219.717L686.385,219.717L686.385,240.407C686.385,245.276 687.461,248.734 689.613,250.779C691.765,252.825 694.975,253.848 699.245,253.848C703.513,253.848 706.695,252.825 708.796,250.779C710.894,248.734 711.944,245.276 711.944,240.407L711.944,219.717ZM740.414,252.736L740.414,238.132C740.414,236.897 740.359,235.717 740.255,234.586C740.148,233.458 739.831,232.47 739.302,231.623C738.772,230.777 737.969,230.098 736.894,229.585C735.817,229.075 734.328,228.818 732.423,228.818C731.223,228.818 730.174,229.004 729.274,229.374C728.376,229.744 727.615,230.177 726.998,230.67C726.38,231.165 725.888,231.658 725.518,232.153C725.147,232.648 724.891,233.018 724.75,233.263L724.222,229.243L720.251,229.613C720.287,229.79 720.33,230.098 720.385,230.539C720.437,230.979 720.489,231.483 720.544,232.046C720.596,232.611 720.639,233.193 720.676,233.791C720.709,234.393 720.728,234.957 720.728,235.485L720.728,252.736L724.854,252.736L724.854,239.719C724.854,238.662 725.022,237.656 725.358,236.705C725.692,235.75 726.151,234.922 726.734,234.216C727.315,233.51 728.003,232.957 728.798,232.55C729.593,232.144 730.464,231.942 731.418,231.942C732.476,231.942 733.331,232.074 733.982,232.336C734.637,232.602 735.129,232.999 735.465,233.529C735.801,234.057 736.021,234.711 736.126,235.485C736.232,236.261 736.285,237.145 736.285,238.132L736.285,252.736L740.414,252.736ZM752.815,218.262C752.287,217.714 751.67,217.442 750.964,217.442C750.224,217.442 749.588,217.714 749.059,218.262C748.53,218.809 748.267,219.436 748.267,220.139C748.267,220.847 748.53,221.462 749.059,221.992C749.588,222.52 750.224,222.786 750.964,222.786C751.67,222.786 752.287,222.52 752.815,221.992C753.345,221.462 753.61,220.847 753.61,220.139C753.61,219.436 753.345,218.809 752.815,218.262ZM753.027,229.505L748.793,229.505L748.793,252.736L753.027,252.736L753.027,229.505ZM763.372,229.505L758.822,229.505L768.294,253.212L771.629,253.212L781.311,229.505L777.502,229.505L771.363,245.805C770.764,247.428 770.428,248.645 770.357,249.456C770.287,249.068 770.181,248.557 770.039,247.921C769.898,247.288 769.651,246.511 769.3,245.594L763.372,229.505ZM804.171,241.837L804.171,239.508C804.171,238.203 804.021,236.907 803.722,235.62C803.422,234.332 802.918,233.183 802.214,232.18C801.508,231.174 800.563,230.362 799.381,229.744C798.2,229.128 796.709,228.818 794.911,228.818C793.429,228.818 792.044,229.12 790.757,229.719C789.468,230.319 788.349,231.156 787.397,232.232C786.443,233.308 785.694,234.595 785.147,236.093C784.601,237.594 784.328,239.26 784.328,241.095C784.328,245.152 785.261,248.221 787.132,250.302C789.002,252.384 791.77,253.424 795.44,253.424C797.345,253.424 799.021,253.036 800.466,252.261C801.912,251.485 803.272,250.355 804.541,248.874L802.902,247.181C801.35,248.557 800.017,249.456 798.906,249.88C797.794,250.302 796.709,250.513 795.651,250.513C793.322,250.513 791.576,249.764 790.412,248.266C789.249,246.765 788.596,244.623 788.455,241.837L804.171,241.837ZM798.693,233.317C799.595,234.586 800.044,236.28 800.044,238.396L800.044,239.19L788.562,239.19C788.7,238.168 788.947,237.188 789.302,236.252C789.653,235.32 790.103,234.491 790.65,233.767C791.197,233.042 791.849,232.47 792.609,232.046C793.367,231.623 794.224,231.413 795.175,231.413C796.621,231.413 797.794,232.046 798.693,233.317ZM811.474,252.736L815.388,252.736L815.388,241.572C815.388,240.795 815.415,240.019 815.468,239.243C815.521,238.468 815.636,237.726 815.813,237.02C816.2,235.574 816.772,234.366 817.533,233.397C818.289,232.425 819.145,231.942 820.099,231.942C821.686,231.942 822.532,232.806 822.639,234.534L826.078,233.317C826.042,232.54 825.883,231.872 825.602,231.306C825.319,230.743 824.968,230.291 824.543,229.956C824.121,229.622 823.651,229.374 823.141,229.215C822.63,229.056 822.144,228.977 821.686,228.977C820.31,228.977 819.111,229.365 818.087,230.141C817.063,230.917 816.2,231.959 815.494,233.263L814.966,229.243L810.997,229.613C811.031,229.79 811.077,230.098 811.129,230.539C811.182,230.979 811.235,231.483 811.288,232.046C811.34,232.611 811.386,233.193 811.42,233.791C811.456,234.393 811.474,234.957 811.474,235.485L811.474,252.736ZM845.524,243.133C845.084,242.338 844.521,241.66 843.833,241.095C843.145,240.532 842.394,240.089 841.583,239.774C840.771,239.456 839.978,239.19 839.201,238.979C837.756,238.591 836.582,238.043 835.683,237.337C834.784,236.634 834.332,235.68 834.332,234.48C834.332,233.565 834.729,232.797 835.524,232.18C836.318,231.562 837.331,231.253 838.566,231.253C839.871,231.253 840.886,231.498 841.61,231.994C842.332,232.489 842.959,232.999 843.487,233.529L845.499,230.936C844.934,230.441 844.114,229.964 843.038,229.505C841.962,229.049 840.525,228.818 838.725,228.818C837.631,228.818 836.591,228.952 835.604,229.215C834.616,229.481 833.742,229.878 832.983,230.407C832.226,230.936 831.617,231.606 831.158,232.416C830.7,233.229 830.471,234.164 830.471,235.222C830.471,236.457 830.682,237.49 831.104,238.316C831.528,239.147 832.076,239.834 832.745,240.382C833.415,240.929 834.14,241.351 834.916,241.651C835.689,241.951 836.432,242.207 837.138,242.418C838.62,242.84 839.81,243.363 840.709,243.98C841.61,244.597 842.06,245.628 842.06,247.075C842.06,248.309 841.696,249.253 840.975,249.905C840.25,250.559 839.22,250.886 837.878,250.886C837.172,250.886 836.512,250.77 835.894,250.54C835.276,250.312 834.704,250.021 834.173,249.666C833.645,249.315 833.177,248.954 832.772,248.583C832.366,248.211 832.039,247.869 831.794,247.551L829.783,250.779C832.005,252.543 834.687,253.424 837.826,253.424C838.99,253.424 840.082,253.267 841.106,252.95C842.13,252.631 843.011,252.164 843.753,251.546C844.493,250.929 845.084,250.162 845.524,249.245C845.967,248.328 846.187,247.27 846.187,246.069C846.187,244.907 845.967,243.925 845.524,243.133ZM857.987,218.262C857.458,217.714 856.841,217.442 856.135,217.442C855.395,217.442 854.759,217.714 854.23,218.262C853.701,218.809 853.436,219.436 853.436,220.139C853.436,220.847 853.701,221.462 854.23,221.992C854.759,222.52 855.395,222.786 856.135,222.786C856.841,222.786 857.458,222.52 857.987,221.992C858.516,221.462 858.779,220.847 858.779,220.139C858.779,219.436 858.516,218.809 857.987,218.262ZM858.198,229.505L853.965,229.505L853.965,252.736L858.198,252.736L858.198,229.505ZM878.677,249.826C878.183,250.073 877.732,250.259 877.326,250.382C876.92,250.506 876.471,250.568 875.978,250.568C875.694,250.568 875.36,250.513 874.973,250.409C874.584,250.302 874.284,250.162 874.073,249.985C873.578,249.599 873.288,249.122 873.199,248.557C873.11,247.994 873.067,247.111 873.067,245.91L873.067,232.153L878.57,232.153L878.57,229.505L873.067,229.505L873.067,222.679L869.045,223.633L869.045,229.505L865.129,229.505L865.129,232.153L869.045,232.153L869.045,246.282C869.045,247.481 869.09,248.513 869.179,249.376C869.265,250.241 869.54,250.974 869.998,251.574C870.491,252.244 871.136,252.72 871.931,253.001C872.723,253.283 873.561,253.424 874.443,253.424C875.36,253.424 876.269,253.283 877.168,253.001C878.068,252.72 878.836,252.332 879.47,251.837L878.677,249.826ZM906.829,229.505L903.072,229.505C902.507,230.954 901.914,232.453 901.299,234.005C900.682,235.558 900.055,237.099 899.419,238.634C898.784,240.168 898.15,241.687 897.515,243.185C896.879,244.686 896.262,246.086 895.662,247.392L888.307,229.505L883.756,229.505L893.599,251.889C892.435,254.289 891.261,256.539 890.08,258.638C888.897,260.737 887.708,262.631 886.509,264.325L890.529,265.966L906.829,229.505Z" style="fill-rule:nonzero;"/>
    </g>
    <g transform="matrix(4.16667,0,0,4.16667,-557.908,-478.046)">
        <path d="M690.739,195.757L690.739,179.988L706.898,179.988L706.898,195.757L711.109,195.757L711.109,162.737L706.898,162.737L706.898,177.078L690.739,177.078L690.739,162.737L686.528,162.737L686.528,195.757L690.739,195.757ZM738.057,184.855L738.057,182.528C738.057,181.223 737.908,179.927 737.61,178.638C737.312,177.351 736.813,176.204 736.11,175.198C735.408,174.192 734.469,173.382 733.295,172.765C732.118,172.147 730.637,171.838 728.847,171.838C727.372,171.838 725.994,172.138 724.714,172.737C723.434,173.339 722.32,174.177 721.372,175.25C720.426,176.329 719.679,177.616 719.135,179.114C718.59,180.615 718.319,182.281 718.319,184.115C718.319,188.172 719.25,191.241 721.11,193.323C722.969,195.405 725.724,196.444 729.372,196.444C731.267,196.444 732.934,196.056 734.374,195.28C735.813,194.506 737.163,193.375 738.428,191.893L736.795,190.199C735.25,191.577 733.927,192.476 732.82,192.898C731.716,193.323 730.637,193.534 729.582,193.534C727.268,193.534 725.531,192.785 724.373,191.285C723.215,189.786 722.564,187.643 722.425,184.855L738.057,184.855ZM732.61,176.335C733.505,177.607 733.952,179.3 733.952,181.416L733.952,182.211L722.53,182.211C722.671,181.187 722.917,180.208 723.267,179.273C723.616,178.338 724.066,177.509 724.61,176.785C725.152,176.063 725.803,175.489 726.557,175.066C727.311,174.642 728.162,174.431 729.11,174.431C730.549,174.431 731.716,175.066 732.61,176.335ZM749.479,161.282C748.952,160.735 748.338,160.46 747.638,160.46C746.899,160.46 746.268,160.735 745.741,161.282C745.215,161.829 744.953,162.454 744.953,163.16C744.953,163.866 745.215,164.483 745.741,165.012C746.268,165.541 746.899,165.807 747.638,165.807C748.338,165.807 748.952,165.541 749.479,165.012C750.005,164.483 750.269,163.866 750.269,163.16C750.269,162.454 750.005,161.829 749.479,161.282ZM749.69,172.526L745.479,172.526L745.479,195.757L749.69,195.757L749.69,172.526ZM778.007,195.757L778.007,181.15C778.007,179.918 777.955,178.735 777.849,177.607C777.745,176.478 777.429,175.489 776.902,174.642C776.376,173.795 775.577,173.117 774.507,172.606C773.437,172.095 771.955,171.838 770.059,171.838C768.866,171.838 767.823,172.022 766.927,172.394C766.032,172.765 765.278,173.196 764.664,173.691C764.05,174.185 763.56,174.678 763.189,175.171C762.821,175.666 762.566,176.036 762.426,176.283L761.899,172.261L757.953,172.633C757.986,172.808 758.032,173.117 758.084,173.557C758.138,173.999 758.189,174.501 758.242,175.066C758.296,175.632 758.339,176.213 758.375,176.812C758.409,177.412 758.427,177.977 758.427,178.506L758.427,195.757L762.532,195.757L762.532,182.74C762.532,181.682 762.699,180.676 763.033,179.723C763.365,178.769 763.821,177.943 764.401,177.234C764.979,176.531 765.664,175.975 766.454,175.568C767.242,175.164 768.111,174.96 769.058,174.96C770.112,174.96 770.962,175.091 771.611,175.357C772.26,175.623 772.752,176.018 773.086,176.547C773.418,177.078 773.638,177.729 773.743,178.506C773.85,179.282 773.901,180.165 773.901,181.15L773.901,195.757L778.007,195.757ZM785.933,195.757L789.827,195.757L789.827,184.592C789.827,183.815 789.854,183.04 789.906,182.263C789.961,181.486 790.073,180.747 790.25,180.04C790.636,178.594 791.205,177.387 791.959,176.415C792.714,175.446 793.564,174.96 794.513,174.96C796.092,174.96 796.934,175.825 797.04,177.552L800.461,176.335C800.425,175.561 800.267,174.89 799.986,174.324C799.707,173.761 799.354,173.311 798.935,172.976C798.515,172.642 798.047,172.394 797.539,172.236C797.031,172.077 796.548,171.998 796.092,171.998C794.723,171.998 793.531,172.386 792.513,173.162C791.494,173.938 790.636,174.978 789.934,176.283L789.407,172.261L785.461,172.633C785.494,172.808 785.539,173.117 785.592,173.557C785.644,173.999 785.697,174.501 785.749,175.066C785.802,175.632 785.845,176.213 785.881,176.812C785.914,177.412 785.933,177.977 785.933,178.506L785.933,195.757ZM809.604,161.282C809.077,160.735 808.463,160.46 807.761,160.46C807.025,160.46 806.393,160.735 805.866,161.282C805.341,161.829 805.076,162.454 805.076,163.16C805.076,163.866 805.341,164.483 805.866,165.012C806.393,165.541 807.025,165.807 807.761,165.807C808.463,165.807 809.077,165.541 809.604,165.012C810.13,164.483 810.394,163.866 810.394,163.16C810.394,162.454 810.13,161.829 809.604,161.282ZM809.813,172.526L805.603,172.526L805.603,195.757L809.813,195.757L809.813,172.526ZM834.079,190.517C832.78,191.752 831.658,192.574 830.71,192.978C829.762,193.384 828.745,193.586 827.657,193.586C826.395,193.586 825.331,193.341 824.473,192.846C823.612,192.353 822.919,191.682 822.394,190.835C821.867,189.988 821.49,189.019 821.262,187.925C821.034,186.832 820.919,185.702 820.919,184.538C820.919,183.373 821.052,182.192 821.314,180.994C821.578,179.793 821.989,178.71 822.552,177.739C823.111,176.769 823.832,175.975 824.71,175.357C825.586,174.74 826.623,174.431 827.814,174.431C829.147,174.431 830.211,174.642 830.999,175.066C831.789,175.489 832.5,176.018 833.131,176.653L835.131,173.636C834.112,172.933 832.999,172.456 831.789,172.208C830.579,171.963 829.394,171.838 828.235,171.838C826.446,171.838 824.823,172.147 823.366,172.765C821.91,173.382 820.682,174.245 819.684,175.357C818.684,176.47 817.911,177.79 817.367,179.325C816.822,180.86 816.552,182.547 816.552,184.378C816.552,188.331 817.534,191.33 819.498,193.375C821.463,195.42 824.184,196.444 827.657,196.444C828.217,196.444 828.843,196.383 829.526,196.258C830.211,196.136 830.901,195.925 831.604,195.625C832.307,195.325 832.999,194.901 833.684,194.353C834.368,193.809 835.024,193.112 835.657,192.265L834.079,190.517ZM845.295,159.455L841.189,159.455L841.189,195.757L845.295,195.757L845.295,182.74C845.295,181.682 845.462,180.676 845.794,179.723C846.128,178.769 846.584,177.943 847.162,177.234C847.742,176.531 848.427,175.975 849.217,175.568C850.005,175.164 850.874,174.96 851.82,174.96C852.875,174.96 853.724,175.091 854.374,175.357C855.022,175.623 855.515,176.018 855.849,176.547C856.181,177.078 856.399,177.729 856.506,178.506C856.612,179.282 856.664,180.165 856.664,181.15L856.664,195.757L860.77,195.757L860.77,181.15C860.77,179.918 860.717,178.735 860.611,177.607C860.507,176.478 860.191,175.489 859.665,174.642C859.139,173.795 858.34,173.117 857.27,172.606C856.198,172.095 854.715,171.838 852.82,171.838C851.628,171.838 850.592,172.016 849.716,172.367C848.838,172.719 848.102,173.135 847.505,173.611C846.909,174.088 846.426,174.572 846.058,175.066C845.689,175.561 845.435,175.932 845.295,176.177L845.295,159.455ZM889.298,195.757L889.298,179.988L905.456,179.988L905.456,195.757L909.667,195.757L909.667,162.737L905.456,162.737L905.456,177.078L889.298,177.078L889.298,162.737L885.086,162.737L885.086,195.757L889.298,195.757ZM936.669,184.855L936.669,182.528C936.669,181.223 936.518,179.927 936.223,178.638C935.922,177.351 935.423,176.204 934.721,175.198C934.019,174.192 933.081,173.382 931.905,172.765C930.729,172.147 929.247,171.838 927.459,171.838C925.984,171.838 924.606,172.138 923.326,172.737C922.044,173.339 920.931,174.177 919.984,175.25C919.036,176.329 918.291,177.616 917.747,179.114C917.202,180.615 916.932,182.281 916.932,184.115C916.932,188.172 917.859,191.241 919.721,193.323C921.578,195.405 924.333,196.444 927.984,196.444C929.879,196.444 931.546,196.056 932.984,195.28C934.423,194.506 935.775,193.375 937.037,191.893L935.405,190.199C933.86,191.577 932.537,192.476 931.431,192.898C930.326,193.323 929.247,193.534 928.194,193.534C925.878,193.534 924.142,192.785 922.983,191.285C921.825,189.786 921.177,187.643 921.037,184.855L936.669,184.855ZM931.221,176.335C932.115,177.607 932.564,179.3 932.564,181.416L932.564,182.211L921.141,182.211C921.28,181.187 921.526,180.208 921.879,179.273C922.229,178.338 922.676,177.509 923.221,176.785C923.765,176.063 924.412,175.489 925.169,175.066C925.923,174.642 926.772,174.431 927.721,174.431C929.159,174.431 930.326,175.066 931.221,176.335ZM947.716,161.282C947.189,160.735 946.575,160.46 945.873,160.46C945.137,160.46 944.505,160.735 943.979,161.282C943.452,161.829 943.19,162.454 943.19,163.16C943.19,163.866 943.452,164.483 943.979,165.012C944.505,165.541 945.137,165.807 945.873,165.807C946.575,165.807 947.189,165.541 947.716,165.012C948.242,164.483 948.506,163.866 948.506,163.16C948.506,162.454 948.242,161.829 947.716,161.282ZM947.926,172.526L943.715,172.526L943.715,195.757L947.926,195.757L947.926,172.526ZM976.138,195.757L976.138,181.15C976.138,179.918 976.086,178.735 975.982,177.607C975.876,176.478 975.56,175.489 975.033,174.642C974.508,173.795 973.708,173.117 972.638,172.606C971.567,172.095 970.086,171.838 968.191,171.838C966.997,171.838 965.954,172.022 965.06,172.394C964.163,172.765 963.409,173.196 962.795,173.691C962.181,174.185 961.69,174.678 961.323,175.171C960.955,175.666 960.699,176.036 960.56,176.283L960.033,172.261L956.084,172.633C956.12,172.808 956.163,173.117 956.218,173.557C956.27,173.999 956.321,174.501 956.375,175.066C956.428,175.632 956.47,176.213 956.506,176.812C956.54,177.412 956.559,177.977 956.559,178.506L956.559,195.757L960.663,195.757L960.663,182.74C960.663,181.682 960.83,180.676 961.165,179.723C961.497,178.769 961.953,177.943 962.533,177.234C963.111,176.531 963.795,175.975 964.586,175.568C965.376,175.164 966.243,174.96 967.191,174.96C968.244,174.96 969.095,175.091 969.743,175.357C970.394,175.623 970.884,176.018 971.218,176.547C971.55,177.078 971.771,177.729 971.875,178.506C971.98,179.282 972.033,180.165 972.033,181.15L972.033,195.757L976.138,195.757ZM1002.27,184.855L1002.27,182.528C1002.27,181.223 1002.12,179.927 1001.82,178.638C1001.53,177.351 1001.03,176.204 1000.32,175.198C999.622,174.192 998.685,173.382 997.508,172.765C996.332,172.147 994.851,171.838 993.06,171.838C991.588,171.838 990.21,172.138 988.93,172.737C987.647,173.339 986.534,174.177 985.586,175.25C984.64,176.329 983.892,177.616 983.351,179.114C982.806,180.615 982.533,182.281 982.533,184.115C982.533,188.172 983.463,191.241 985.323,193.323C987.182,195.405 989.937,196.444 993.586,196.444C995.482,196.444 997.149,196.056 998.588,195.28C1000.03,194.506 1001.38,193.375 1002.64,191.893L1001.01,190.199C999.464,191.577 998.141,192.476 997.034,192.898C995.93,193.323 994.851,193.534 993.798,193.534C991.481,193.534 989.745,192.785 988.587,191.285C987.429,189.786 986.778,187.643 986.641,184.855L1002.27,184.855ZM996.824,176.335C997.718,177.607 998.165,179.3 998.165,181.416L998.165,182.211L986.744,182.211C986.884,181.187 987.13,180.208 987.482,179.273C987.832,178.338 988.279,177.509 988.823,176.785C989.368,176.063 990.016,175.489 990.771,175.066C991.524,174.642 992.376,174.431 993.324,174.431C994.763,174.431 995.93,175.066 996.824,176.335Z" style="fill-rule:nonzero;"/>
    </g>
</svg>
