<?xml version="1.0" encoding="UTF-8" standalone="no"?>
<!DOCTYPE svg PUBLIC "-//W3C//DTD SVG 1.1//EN" "http://www.w3.org/Graphics/SVG/1.1/DTD/svg11.dtd">
<svg width="100%" height="100%" viewBox="0 0 1059 221" version="1.1" xmlns="http://www.w3.org/2000/svg" xmlns:xlink="http://www.w3.org/1999/xlink" xml:space="preserve" xmlns:serif="http://www.serif.com/" style="fill-rule:evenodd;clip-rule:evenodd;stroke-linejoin:round;stroke-miterlimit:2;">
    <g transform="matrix(4.16667,0,0,4.16667,0,0)">
        <path d="M0,30.087L15.047,30.087C19.026,30.087 22.483,29.233 24.935,27.072C27.386,24.912 28.889,21.419 28.892,15.997C28.89,10.172 27.487,6.635 25.153,4.541C22.819,2.444 19.478,1.74 15.49,1.741L15.49,1.74L0,1.74L0,7.862L13.12,7.862C15.107,7.851 16.466,8.556 17.234,9.92C18.004,11.274 18.235,13.2 18.238,15.706C18.235,18.129 18.024,20.034 17.272,21.388C16.52,22.751 15.169,23.48 13.16,23.468L10.17,23.468L10.17,13.434L0,13.434L0,30.087Z" style="fill:rgb(0,90,170);fill-rule:nonzero;"/>
        <path d="M31.101,30.087L41.271,30.087L41.271,19.804L53.943,19.804L53.943,13.434L41.271,13.434L41.271,7.862L53.943,7.862L53.943,1.74L31.101,1.74L31.101,30.087Z" style="fill:rgb(0,90,170);fill-rule:nonzero;"/>
        <path d="M60.947,4.818C57.942,7.195 56.043,10.729 56.039,15.499C56.043,20.591 57.871,24.334 60.834,26.834C63.798,29.334 67.925,30.584 72.533,30.584C76.848,30.584 80.257,30.149 83.845,29.084L83.845,16.004L75.203,16.004L75.203,23.623L75.011,23.697C74.285,23.974 73.378,23.962 72.613,23.966C70.384,23.972 68.796,23.04 67.822,21.596C66.845,20.154 66.453,18.232 66.451,16.204C66.449,13.507 67.365,11.395 68.988,9.983C70.61,8.57 72.905,7.862 75.627,7.862C78.41,7.862 80.603,8.488 82.164,9.31L82.164,2.257C79.593,1.629 77.637,1.245 72.533,1.243L72.531,1.243C68.085,1.243 63.953,2.444 60.947,4.818Z" style="fill:rgb(0,90,170);fill-rule:nonzero;"/>
        <path d="M99.352,11.245L100.181,11.245C103.261,11.313 104.842,9.846 104.922,6.846C104.898,5.269 104.502,4.157 103.733,3.508C102.95,2.89 101.978,2.585 100.817,2.595L99.352,2.595L99.352,11.245ZM98.361,1.706L100.862,1.706C102.656,1.725 103.954,2.207 104.755,3.151C105.537,4.099 105.923,5.35 105.913,6.902C105.895,8.765 105.348,10.106 104.274,10.922C103.215,11.731 101.832,12.134 100.127,12.134L98.361,12.134L98.361,1.706Z" style="fill:rgb(0,90,170);fill-rule:nonzero;"/>
        <path d="M112.818,7.793C112.818,7.092 112.677,6.481 112.394,5.957C112.096,5.428 111.606,5.155 110.927,5.135C110.261,5.155 109.734,5.434 109.347,5.971C108.95,6.515 108.752,7.122 108.752,7.793L112.818,7.793ZM113.261,11.897C112.568,12.167 111.854,12.307 111.119,12.317C109.912,12.292 109.048,11.909 108.524,11.164C108.006,10.434 107.751,9.488 107.761,8.325C107.771,7.137 108.06,6.176 108.63,5.442C109.181,4.712 109.928,4.342 110.87,4.332C111.901,4.352 112.655,4.727 113.131,5.457C113.583,6.172 113.81,7.057 113.81,8.113L113.81,8.594L108.752,8.594C108.752,9.424 108.96,10.107 109.375,10.643C109.78,11.215 110.385,11.504 111.187,11.514C111.546,11.514 111.923,11.449 112.319,11.317C112.716,11.209 113.03,11.085 113.261,10.944L113.261,11.897Z" style="fill:rgb(0,90,170);fill-rule:nonzero;"/>
        <path d="M121.537,10.34C121.527,10.918 121.548,11.516 121.6,12.134L120.717,12.134L120.717,10.778L120.688,10.778C120.622,10.943 120.53,11.111 120.413,11.281C120.3,11.461 120.151,11.631 119.968,11.791C119.784,11.942 119.557,12.061 119.283,12.149C119.015,12.26 118.688,12.317 118.302,12.317C117.407,12.307 116.763,12.028 116.367,11.477C115.972,10.938 115.778,10.239 115.788,9.383L115.788,4.515L116.691,4.515L116.691,9.147C116.691,9.877 116.831,10.448 117.109,10.857C117.383,11.295 117.829,11.514 118.447,11.514C118.862,11.514 119.214,11.424 119.501,11.245C119.794,11.074 120.016,10.855 120.167,10.586C120.341,10.309 120.462,10.01 120.527,9.688C120.599,9.372 120.634,9.053 120.634,8.731L120.634,4.515L121.537,4.515L121.537,10.34Z" style="fill:rgb(0,90,170);fill-rule:nonzero;"/>
        <path d="M127.274,5.317L125.596,5.317L125.596,10.258C125.596,10.608 125.673,10.903 125.829,11.142C125.971,11.391 126.221,11.514 126.58,11.514C126.91,11.514 127.191,11.454 127.422,11.332L127.479,12.107C127.371,12.145 127.221,12.189 127.027,12.237C126.825,12.289 126.604,12.317 126.364,12.317C125.969,12.317 125.656,12.247 125.426,12.105C125.204,11.963 125.037,11.78 124.925,11.55C124.826,11.312 124.763,11.044 124.734,10.748C124.706,10.446 124.691,10.12 124.691,9.77L124.691,5.317L123.245,5.317L123.245,4.515L124.691,4.515L124.691,2.676L125.596,2.348L125.596,4.515L127.274,4.515L127.274,5.317Z" style="fill:rgb(0,90,170);fill-rule:nonzero;"/>
        <path d="M128.511,11.032C129.072,11.344 129.712,11.504 130.433,11.514C130.889,11.514 131.274,11.391 131.59,11.142C131.9,10.913 132.061,10.584 132.07,10.156C132.061,9.703 131.882,9.347 131.533,9.088C131.185,8.84 130.774,8.617 130.304,8.416C130.082,8.309 129.869,8.196 129.668,8.073C129.466,7.952 129.272,7.818 129.089,7.672C128.923,7.51 128.787,7.326 128.679,7.116C128.575,6.916 128.522,6.683 128.522,6.415C128.533,5.655 128.782,5.118 129.271,4.8C129.746,4.489 130.298,4.332 130.923,4.332C131.136,4.332 131.411,4.352 131.75,4.391C132.084,4.449 132.415,4.543 132.745,4.673L132.66,5.493C132.127,5.264 131.58,5.145 131.019,5.135C130.547,5.135 130.172,5.223 129.894,5.398C129.748,5.491 129.634,5.618 129.554,5.778C129.47,5.934 129.427,6.143 129.427,6.407C129.427,6.562 129.481,6.711 129.59,6.852C129.692,6.983 129.832,7.102 130.007,7.209C130.182,7.312 130.379,7.416 130.601,7.524C130.822,7.626 131.039,7.736 131.251,7.852C131.732,8.063 132.151,8.342 132.51,8.693C132.868,9.043 133.052,9.528 133.062,10.147C133.062,10.546 132.983,10.879 132.829,11.148C132.664,11.425 132.457,11.649 132.208,11.82C131.667,12.151 131.094,12.317 130.487,12.317C129.776,12.317 129.09,12.196 128.427,11.956L128.511,11.032Z" style="fill:rgb(0,90,170);fill-rule:nonzero;"/>
        <path d="M139.694,5.523C139.171,5.274 138.644,5.145 138.11,5.135C137.224,5.145 136.545,5.438 136.073,6.012C135.578,6.603 135.331,7.374 135.331,8.325C135.331,9.212 135.574,9.957 136.06,10.556C136.531,11.186 137.182,11.504 138.012,11.514C138.582,11.514 139.138,11.4 139.681,11.17L139.765,12.049C139.167,12.237 138.536,12.327 137.872,12.317C136.686,12.292 135.802,11.889 135.223,11.106C134.634,10.336 134.34,9.41 134.34,8.325C134.35,7.118 134.686,6.157 135.35,5.442C136.01,4.712 136.888,4.342 137.985,4.332C138.438,4.332 138.813,4.367 139.115,4.434C139.271,4.463 139.405,4.495 139.518,4.528C139.626,4.567 139.709,4.6 139.765,4.629L139.694,5.523Z" style="fill:rgb(0,90,170);fill-rule:nonzero;"/>
        <path d="M141.528,0.924L142.432,0.924L142.432,5.793L142.46,5.793C142.663,5.368 142.962,5.014 143.357,4.733C143.753,4.475 144.219,4.342 144.756,4.332C145.74,4.342 146.411,4.642 146.77,5.231C147.118,5.829 147.287,6.61 147.277,7.573L147.277,12.134L146.374,12.134L146.374,7.582C146.374,7.247 146.355,6.927 146.317,6.625C146.275,6.338 146.192,6.084 146.069,5.866C145.839,5.388 145.354,5.145 144.619,5.135C143.826,5.155 143.26,5.469 142.92,6.078C142.585,6.686 142.422,7.344 142.432,8.05L142.432,12.134L141.528,12.134L141.528,0.924Z" style="fill:rgb(0,90,170);fill-rule:nonzero;"/>
        <path d="M154.343,7.793C154.343,7.092 154.201,6.481 153.918,5.957C153.62,5.428 153.131,5.155 152.451,5.135C151.785,5.155 151.259,5.434 150.871,5.971C150.475,6.515 150.276,7.122 150.276,7.793L154.343,7.793ZM154.785,11.897C154.093,12.167 153.379,12.307 152.644,12.317C151.437,12.292 150.572,11.909 150.049,11.164C149.53,10.434 149.275,9.488 149.285,8.325C149.295,7.137 149.584,6.176 150.154,5.442C150.705,4.712 151.452,4.342 152.395,4.332C153.426,4.352 154.18,4.727 154.655,5.457C155.107,6.172 155.334,7.057 155.334,8.113L155.334,8.594L150.276,8.594C150.276,9.424 150.484,10.107 150.899,10.643C151.305,11.215 151.909,11.504 152.711,11.514C153.07,11.514 153.447,11.449 153.844,11.317C154.24,11.209 154.555,11.085 154.785,10.944L154.785,11.897Z" style="fill:rgb(0,90,170);fill-rule:nonzero;"/>
        <path d="M98.317,19.641L103.118,19.641L103.118,20.531L99.308,20.531L99.308,24.261L102.941,24.261L102.941,25.15L99.308,25.15L99.308,30.07L98.317,30.07L98.317,19.641Z" style="fill:rgb(0,90,170);fill-rule:nonzero;"/>
        <path d="M105.402,26.26C105.402,27.168 105.615,27.917 106.04,28.506C106.446,29.126 107.052,29.441 107.855,29.45C108.658,29.441 109.272,29.126 109.698,28.506C110.104,27.917 110.308,27.168 110.308,26.26C110.308,25.348 110.104,24.589 109.698,23.985C109.272,23.385 108.658,23.081 107.855,23.071C107.052,23.081 106.446,23.385 106.04,23.985C105.615,24.589 105.402,25.348 105.402,26.26ZM104.411,26.26C104.411,25.175 104.691,24.248 105.252,23.48C105.808,22.692 106.674,22.288 107.852,22.268C109.048,22.288 109.926,22.692 110.486,23.48C111.028,24.248 111.299,25.175 111.299,26.26C111.299,27.326 111.028,28.248 110.486,29.026C109.926,29.819 109.048,30.228 107.852,30.252C106.674,30.228 105.808,29.819 105.252,29.026C104.691,28.248 104.411,27.326 104.411,26.26Z" style="fill:rgb(0,90,170);fill-rule:nonzero;"/>
        <path d="M113.293,24.151C113.293,23.446 113.274,22.879 113.236,22.451L114.141,22.451L114.141,23.91L114.168,23.91C114.343,23.462 114.588,23.081 114.904,22.764C115.215,22.444 115.602,22.278 116.063,22.268C116.304,22.278 116.516,22.307 116.699,22.355L116.699,23.334C116.497,23.275 116.275,23.246 116.035,23.246C115.677,23.255 115.382,23.345 115.151,23.516C114.92,23.696 114.731,23.94 114.586,24.247C114.448,24.548 114.352,24.873 114.296,25.218C114.229,25.588 114.196,25.949 114.196,26.299L114.196,30.07L113.293,30.07L113.293,24.151Z" style="fill:rgb(0,90,170);fill-rule:nonzero;"/>
        <path d="M117.703,28.967C118.264,29.28 118.903,29.441 119.624,29.45C120.08,29.45 120.466,29.326 120.781,29.078C121.092,28.849 121.252,28.52 121.262,28.091C121.252,27.638 121.073,27.283 120.725,27.025C120.376,26.776 119.966,26.552 119.495,26.352C119.273,26.246 119.062,26.13 118.859,26.009C118.657,25.887 118.464,25.753 118.28,25.607C118.115,25.447 117.979,25.261 117.87,25.052C117.767,24.852 117.715,24.619 117.715,24.35C117.725,23.59 117.974,23.052 118.463,22.736C118.938,22.424 119.489,22.268 120.115,22.268C120.327,22.268 120.603,22.288 120.941,22.327C121.275,22.384 121.606,22.479 121.937,22.609L121.852,23.428C121.318,23.2 120.771,23.081 120.21,23.071C119.738,23.071 119.363,23.158 119.085,23.334C118.939,23.426 118.826,23.552 118.746,23.713C118.661,23.87 118.618,24.079 118.618,24.341C118.618,24.498 118.673,24.646 118.781,24.788C118.885,24.919 119.023,25.039 119.198,25.145C119.373,25.248 119.57,25.352 119.792,25.459C120.014,25.562 120.23,25.671 120.442,25.789C120.924,25.998 121.343,26.278 121.701,26.628C122.06,26.979 122.243,27.464 122.253,28.082C122.253,28.482 122.175,28.816 122.021,29.084C121.855,29.361 121.648,29.585 121.399,29.755C120.858,30.086 120.285,30.252 119.679,30.252C118.969,30.252 118.281,30.132 117.619,29.891L117.703,28.967Z" style="fill:rgb(0,90,170);fill-rule:nonzero;"/>
        <path d="M128.886,23.459C128.362,23.209 127.835,23.081 127.302,23.071C126.415,23.081 125.736,23.373 125.265,23.949C124.77,24.539 124.522,25.309 124.522,26.26C124.522,27.148 124.766,27.892 125.251,28.492C125.723,29.121 126.373,29.441 127.203,29.45C127.773,29.45 128.328,29.335 128.871,29.106L128.955,29.985C128.358,30.172 127.728,30.262 127.063,30.252C125.877,30.228 124.993,29.824 124.414,29.04C123.825,28.272 123.531,27.345 123.531,26.26C123.541,25.054 123.877,24.093 124.541,23.377C125.201,22.648 126.079,22.278 127.177,22.268C127.629,22.268 128.005,22.302 128.307,22.37C128.462,22.399 128.597,22.43 128.709,22.463C128.817,22.502 128.899,22.536 128.955,22.565L128.886,23.459Z" style="fill:rgb(0,90,170);fill-rule:nonzero;"/>
        <path d="M130.72,18.86L131.623,18.86L131.623,23.729L131.651,23.729C131.854,23.302 132.153,22.949 132.549,22.668C132.944,22.412 133.41,22.278 133.947,22.268C134.932,22.278 135.603,22.578 135.961,23.167C136.31,23.764 136.479,24.545 136.469,25.508L136.469,30.07L135.565,30.07L135.565,25.518C135.565,25.182 135.547,24.863 135.509,24.561C135.467,24.274 135.384,24.02 135.261,23.801C135.03,23.324 134.546,23.081 133.811,23.071C133.018,23.09 132.451,23.404 132.111,24.013C131.776,24.622 131.613,25.28 131.623,25.986L131.623,30.07L130.72,30.07L130.72,18.86Z" style="fill:rgb(0,90,170);fill-rule:nonzero;"/>
        <path d="M144.781,28.275C144.771,28.854 144.792,29.453 144.844,30.07L143.961,30.07L143.961,28.713L143.933,28.713C143.866,28.878 143.774,29.046 143.657,29.216C143.544,29.396 143.396,29.567 143.212,29.727C143.028,29.877 142.801,29.997 142.527,30.084C142.259,30.196 141.932,30.252 141.546,30.252C140.651,30.243 140.007,29.962 139.611,29.413C139.216,28.873 139.022,28.175 139.032,27.319L139.032,22.451L139.936,22.451L139.936,27.082C139.936,27.814 140.075,28.383 140.354,28.793C140.627,29.231 141.073,29.45 141.691,29.45C142.106,29.45 142.458,29.36 142.745,29.18C143.038,29.009 143.26,28.79 143.411,28.522C143.585,28.245 143.706,27.945 143.771,27.623C143.843,27.307 143.878,26.988 143.878,26.667L143.878,22.451L144.781,22.451L144.781,28.275Z" style="fill:rgb(0,90,170);fill-rule:nonzero;"/>
        <path d="M147.345,24.238C147.345,23.655 147.326,23.059 147.288,22.451L148.17,22.451L148.17,23.807L148.198,23.807C148.282,23.627 148.384,23.448 148.501,23.268C148.614,23.087 148.758,22.925 148.932,22.779C149.115,22.619 149.341,22.492 149.609,22.4C149.882,22.312 150.204,22.268 150.575,22.268C151.483,22.278 152.135,22.558 152.529,23.108C152.906,23.643 153.094,24.338 153.094,25.195L153.094,30.07L152.19,30.07L152.19,25.43C152.19,24.705 152.061,24.127 151.801,23.699C151.518,23.289 151.063,23.081 150.436,23.071C149.624,23.09 149.053,23.387 148.723,23.961C148.553,24.235 148.433,24.53 148.361,24.846C148.286,25.177 148.248,25.513 148.248,25.854L148.248,30.07L147.345,30.07L147.345,24.238Z" style="fill:rgb(0,90,170);fill-rule:nonzero;"/>
        <path d="M156.21,26.26C156.199,27.04 156.362,27.724 156.698,28.309C157.029,28.929 157.577,29.248 158.343,29.268C159.165,29.248 159.748,28.919 160.094,28.28C160.424,27.661 160.59,26.988 160.59,26.26C160.59,25.309 160.436,24.543 160.129,23.963C159.808,23.377 159.231,23.081 158.399,23.071C157.965,23.071 157.61,23.165 157.337,23.356C157.058,23.532 156.831,23.78 156.656,24.102C156.5,24.4 156.385,24.739 156.309,25.119C156.242,25.499 156.21,25.88 156.21,26.26ZM161.493,29.443C161.493,30.528 161.238,31.435 160.729,32.164C160.197,32.899 159.3,33.276 158.038,33.295C157.553,33.286 157.107,33.233 156.702,33.136C156.307,33.034 156.007,32.955 155.805,32.896L155.883,31.96C156.491,32.296 157.216,32.474 158.056,32.494C158.646,32.484 159.107,32.374 159.443,32.165C159.792,31.966 160.049,31.687 160.215,31.328C160.389,30.968 160.5,30.555 160.547,30.088C160.586,29.622 160.604,29.12 160.604,28.58L160.575,28.58C160.053,29.592 159.306,30.089 158.335,30.07C157.176,30.04 156.365,29.613 155.904,28.786C155.659,28.406 155.489,27.998 155.395,27.559C155.277,27.122 155.219,26.689 155.219,26.26C155.209,25.074 155.446,24.118 155.933,23.392C156.413,22.653 157.188,22.278 158.258,22.268C158.742,22.268 159.169,22.324 159.536,22.435C159.89,22.571 160.231,22.86 160.562,23.304L160.59,23.304L160.59,22.449L161.493,22.451L161.493,29.443Z" style="fill:rgb(0,90,170);fill-rule:nonzero;"/>
        <path d="M163.402,28.967C163.963,29.28 164.603,29.441 165.323,29.45C165.779,29.45 166.165,29.326 166.48,29.078C166.791,28.849 166.951,28.52 166.961,28.091C166.951,27.638 166.772,27.283 166.424,27.025C166.075,26.776 165.665,26.552 165.194,26.352C164.973,26.246 164.761,26.13 164.559,26.009C164.356,25.887 164.163,25.753 163.979,25.607C163.814,25.447 163.678,25.261 163.569,25.052C163.466,24.852 163.414,24.619 163.414,24.35C163.424,23.59 163.673,23.052 164.162,22.736C164.638,22.424 165.188,22.268 165.814,22.268C166.026,22.268 166.302,22.288 166.641,22.327C166.975,22.384 167.306,22.479 167.636,22.609L167.551,23.428C167.018,23.2 166.471,23.081 165.909,23.071C165.438,23.071 165.063,23.158 164.784,23.334C164.639,23.426 164.525,23.552 164.445,23.713C164.36,23.87 164.317,24.079 164.317,24.341C164.317,24.498 164.372,24.646 164.48,24.788C164.584,24.919 164.723,25.039 164.897,25.145C165.072,25.248 165.27,25.352 165.491,25.459C165.713,25.562 165.93,25.671 166.142,25.789C166.623,25.998 167.042,26.278 167.4,26.628C167.759,26.979 167.942,27.464 167.952,28.082C167.952,28.482 167.874,28.816 167.72,29.084C167.555,29.361 167.348,29.585 167.099,29.755C166.558,30.086 165.984,30.252 165.378,30.252C164.668,30.252 163.98,30.132 163.318,29.891L163.402,28.967Z" style="fill:rgb(0,90,170);fill-rule:nonzero;"/>
        <path d="M170.339,26.26C170.328,27.04 170.491,27.724 170.827,28.309C171.158,28.929 171.706,29.248 172.472,29.268C173.294,29.248 173.877,28.919 174.223,28.28C174.553,27.661 174.719,26.988 174.719,26.26C174.719,25.309 174.564,24.543 174.258,23.963C173.937,23.377 173.36,23.081 172.528,23.071C172.094,23.071 171.739,23.165 171.466,23.356C171.187,23.532 170.96,23.78 170.785,24.102C170.629,24.4 170.514,24.739 170.438,25.119C170.371,25.499 170.339,25.88 170.339,26.26ZM175.622,29.443C175.622,30.528 175.367,31.435 174.858,32.164C174.326,32.899 173.429,33.276 172.167,33.295C171.682,33.286 171.236,33.233 170.831,33.136C170.436,33.034 170.136,32.955 169.934,32.896L170.012,31.96C170.62,32.296 171.345,32.474 172.185,32.494C172.774,32.484 173.236,32.374 173.572,32.165C173.921,31.966 174.178,31.687 174.344,31.328C174.518,30.968 174.629,30.555 174.676,30.088C174.715,29.622 174.733,29.12 174.733,28.58L174.704,28.58C174.182,29.592 173.435,30.089 172.464,30.07C171.305,30.04 170.494,29.613 170.033,28.786C169.788,28.406 169.618,27.998 169.523,27.559C169.406,27.122 169.348,26.689 169.348,26.26C169.338,25.074 169.575,24.118 170.062,23.392C170.542,22.653 171.316,22.278 172.387,22.268C172.871,22.268 173.298,22.324 173.665,22.435C174.019,22.571 174.36,22.86 174.69,23.304L174.719,23.304L174.719,22.449L175.622,22.451L175.622,29.443Z" style="fill:rgb(0,90,170);fill-rule:nonzero;"/>
        <path d="M182.601,25.728C182.601,25.029 182.459,24.417 182.176,23.893C181.878,23.364 181.389,23.09 180.709,23.071C180.043,23.09 179.517,23.369 179.129,23.908C178.732,24.451 178.534,25.058 178.534,25.728L182.601,25.728ZM183.043,29.834C182.351,30.103 181.637,30.243 180.901,30.252C179.694,30.228 178.83,29.843 178.307,29.099C177.788,28.37 177.533,27.423 177.543,26.26C177.553,25.074 177.842,24.113 178.412,23.377C178.963,22.648 179.71,22.278 180.652,22.268C181.684,22.288 182.438,22.663 182.913,23.392C183.365,24.107 183.592,24.993 183.592,26.048L183.592,26.53L178.534,26.53C178.534,27.359 178.742,28.043 179.157,28.58C179.563,29.15 180.167,29.441 180.969,29.45C181.328,29.45 181.705,29.384 182.102,29.252C182.498,29.145 182.813,29.021 183.043,28.879L183.043,29.834Z" style="fill:rgb(0,90,170);fill-rule:nonzero;"/>
        <path d="M194.627,30.07L194.627,24.999C194.627,24.717 194.607,24.456 194.568,24.217C194.509,23.989 194.413,23.789 194.28,23.619C194.162,23.443 193.998,23.304 193.786,23.202C193.575,23.115 193.312,23.071 192.997,23.071C192.467,23.071 191.994,23.289 191.582,23.728C191.159,24.186 190.942,24.895 190.933,25.854L190.933,30.07L190.029,30.07L190.029,24.999C190.029,24.717 190.007,24.456 189.963,24.217C189.904,23.989 189.808,23.789 189.676,23.619C189.558,23.443 189.393,23.304 189.182,23.202C188.97,23.115 188.707,23.071 188.393,23.071C187.861,23.071 187.39,23.289 186.977,23.728C186.554,24.186 186.338,24.895 186.328,25.854L186.328,30.07L185.423,30.07L185.423,24.239C185.423,23.655 185.404,23.059 185.366,22.451L186.275,22.451L186.275,23.736L186.304,23.749C186.372,23.609 186.467,23.454 186.588,23.283C186.685,23.113 186.823,22.955 187.002,22.808C187.182,22.658 187.404,22.526 187.671,22.414C187.938,22.317 188.27,22.268 188.667,22.268C188.847,22.268 189.041,22.288 189.249,22.327C189.448,22.366 189.646,22.446 189.846,22.567C190.044,22.678 190.219,22.838 190.369,23.046C190.515,23.264 190.619,23.54 190.682,23.876L190.711,23.876C190.899,23.419 191.203,23.039 191.62,22.734C192.027,22.433 192.533,22.278 193.14,22.268C193.91,22.278 194.504,22.516 194.921,22.984C195.328,23.446 195.532,24.059 195.532,24.823L195.532,30.07L194.627,30.07Z" style="fill:rgb(0,90,170);fill-rule:nonzero;"/>
        <path d="M202.523,25.728C202.523,25.029 202.382,24.417 202.099,23.893C201.801,23.364 201.312,23.09 200.632,23.071C199.966,23.09 199.439,23.369 199.052,23.908C198.655,24.451 198.457,25.058 198.457,25.728L202.523,25.728ZM202.966,29.834C202.273,30.103 201.56,30.243 200.824,30.252C199.617,30.228 198.753,29.843 198.229,29.099C197.711,28.37 197.456,27.423 197.466,26.26C197.476,25.074 197.765,24.113 198.335,23.377C198.886,22.648 199.633,22.278 200.575,22.268C201.606,22.288 202.36,22.663 202.836,23.392C203.288,24.107 203.515,24.993 203.515,26.048L203.515,26.53L198.457,26.53C198.457,27.359 198.665,28.043 199.08,28.58C199.485,29.15 200.09,29.441 200.892,29.45C201.251,29.45 201.628,29.384 202.024,29.252C202.421,29.145 202.735,29.021 202.966,28.879L202.966,29.834Z" style="fill:rgb(0,90,170);fill-rule:nonzero;"/>
        <path d="M205.494,22.451L206.397,22.451L206.397,30.07L205.494,30.07L205.494,22.451ZM206.397,20.414L205.494,20.414L205.494,19.161L206.397,19.161L206.397,20.414Z" style="fill:rgb(0,90,170);fill-rule:nonzero;"/>
        <path d="M208.814,24.238C208.814,23.655 208.796,23.059 208.758,22.451L209.64,22.451L209.64,23.807L209.668,23.807C209.752,23.627 209.854,23.448 209.971,23.268C210.084,23.087 210.228,22.925 210.401,22.779C210.585,22.619 210.811,22.492 211.079,22.4C211.352,22.312 211.674,22.268 212.045,22.268C212.953,22.278 213.604,22.558 213.999,23.108C214.376,23.643 214.563,24.338 214.563,25.195L214.563,30.07L213.66,30.07L213.66,25.43C213.66,24.705 213.53,24.127 213.271,23.699C212.987,23.289 212.532,23.081 211.905,23.071C211.094,23.09 210.522,23.387 210.192,23.961C210.022,24.235 209.902,24.53 209.831,24.846C209.756,25.177 209.718,25.513 209.718,25.854L209.718,30.07L208.814,30.07L208.814,24.238Z" style="fill:rgb(0,90,170);fill-rule:nonzero;"/>
        <path d="M216.561,28.967C217.121,29.28 217.761,29.441 218.481,29.45C218.938,29.45 219.323,29.326 219.639,29.078C219.949,28.849 220.109,28.52 220.119,28.091C220.109,27.638 219.931,27.283 219.582,27.025C219.233,26.776 218.823,26.552 218.353,26.352C218.131,26.246 217.919,26.13 217.717,26.009C217.515,25.887 217.321,25.753 217.138,25.607C216.973,25.447 216.836,25.261 216.728,25.052C216.624,24.852 216.572,24.619 216.572,24.35C216.582,23.59 216.831,23.052 217.32,22.736C217.796,22.424 218.347,22.268 218.973,22.268C219.185,22.268 219.46,22.288 219.799,22.327C220.133,22.384 220.464,22.479 220.794,22.609L220.709,23.428C220.176,23.2 219.629,23.081 219.067,23.071C218.596,23.071 218.221,23.158 217.942,23.334C217.797,23.426 217.684,23.552 217.604,23.713C217.519,23.87 217.476,24.079 217.476,24.341C217.476,24.498 217.53,24.646 217.639,24.788C217.742,24.919 217.881,25.039 218.056,25.145C218.23,25.248 218.428,25.352 218.649,25.459C218.871,25.562 219.088,25.671 219.3,25.789C219.781,25.998 220.2,26.278 220.559,26.628C220.917,26.979 221.101,27.464 221.11,28.082C221.11,28.482 221.032,28.816 220.878,29.084C220.713,29.361 220.506,29.585 220.257,29.755C219.716,30.086 219.143,30.252 218.536,30.252C217.826,30.252 217.139,30.132 216.477,29.891L216.561,28.967Z" style="fill:rgb(0,90,170);fill-rule:nonzero;"/>
        <path d="M227.743,23.459C227.22,23.209 226.692,23.081 226.159,23.071C225.272,23.081 224.594,23.373 224.122,23.949C223.627,24.539 223.38,25.309 223.38,26.26C223.38,27.148 223.623,27.892 224.108,28.492C224.58,29.121 225.23,29.441 226.061,29.45C226.631,29.45 227.187,29.335 227.729,29.106L227.813,29.985C227.216,30.172 226.585,30.262 225.921,30.252C224.734,30.228 223.851,29.824 223.271,29.04C222.683,28.272 222.389,27.345 222.389,26.26C222.398,25.054 222.734,24.093 223.398,23.377C224.059,22.648 224.937,22.278 226.034,22.268C226.486,22.268 226.862,22.302 227.164,22.37C227.319,22.399 227.454,22.43 227.566,22.463C227.675,22.502 227.758,22.536 227.813,22.565L227.743,23.459Z" style="fill:rgb(0,90,170);fill-rule:nonzero;"/>
        <path d="M229.576,18.86L230.479,18.86L230.479,23.729L230.508,23.729C230.711,23.302 231.01,22.949 231.405,22.668C231.801,22.412 232.267,22.278 232.804,22.268C233.788,22.278 234.459,22.578 234.817,23.167C235.166,23.764 235.335,24.545 235.325,25.508L235.325,30.07L234.422,30.07L234.422,25.518C234.422,25.182 234.403,24.863 234.365,24.561C234.323,24.274 234.24,24.02 234.117,23.801C233.887,23.324 233.402,23.081 232.667,23.071C231.874,23.09 231.308,23.404 230.968,24.013C230.633,24.622 230.47,25.28 230.479,25.986L230.479,30.07L229.576,30.07L229.576,18.86Z" style="fill:rgb(0,90,170);fill-rule:nonzero;"/>
        <path d="M242.041,26.23L241.779,26.23C241.383,26.23 240.986,26.241 240.59,26.26C240.175,26.298 239.797,26.384 239.457,26.516C239.117,26.633 238.846,26.816 238.644,27.065C238.421,27.319 238.311,27.655 238.311,28.075C238.311,28.562 238.466,28.912 238.777,29.121C239.065,29.34 239.422,29.45 239.847,29.45C240.38,29.45 240.8,29.34 241.106,29.121C241.409,28.912 241.628,28.663 241.765,28.374C241.906,28.062 241.987,27.757 242.006,27.459C242.029,27.148 242.041,26.891 242.041,26.692L242.041,26.23ZM242.125,28.85L242.097,28.85C241.885,29.295 241.56,29.637 241.122,29.874C240.688,30.117 240.231,30.243 239.751,30.252C239.237,30.243 238.822,30.158 238.507,29.998C238.177,29.847 237.925,29.658 237.751,29.429C237.443,28.934 237.3,28.492 237.319,28.103C237.319,27.466 237.468,26.964 237.765,26.595C238.057,26.226 238.429,25.961 238.882,25.8C239.334,25.635 239.826,25.526 240.358,25.473C240.882,25.444 241.384,25.429 241.864,25.429L242.041,25.429L242.041,25.039C242.07,23.727 241.509,23.071 240.356,23.071C239.593,23.061 238.868,23.271 238.184,23.703L238.184,22.789C238.867,22.461 239.59,22.288 240.353,22.268C242.1,22.249 242.964,23.195 242.944,25.107L242.944,28.471C242.93,29.05 242.955,29.584 243.021,30.07L242.125,30.07L242.125,28.85Z" style="fill:rgb(0,90,170);fill-rule:nonzero;"/>
        <path d="M245.982,23.253L244.492,23.253L244.492,22.451L245.982,22.451L245.982,21.896C245.982,21.488 246.001,21.088 246.039,20.7C246.058,20.32 246.131,19.982 246.258,19.685C246.38,19.373 246.577,19.128 246.851,18.948C247.108,18.773 247.469,18.685 247.93,18.685C248.085,18.685 248.244,18.69 248.409,18.7C248.574,18.729 248.698,18.773 248.783,18.831L248.727,19.655C248.523,19.543 248.283,19.487 248.005,19.487C247.702,19.487 247.474,19.558 247.318,19.699C247.152,19.86 247.042,20.054 246.985,20.283C246.929,20.511 246.9,20.755 246.9,21.013C246.891,21.281 246.886,21.539 246.886,21.787L246.886,22.451L248.55,22.451L248.55,23.253L246.886,23.253L246.886,30.07L245.982,30.07L245.982,23.253Z" style="fill:rgb(0,90,170);fill-rule:nonzero;"/>
        <path d="M253.513,23.253L251.834,23.253L251.834,28.193C251.834,28.544 251.911,28.838 252.067,29.078C252.209,29.326 252.459,29.45 252.818,29.45C253.148,29.45 253.43,29.389 253.66,29.267L253.717,30.043C253.609,30.081 253.459,30.124 253.266,30.172C253.063,30.226 252.842,30.252 252.603,30.252C252.207,30.252 251.895,30.182 251.664,30.04C251.442,29.9 251.275,29.714 251.163,29.486C251.064,29.248 251.001,28.98 250.973,28.683C250.944,28.381 250.93,28.055 250.93,27.706L250.93,23.253L249.483,23.253L249.483,22.451L250.93,22.451L250.93,20.612L251.834,20.284L251.834,22.451L253.513,22.451L253.513,23.253Z" style="fill:rgb(0,90,170);fill-rule:nonzero;"/>
        <path d="M103.477,46.752L101.739,46.752L101.739,46.092L104.203,46.092L104.203,49.909C103.466,50.228 102.696,50.393 101.893,50.382C100.716,50.36 99.803,49.997 99.143,49.282C98.483,48.567 98.142,47.61 98.142,46.411C98.153,45.223 98.483,44.266 99.154,43.54C99.814,42.825 100.727,42.451 101.893,42.44C102.201,42.44 102.542,42.462 102.927,42.517C103.301,42.572 103.62,42.671 103.884,42.803L103.796,43.507C103.51,43.342 103.202,43.232 102.883,43.166C102.553,43.122 102.223,43.1 101.893,43.1C100.925,43.111 100.177,43.43 99.66,44.035C99.132,44.64 98.868,45.432 98.868,46.411C98.868,47.39 99.132,48.182 99.649,48.787C100.166,49.403 100.914,49.711 101.893,49.722C102.146,49.722 102.432,49.7 102.74,49.656C103.048,49.623 103.29,49.557 103.477,49.447L103.477,46.752Z" style="fill:rgb(97,161,215);fill-rule:nonzero;"/>
        <path d="M109.893,50.074C109.376,50.272 108.859,50.371 108.309,50.382C107.429,50.36 106.791,50.085 106.406,49.535C106.021,48.996 105.834,48.303 105.845,47.445C105.856,46.576 106.065,45.861 106.483,45.322C106.89,44.783 107.44,44.519 108.133,44.508C108.892,44.519 109.442,44.794 109.794,45.333C110.124,45.861 110.289,46.51 110.289,47.291L110.289,47.643L106.571,47.643C106.571,48.248 106.725,48.754 107.033,49.15C107.33,49.568 107.77,49.777 108.364,49.788C108.628,49.788 108.903,49.744 109.2,49.645C109.486,49.568 109.717,49.469 109.893,49.37L109.893,50.074ZM109.563,47.049C109.563,46.532 109.464,46.092 109.255,45.707C109.035,45.311 108.672,45.113 108.166,45.102C107.682,45.113 107.297,45.322 107.011,45.718C106.714,46.114 106.571,46.554 106.571,47.049L109.563,47.049Z" style="fill:rgb(97,161,215);fill-rule:nonzero;"/>
        <path d="M111.741,45.894C111.741,45.377 111.73,44.959 111.697,44.64L112.368,44.64L112.368,45.718L112.39,45.718C112.522,45.388 112.698,45.102 112.929,44.871C113.16,44.64 113.446,44.519 113.787,44.508C113.963,44.519 114.117,44.541 114.249,44.574L114.249,45.289C114.106,45.245 113.941,45.223 113.765,45.223C113.501,45.234 113.281,45.3 113.116,45.421C112.94,45.553 112.808,45.729 112.698,45.96C112.599,46.18 112.522,46.422 112.489,46.675C112.434,46.95 112.412,47.214 112.412,47.467L112.412,50.25L111.741,50.25L111.741,45.894Z" style="fill:rgb(97,161,215);fill-rule:nonzero;"/>
        <path d="M122.08,50.25L122.08,46.521C122.08,46.312 122.069,46.125 122.036,45.949C121.992,45.773 121.926,45.63 121.827,45.509C121.739,45.377 121.618,45.278 121.464,45.201C121.31,45.135 121.112,45.102 120.881,45.102C120.496,45.102 120.144,45.267 119.836,45.586C119.528,45.916 119.374,46.444 119.363,47.148L119.363,50.25L118.692,50.25L118.692,46.521C118.692,46.312 118.681,46.125 118.648,45.949C118.604,45.773 118.527,45.63 118.428,45.509C118.351,45.377 118.23,45.278 118.065,45.201C117.911,45.135 117.724,45.102 117.493,45.102C117.097,45.102 116.756,45.267 116.448,45.586C116.14,45.916 115.986,46.444 115.975,47.148L115.975,50.25L115.304,50.25L115.304,45.96C115.304,45.531 115.293,45.091 115.26,44.64L115.931,44.64L115.931,45.586L115.953,45.597C116.008,45.487 116.074,45.377 116.162,45.256C116.228,45.124 116.338,45.014 116.47,44.904C116.602,44.794 116.767,44.695 116.965,44.618C117.152,44.541 117.405,44.508 117.691,44.508C117.823,44.508 117.966,44.519 118.12,44.552C118.274,44.574 118.417,44.64 118.56,44.728C118.714,44.805 118.835,44.926 118.945,45.08C119.055,45.245 119.132,45.443 119.176,45.696L119.198,45.696C119.341,45.355 119.561,45.08 119.869,44.849C120.166,44.629 120.54,44.519 120.991,44.508C121.552,44.519 121.992,44.695 122.3,45.036C122.597,45.377 122.751,45.828 122.751,46.389L122.751,50.25L122.08,50.25Z" style="fill:rgb(97,161,215);fill-rule:nonzero;"/>
        <path d="M127.691,49.348L127.669,49.348C127.515,49.678 127.273,49.931 126.954,50.107C126.635,50.283 126.294,50.371 125.942,50.382C125.568,50.371 125.26,50.316 125.029,50.195C124.787,50.085 124.6,49.942 124.479,49.777C124.248,49.414 124.149,49.084 124.16,48.798C124.16,48.336 124.27,47.962 124.49,47.687C124.699,47.412 124.974,47.225 125.304,47.104C125.634,46.983 125.997,46.906 126.393,46.862C126.778,46.84 127.141,46.829 127.493,46.829L127.625,46.829L127.625,46.543C127.647,45.586 127.24,45.102 126.393,45.102C125.832,45.091 125.293,45.245 124.798,45.564L124.798,44.893C125.293,44.651 125.832,44.519 126.393,44.508C127.669,44.497 128.307,45.19 128.296,46.598L128.296,49.073C128.285,49.502 128.307,49.887 128.351,50.25L127.691,50.25L127.691,49.348ZM127.625,47.423L127.438,47.423C127.141,47.423 126.855,47.434 126.558,47.445C126.25,47.467 125.975,47.533 125.733,47.632C125.48,47.72 125.282,47.852 125.128,48.039C124.963,48.226 124.886,48.468 124.886,48.776C124.886,49.139 124.996,49.392 125.227,49.546C125.436,49.711 125.7,49.788 126.019,49.788C126.404,49.788 126.712,49.711 126.943,49.546C127.163,49.392 127.328,49.205 127.427,48.996C127.526,48.765 127.581,48.545 127.603,48.325C127.614,48.094 127.625,47.907 127.625,47.764L127.625,47.423Z" style="fill:rgb(97,161,215);fill-rule:nonzero;"/>
        <path d="M130.067,45.96C130.067,45.531 130.056,45.091 130.023,44.64L130.672,44.64L130.672,45.641L130.694,45.641C130.76,45.509 130.837,45.377 130.925,45.245C131.002,45.113 131.112,44.992 131.244,44.882C131.376,44.761 131.541,44.673 131.739,44.607C131.937,44.541 132.179,44.508 132.454,44.508C133.125,44.519 133.609,44.717 133.895,45.124C134.17,45.52 134.313,46.037 134.313,46.664L134.313,50.25L133.642,50.25L133.642,46.84C133.642,46.301 133.543,45.883 133.356,45.564C133.147,45.267 132.817,45.113 132.344,45.102C131.75,45.113 131.332,45.333 131.09,45.762C130.958,45.96 130.87,46.169 130.826,46.411C130.76,46.653 130.738,46.895 130.738,47.148L130.738,50.25L130.067,50.25L130.067,45.96Z" style="fill:rgb(97,161,215);fill-rule:nonzero;"/>
        <path d="M140.077,45.971L140.858,45.971C141.32,45.982 141.738,45.872 142.123,45.663C142.508,45.454 142.706,45.091 142.717,44.563C142.717,44.244 142.673,44.002 142.574,43.815C142.475,43.639 142.332,43.496 142.167,43.419C141.991,43.331 141.793,43.276 141.562,43.254C141.331,43.243 141.089,43.232 140.836,43.232L140.077,43.232L140.077,45.971ZM139.351,42.572L141.265,42.572C142.673,42.55 143.399,43.21 143.443,44.563C143.432,45.058 143.278,45.465 142.959,45.762C142.651,46.07 142.266,46.257 141.793,46.334L141.793,46.356C142.079,46.389 142.288,46.488 142.42,46.642C142.486,46.719 142.541,46.807 142.596,46.917C142.651,47.027 142.706,47.148 142.761,47.28L144.015,50.25L143.212,50.25L142.134,47.654C141.936,47.181 141.727,46.884 141.518,46.763C141.408,46.697 141.287,46.653 141.144,46.642C141.012,46.631 140.858,46.631 140.682,46.631L140.077,46.631L140.077,50.25L139.351,50.25L139.351,42.572Z" style="fill:rgb(97,161,215);fill-rule:nonzero;"/>
        <path d="M149.01,50.074C148.493,50.272 147.976,50.371 147.426,50.382C146.546,50.36 145.908,50.085 145.523,49.535C145.138,48.996 144.951,48.303 144.962,47.445C144.973,46.576 145.182,45.861 145.6,45.322C146.007,44.783 146.557,44.519 147.25,44.508C148.009,44.519 148.559,44.794 148.911,45.333C149.241,45.861 149.406,46.51 149.406,47.291L149.406,47.643L145.688,47.643C145.688,48.248 145.842,48.754 146.15,49.15C146.447,49.568 146.887,49.777 147.481,49.788C147.745,49.788 148.02,49.744 148.317,49.645C148.603,49.568 148.834,49.469 149.01,49.37L149.01,50.074ZM148.68,47.049C148.68,46.532 148.581,46.092 148.372,45.707C148.152,45.311 147.789,45.113 147.283,45.102C146.799,45.113 146.414,45.322 146.128,45.718C145.831,46.114 145.688,46.554 145.688,47.049L148.68,47.049Z" style="fill:rgb(97,161,215);fill-rule:nonzero;"/>
        <path d="M150.44,49.436C150.858,49.667 151.331,49.777 151.859,49.788C152.2,49.788 152.486,49.7 152.717,49.513C152.948,49.348 153.058,49.106 153.069,48.787C153.058,48.457 152.926,48.193 152.673,48.006C152.42,47.819 152.112,47.654 151.771,47.511C151.606,47.434 151.441,47.346 151.298,47.258C151.144,47.17 151.001,47.071 150.869,46.961C150.748,46.84 150.649,46.708 150.572,46.554C150.495,46.411 150.451,46.235 150.451,46.037C150.462,45.476 150.638,45.08 151.001,44.849C151.353,44.618 151.76,44.508 152.222,44.508C152.376,44.508 152.585,44.519 152.827,44.552C153.08,44.596 153.322,44.662 153.564,44.761L153.498,45.355C153.113,45.19 152.706,45.113 152.288,45.102C151.947,45.102 151.672,45.168 151.463,45.289C151.353,45.366 151.276,45.454 151.21,45.575C151.155,45.685 151.122,45.839 151.122,46.037C151.122,46.147 151.166,46.257 151.243,46.367C151.32,46.455 151.419,46.543 151.551,46.631C151.672,46.697 151.826,46.774 151.98,46.862C152.145,46.928 152.31,47.016 152.464,47.104C152.816,47.258 153.124,47.456 153.388,47.72C153.652,47.973 153.784,48.336 153.795,48.787C153.795,49.084 153.74,49.326 153.619,49.524C153.498,49.722 153.344,49.887 153.168,50.019C152.772,50.261 152.343,50.382 151.903,50.382C151.375,50.382 150.869,50.294 150.385,50.118L150.44,49.436Z" style="fill:rgb(97,161,215);fill-rule:nonzero;"/>
        <path d="M158.791,50.074C158.274,50.272 157.757,50.371 157.207,50.382C156.327,50.36 155.689,50.085 155.304,49.535C154.919,48.996 154.732,48.303 154.743,47.445C154.754,46.576 154.963,45.861 155.381,45.322C155.788,44.783 156.338,44.519 157.031,44.508C157.79,44.519 158.34,44.794 158.692,45.333C159.022,45.861 159.187,46.51 159.187,47.291L159.187,47.643L155.469,47.643C155.469,48.248 155.623,48.754 155.931,49.15C156.228,49.568 156.668,49.777 157.262,49.788C157.526,49.788 157.801,49.744 158.098,49.645C158.384,49.568 158.615,49.469 158.791,49.37L158.791,50.074ZM158.461,47.049C158.461,46.532 158.362,46.092 158.153,45.707C157.933,45.311 157.57,45.113 157.064,45.102C156.58,45.113 156.195,45.322 155.909,45.718C155.612,46.114 155.469,46.554 155.469,47.049L158.461,47.049Z" style="fill:rgb(97,161,215);fill-rule:nonzero;"/>
        <path d="M163.763,49.348L163.741,49.348C163.587,49.678 163.345,49.931 163.026,50.107C162.707,50.283 162.366,50.371 162.014,50.382C161.64,50.371 161.332,50.316 161.101,50.195C160.859,50.085 160.672,49.942 160.551,49.777C160.32,49.414 160.221,49.084 160.232,48.798C160.232,48.336 160.342,47.962 160.562,47.687C160.771,47.412 161.046,47.225 161.376,47.104C161.706,46.983 162.069,46.906 162.465,46.862C162.85,46.84 163.213,46.829 163.565,46.829L163.697,46.829L163.697,46.543C163.719,45.586 163.312,45.102 162.465,45.102C161.904,45.091 161.365,45.245 160.87,45.564L160.87,44.893C161.365,44.651 161.904,44.519 162.465,44.508C163.741,44.497 164.379,45.19 164.368,46.598L164.368,49.073C164.357,49.502 164.379,49.887 164.423,50.25L163.763,50.25L163.763,49.348ZM163.697,47.423L163.51,47.423C163.213,47.423 162.927,47.434 162.63,47.445C162.322,47.467 162.047,47.533 161.805,47.632C161.552,47.72 161.354,47.852 161.2,48.039C161.035,48.226 160.958,48.468 160.958,48.776C160.958,49.139 161.068,49.392 161.299,49.546C161.508,49.711 161.772,49.788 162.091,49.788C162.476,49.788 162.784,49.711 163.015,49.546C163.235,49.392 163.4,49.205 163.499,48.996C163.598,48.765 163.653,48.545 163.675,48.325C163.686,48.094 163.697,47.907 163.697,47.764L163.697,47.423Z" style="fill:rgb(97,161,215);fill-rule:nonzero;"/>
        <path d="M166.139,45.894C166.139,45.377 166.128,44.959 166.095,44.64L166.766,44.64L166.766,45.718L166.788,45.718C166.92,45.388 167.096,45.102 167.327,44.871C167.558,44.64 167.844,44.519 168.185,44.508C168.361,44.519 168.515,44.541 168.647,44.574L168.647,45.289C168.504,45.245 168.339,45.223 168.163,45.223C167.899,45.234 167.679,45.3 167.514,45.421C167.338,45.553 167.206,45.729 167.096,45.96C166.997,46.18 166.92,46.422 166.887,46.675C166.832,46.95 166.81,47.214 166.81,47.467L166.81,50.25L166.139,50.25L166.139,45.894Z" style="fill:rgb(97,161,215);fill-rule:nonzero;"/>
        <path d="M173.145,45.388C172.76,45.201 172.375,45.113 171.979,45.102C171.33,45.113 170.824,45.322 170.483,45.751C170.109,46.18 169.933,46.741 169.933,47.445C169.933,48.094 170.109,48.644 170.472,49.084C170.813,49.546 171.297,49.777 171.902,49.788C172.32,49.788 172.738,49.7 173.134,49.535L173.2,50.184C172.76,50.327 172.287,50.393 171.803,50.382C170.934,50.36 170.285,50.063 169.856,49.491C169.427,48.93 169.207,48.248 169.207,47.445C169.218,46.554 169.46,45.85 169.955,45.322C170.439,44.783 171.077,44.519 171.891,44.508C172.221,44.508 172.496,44.53 172.716,44.585C172.837,44.607 172.936,44.629 173.013,44.651C173.09,44.684 173.156,44.706 173.2,44.728L173.145,45.388Z" style="fill:rgb(97,161,215);fill-rule:nonzero;"/>
        <path d="M174.485,42L175.156,42L175.156,45.586L175.178,45.586C175.321,45.267 175.541,45.014 175.838,44.805C176.135,44.618 176.476,44.519 176.872,44.508C177.598,44.519 178.093,44.739 178.357,45.168C178.61,45.608 178.742,46.18 178.731,46.895L178.731,50.25L178.06,50.25L178.06,46.906C178.06,46.653 178.049,46.422 178.016,46.202C177.983,45.982 177.928,45.795 177.84,45.641C177.664,45.289 177.312,45.113 176.762,45.102C176.179,45.113 175.761,45.344 175.519,45.795C175.266,46.246 175.145,46.73 175.156,47.247L175.156,50.25L174.485,50.25L174.485,42Z" style="fill:rgb(97,161,215);fill-rule:nonzero;"/>
        <path d="M183.648,42.572L187.179,42.572L187.179,43.232L184.374,43.232L184.374,45.971L187.047,45.971L187.047,46.631L184.374,46.631L184.374,50.25L183.648,50.25L183.648,42.572Z" style="fill:rgb(97,161,215);fill-rule:nonzero;"/>
        <path d="M188.135,47.445C188.135,46.642 188.344,45.96 188.751,45.399C189.158,44.816 189.796,44.519 190.665,44.508C191.545,44.519 192.183,44.816 192.601,45.399C192.997,45.96 193.195,46.642 193.195,47.445C193.195,48.226 192.997,48.908 192.601,49.48C192.183,50.063 191.545,50.36 190.665,50.382C189.796,50.36 189.158,50.063 188.751,49.48C188.344,48.908 188.135,48.226 188.135,47.445ZM188.861,47.445C188.861,48.116 189.015,48.666 189.334,49.095C189.631,49.546 190.071,49.777 190.665,49.788C191.259,49.777 191.71,49.546 192.018,49.095C192.326,48.666 192.469,48.116 192.469,47.445C192.469,46.774 192.326,46.213 192.018,45.773C191.71,45.333 191.259,45.113 190.665,45.102C190.071,45.113 189.631,45.333 189.334,45.773C189.015,46.213 188.861,46.774 188.861,47.445Z" style="fill:rgb(97,161,215);fill-rule:nonzero;"/>
        <path d="M198.905,48.93C198.894,49.359 198.916,49.799 198.949,50.25L198.3,50.25L198.3,49.249L198.278,49.249C198.223,49.37 198.157,49.491 198.069,49.623C197.992,49.755 197.882,49.876 197.75,49.997C197.607,50.107 197.442,50.195 197.244,50.261C197.046,50.338 196.804,50.382 196.518,50.382C195.858,50.371 195.374,50.173 195.088,49.766C194.791,49.37 194.648,48.853 194.659,48.226L194.659,44.64L195.33,44.64L195.33,48.05C195.33,48.589 195.429,49.007 195.638,49.304C195.836,49.623 196.166,49.788 196.628,49.788C196.925,49.788 197.189,49.722 197.398,49.59C197.618,49.469 197.783,49.304 197.893,49.106C198.014,48.897 198.113,48.677 198.157,48.446C198.212,48.215 198.234,47.973 198.234,47.742L198.234,44.64L198.905,44.64L198.905,48.93Z" style="fill:rgb(97,161,215);fill-rule:nonzero;"/>
        <path d="M200.777,45.96C200.777,45.531 200.766,45.091 200.733,44.64L201.382,44.64L201.382,45.641L201.404,45.641C201.47,45.509 201.547,45.377 201.635,45.245C201.712,45.113 201.822,44.992 201.954,44.882C202.086,44.761 202.251,44.673 202.449,44.607C202.647,44.541 202.889,44.508 203.164,44.508C203.835,44.519 204.319,44.717 204.605,45.124C204.88,45.52 205.023,46.037 205.023,46.664L205.023,50.25L204.352,50.25L204.352,46.84C204.352,46.301 204.253,45.883 204.066,45.564C203.857,45.267 203.527,45.113 203.054,45.102C202.46,45.113 202.042,45.333 201.8,45.762C201.668,45.96 201.58,46.169 201.536,46.411C201.47,46.653 201.448,46.895 201.448,47.148L201.448,50.25L200.777,50.25L200.777,45.96Z" style="fill:rgb(97,161,215);fill-rule:nonzero;"/>
        <path d="M211.207,50.25L210.536,50.25L210.536,49.359L210.514,49.359C210.162,50.052 209.601,50.393 208.82,50.382C208.083,50.36 207.522,50.085 207.159,49.535C206.774,48.985 206.587,48.281 206.587,47.445C206.576,46.576 206.752,45.872 207.115,45.333C207.467,44.794 208.039,44.519 208.82,44.508C209.095,44.508 209.326,44.552 209.524,44.629C209.733,44.706 209.898,44.816 210.041,44.937C210.316,45.19 210.47,45.41 210.514,45.586L210.536,45.586L210.536,42L211.207,42L211.207,50.25ZM207.313,47.445C207.313,47.709 207.335,47.973 207.39,48.248C207.445,48.523 207.522,48.787 207.643,49.018C207.764,49.238 207.94,49.414 208.138,49.557C208.347,49.711 208.6,49.788 208.93,49.788C209.227,49.788 209.48,49.711 209.689,49.557C209.898,49.414 210.063,49.227 210.184,48.996C210.426,48.501 210.547,47.984 210.536,47.445C210.536,47.181 210.514,46.906 210.459,46.631C210.404,46.367 210.316,46.114 210.184,45.883C210.063,45.641 209.898,45.454 209.689,45.311C209.48,45.168 209.227,45.102 208.93,45.102C208.6,45.102 208.347,45.168 208.138,45.311C207.94,45.443 207.764,45.619 207.643,45.861C207.522,46.081 207.445,46.323 207.39,46.609C207.335,46.884 207.313,47.17 207.313,47.445Z" style="fill:rgb(97,161,215);fill-rule:nonzero;"/>
        <path d="M216.136,49.348L216.114,49.348C215.96,49.678 215.718,49.931 215.399,50.107C215.08,50.283 214.739,50.371 214.387,50.382C214.013,50.371 213.705,50.316 213.474,50.195C213.232,50.085 213.045,49.942 212.924,49.777C212.693,49.414 212.594,49.084 212.605,48.798C212.605,48.336 212.715,47.962 212.935,47.687C213.144,47.412 213.419,47.225 213.749,47.104C214.079,46.983 214.442,46.906 214.838,46.862C215.223,46.84 215.586,46.829 215.938,46.829L216.07,46.829L216.07,46.543C216.092,45.586 215.685,45.102 214.838,45.102C214.277,45.091 213.738,45.245 213.243,45.564L213.243,44.893C213.738,44.651 214.277,44.519 214.838,44.508C216.114,44.497 216.752,45.19 216.741,46.598L216.741,49.073C216.73,49.502 216.752,49.887 216.796,50.25L216.136,50.25L216.136,49.348ZM216.07,47.423L215.883,47.423C215.586,47.423 215.3,47.434 215.003,47.445C214.695,47.467 214.42,47.533 214.178,47.632C213.925,47.72 213.727,47.852 213.573,48.039C213.408,48.226 213.331,48.468 213.331,48.776C213.331,49.139 213.441,49.392 213.672,49.546C213.881,49.711 214.145,49.788 214.464,49.788C214.849,49.788 215.157,49.711 215.388,49.546C215.608,49.392 215.773,49.205 215.872,48.996C215.971,48.765 216.026,48.545 216.048,48.325C216.059,48.094 216.07,47.907 216.07,47.764L216.07,47.423Z" style="fill:rgb(97,161,215);fill-rule:nonzero;"/>
        <path d="M220.855,45.234L219.623,45.234L219.623,48.864C219.623,49.128 219.678,49.337 219.799,49.513C219.898,49.7 220.085,49.788 220.349,49.788C220.591,49.788 220.8,49.744 220.965,49.656L221.009,50.228C220.932,50.261 220.822,50.283 220.679,50.327C220.525,50.36 220.36,50.382 220.184,50.382C219.898,50.382 219.667,50.327 219.491,50.228C219.326,50.118 219.205,49.986 219.128,49.821C219.051,49.645 219.007,49.447 218.985,49.227C218.963,49.007 218.952,48.765 218.952,48.512L218.952,45.234L217.885,45.234L217.885,44.64L218.952,44.64L218.952,43.287L219.623,43.045L219.623,44.64L220.855,44.64L220.855,45.234Z" style="fill:rgb(97,161,215);fill-rule:nonzero;"/>
        <path d="M222.175,44.64L222.846,44.64L222.846,50.25L222.175,50.25L222.175,44.64ZM222.846,43.144L222.175,43.144L222.175,42.22L222.846,42.22L222.846,43.144Z" style="fill:rgb(97,161,215);fill-rule:nonzero;"/>
        <path d="M224.213,47.445C224.213,46.642 224.422,45.96 224.829,45.399C225.236,44.816 225.874,44.519 226.743,44.508C227.623,44.519 228.261,44.816 228.679,45.399C229.075,45.96 229.273,46.642 229.273,47.445C229.273,48.226 229.075,48.908 228.679,49.48C228.261,50.063 227.623,50.36 226.743,50.382C225.874,50.36 225.236,50.063 224.829,49.48C224.422,48.908 224.213,48.226 224.213,47.445ZM224.939,47.445C224.939,48.116 225.093,48.666 225.412,49.095C225.709,49.546 226.149,49.777 226.743,49.788C227.337,49.777 227.788,49.546 228.096,49.095C228.404,48.666 228.547,48.116 228.547,47.445C228.547,46.774 228.404,46.213 228.096,45.773C227.788,45.333 227.337,45.113 226.743,45.102C226.149,45.113 225.709,45.333 225.412,45.773C225.093,46.213 224.939,46.774 224.939,47.445Z" style="fill:rgb(97,161,215);fill-rule:nonzero;"/>
        <path d="M230.737,45.96C230.737,45.531 230.726,45.091 230.693,44.64L231.342,44.64L231.342,45.641L231.364,45.641C231.43,45.509 231.507,45.377 231.595,45.245C231.672,45.113 231.782,44.992 231.914,44.882C232.046,44.761 232.211,44.673 232.409,44.607C232.607,44.541 232.849,44.508 233.124,44.508C233.795,44.519 234.279,44.717 234.565,45.124C234.84,45.52 234.983,46.037 234.983,46.664L234.983,50.25L234.312,50.25L234.312,46.84C234.312,46.301 234.213,45.883 234.026,45.564C233.817,45.267 233.487,45.113 233.014,45.102C232.42,45.113 232.002,45.333 231.76,45.762C231.628,45.96 231.54,46.169 231.496,46.411C231.43,46.653 231.408,46.895 231.408,47.148L231.408,50.25L230.737,50.25L230.737,45.96Z" style="fill:rgb(97,161,215);fill-rule:nonzero;"/>
    </g>
</svg>
