<?xml version="1.0" encoding="UTF-8" standalone="no"?>
<!DOCTYPE svg PUBLIC "-//W3C//DTD SVG 1.1//EN" "http://www.w3.org/Graphics/SVG/1.1/DTD/svg11.dtd">
<svg width="100%" height="100%" viewBox="0 0 1600 675" version="1.1" xmlns="http://www.w3.org/2000/svg" xmlns:xlink="http://www.w3.org/1999/xlink" xml:space="preserve" xmlns:serif="http://www.serif.com/" style="fill-rule:evenodd;clip-rule:evenodd;stroke-linejoin:round;stroke-miterlimit:2;">
    <g transform="matrix(0.1,0,0,-0.1,0,675)">
        <path d="M1129,6746C1126,6742 1083,6735 1034,6729C745,6693 480,6542 284,6299C130,6107 45,5898 15,5633C1,5509 1,5480 14,5355C38,5127 92,4962 197,4798C362,4540 642,4336 920,4270C1339,4171 1714,4256 1998,4515C2033,4547 2064,4570 2067,4566C2077,4556 2050,4360 2028,4285C1953,4029 1765,3849 1500,3778C1453,3766 1377,3756 1299,3753C1064,3743 884,3806 740,3950C698,3992 654,4041 644,4059L626,4090L398,4090C214,4090 170,4087 170,4077C170,4057 262,3872 301,3815C349,3744 462,3627 539,3570C613,3514 753,3443 850,3410C1096,3327 1481,3329 1735,3415C1894,3469 2004,3536 2128,3654C2328,3846 2439,4080 2484,4410C2498,4508 2500,4675 2500,5602L2500,6680L2071,6680L2065,6402L1995,6462C1863,6575 1758,6635 1607,6684C1549,6704 1466,6725 1423,6731C1331,6745 1138,6754 1129,6746ZM1467,6300C1736,6227 1956,6011 2052,5724C2073,5661 2075,5638 2074,5470C2074,5288 2073,5284 2042,5201C1965,4995 1814,4825 1621,4726C1506,4668 1415,4647 1274,4647C1134,4648 1045,4668 925,4725C762,4804 624,4942 545,5105C493,5210 476,5273 459,5409C449,5495 449,5524 464,5618C483,5740 502,5801 554,5894C663,6094 856,6245 1070,6299C1178,6327 1365,6327 1467,6300Z" style="fill:rgb(0,140,224);fill-rule:nonzero;"/>
        <path d="M3809,6746C3806,6742 3765,6735 3719,6730C3475,6700 3255,6588 3064,6396C2812,6143 2697,5859 2698,5485C2698,5263 2730,5111 2815,4924C2916,4702 3162,4454 3384,4351C3685,4212 4046,4191 4326,4296C4463,4347 4632,4453 4715,4541L4745,4571L4755,4285L4973,4282L5190,4280L5190,6680L4750,6680L4750,6398L4690,6453C4531,6600 4326,6698 4105,6732C4022,6744 3817,6754 3809,6746ZM4132,6305C4314,6263 4484,6149 4605,5988C4786,5747 4824,5393 4696,5125C4648,5025 4553,4901 4468,4831C4385,4762 4246,4689 4150,4664C4066,4643 3870,4642 3780,4664C3488,4733 3253,4963 3173,5259C3150,5343 3147,5374 3147,5500C3148,5627 3151,5656 3174,5733C3218,5880 3279,5981 3391,6091C3492,6190 3597,6252 3740,6294C3810,6314 3847,6319 3947,6319C4020,6320 4094,6314 4132,6305Z" style="fill:rgb(0,140,224);fill-rule:nonzero;"/>
        <path d="M6511,6715C6314,6671 6156,6591 6005,6462L5935,6402L5929,6680L5490,6680L5490,3510L5920,3510L5920,4572L5988,4512C6148,4371 6319,4285 6535,4238C6625,4219 6925,4222 7024,4244C7261,4295 7420,4381 7602,4558C7884,4832 8011,5182 7980,5598C7956,5911 7844,6157 7626,6376C7471,6530 7301,6632 7110,6684C7074,6694 7029,6706 7010,6712C6950,6729 6585,6732 6511,6715ZM6915,6300C7214,6224 7451,5975 7517,5666C7528,5613 7531,5554 7527,5435C7523,5287 7521,5269 7493,5195C7437,5046 7368,4949 7230,4827C7153,4759 7017,4690 6910,4664C6800,4638 6620,4640 6516,4669C6392,4703 6290,4762 6193,4854C6056,4983 5976,5114 5934,5275C5909,5372 5909,5609 5933,5700C6008,5980 6247,6223 6525,6301C6615,6326 6812,6326 6915,6300Z" style="fill:rgb(0,140,224);fill-rule:nonzero;"/>
        <path d="M9130,6373C9116,6371 9070,6358 9026,6344C8901,6303 8802,6243 8702,6146C8536,5987 8450,5781 8450,5545C8450,5319 8533,5117 8689,4960C8835,4813 8977,4742 9180,4716C9357,4693 9513,4721 9680,4805C9855,4894 10027,5094 10082,5275C10119,5395 10123,5421 10123,5550C10123,5667 10119,5697 10096,5775C10026,6008 9870,6193 9655,6300C9530,6361 9440,6380 9286,6379C9214,6378 9144,6375 9130,6373Z" style="fill:rgb(0,140,224);fill-rule:nonzero;"/>
        <path d="M15207,3813C15203,3810 15200,3783 15200,3753L15200,3700L15310,3700L15310,3820L15262,3820C15235,3820 15210,3817 15207,3813Z" style="fill:rgb(0,140,224);fill-rule:nonzero;"/>
        <path d="M15407,3813C15403,3810 15400,3783 15400,3753L15400,3700L15510,3700L15510,3820L15462,3820C15435,3820 15410,3817 15407,3813Z" style="fill:rgb(0,140,224);fill-rule:nonzero;"/>
        <path d="M13935,3784C13863,3758 13820,3698 13820,3625C13820,3592 13818,3590 13785,3590L13750,3590L13750,3490L13820,3490L13820,2970L13930,2970L13930,3490L14030,3490L14030,3590L13980,3590C13931,3590 13930,3591 13930,3620C13930,3658 13962,3690 14000,3690C14030,3690 14030,3691 14030,3745C14030,3799 14029,3800 14003,3799C13987,3799 13957,3792 13935,3784Z" style="fill:rgb(0,140,224);fill-rule:nonzero;"/>
        <path d="M14940,3791C14856,3765 14811,3709 14810,3628C14810,3593 14808,3591 14773,3588C14735,3585 14735,3585 14732,3538L14729,3490L14810,3490L14810,2970L14920,2970L14920,3490L15020,3490L15020,3590L14970,3590C14921,3590 14920,3591 14920,3620C14920,3658 14952,3690 14990,3690C15020,3690 15020,3691 15020,3745C15020,3799 15019,3800 14993,3799C14977,3799 14954,3795 14940,3791Z" style="fill:rgb(0,140,224);fill-rule:nonzero;"/>
        <path d="M10757,3783C10753,3780 10750,3595 10750,3373L10750,2970L10870,2970L10870,3790L10817,3790C10787,3790 10760,3787 10757,3783Z" style="fill:rgb(0,140,224);fill-rule:nonzero;"/>
        <path d="M11000,3790L11000,2970L11110,2970L11110,3790L11000,3790Z" style="fill:rgb(0,140,224);fill-rule:nonzero;"/>
        <path d="M12390,3790L12390,2970L12505,2970L12502,3081C12498,3220 12513,3378 12535,3420C12572,3491 12698,3510 12752,3452C12794,3407 12800,3370 12800,3164L12800,2970L12920,2970L12920,3156C12920,3389 12907,3458 12849,3523C12807,3572 12744,3600 12680,3600C12632,3600 12556,3574 12534,3549C12525,3539 12513,3530 12508,3530C12504,3530 12500,3589 12500,3660L12500,3790L12390,3790Z" style="fill:rgb(0,140,224);fill-rule:nonzero;"/>
        <path d="M14170,3790L14170,3591L14128,3588L14085,3585L14085,3485L14128,3482L14170,3479L14170,2970L14280,2970L14280,3480L14370,3480L14370,3590L14280,3590L14280,3790L14170,3790Z" style="fill:rgb(0,140,224);fill-rule:nonzero;"/>
        <path d="M9129,3600C9037,3584 8948,3515 8899,3420C8879,3382 8875,3360 8875,3280C8875,3201 8879,3177 8898,3139C8988,2957 9197,2896 9364,3003C9413,3034 9496,3143 9484,3161C9481,3166 9454,3170 9424,3170C9374,3170 9367,3167 9338,3134C9321,3115 9294,3092 9277,3083C9234,3061 9139,3063 9093,3087C9055,3107 9007,3166 8995,3208L8989,3230L9513,3230L9506,3301C9497,3389 9473,3447 9419,3504C9348,3582 9237,3618 9129,3600ZM9284,3472C9322,3450 9380,3375 9380,3349C9380,3331 9371,3330 9191,3330C9086,3330 8999,3334 8996,3339C8987,3352 9033,3431 9061,3452C9127,3501 9220,3510 9284,3472Z" style="fill:rgb(0,140,224);fill-rule:nonzero;"/>
        <path d="M9715,3599C9650,3581 9590,3497 9590,3425C9590,3345 9637,3288 9735,3250C9816,3219 9850,3186 9850,3140C9850,3034 9699,3030 9672,3134C9665,3161 9659,3165 9626,3168C9566,3173 9561,3168 9571,3114C9590,3013 9663,2950 9760,2950C9883,2950 9973,3055 9956,3179C9945,3257 9925,3280 9815,3335C9706,3390 9685,3414 9708,3464C9730,3514 9814,3510 9833,3460C9844,3432 9848,3430 9897,3430C9955,3430 9956,3432 9939,3491C9912,3579 9812,3628 9715,3599Z" style="fill:rgb(0,140,224);fill-rule:nonzero;"/>
        <path d="M10279,3600C10187,3584 10097,3514 10049,3420C10030,3383 10026,3359 10025,3284C10025,3199 10027,3188 10060,3124C10172,2905 10469,2888 10602,3094C10623,3126 10637,3156 10634,3161C10631,3166 10606,3170 10577,3170C10530,3170 10522,3167 10480,3125C10428,3073 10371,3057 10294,3071C10228,3083 10165,3142 10145,3208L10139,3230L10663,3230L10656,3301C10647,3396 10618,3459 10559,3515C10481,3588 10384,3618 10279,3600ZM10444,3466C10467,3453 10495,3424 10508,3402C10549,3328 10554,3330 10340,3330C10156,3330 10150,3331 10150,3350C10150,3401 10211,3459 10300,3494C10328,3504 10403,3490 10444,3466Z" style="fill:rgb(0,140,224);fill-rule:nonzero;"/>
        <path d="M11347,3596C11299,3578 11273,3555 11249,3508C11224,3459 11225,3390 11251,3339C11269,3303 11283,3293 11364,3255C11416,3231 11465,3201 11474,3189C11533,3105 11418,3013 11342,3083C11330,3094 11316,3118 11312,3134C11304,3163 11301,3165 11251,3168L11197,3171L11203,3135C11206,3115 11219,3078 11231,3054C11299,2912 11515,2919 11581,3065C11632,3177 11577,3292 11450,3337C11381,3361 11338,3398 11338,3433C11338,3512 11451,3526 11475,3450C11480,3433 11490,3430 11535,3430L11590,3430L11583,3463C11561,3578 11459,3636 11347,3596Z" style="fill:rgb(0,140,224);fill-rule:nonzero;"/>
        <path d="M11925,3600C11829,3584 11729,3505 11687,3411C11654,3340 11657,3214 11692,3138C11777,2955 11999,2893 12162,3006C12200,3033 12263,3117 12275,3158C12281,3179 12279,3180 12226,3180C12172,3180 12168,3178 12123,3131C11986,2990 11780,3079 11780,3279C11780,3404 11861,3491 11977,3492C12043,3492 12086,3473 12129,3424C12166,3382 12170,3380 12224,3380C12279,3380 12281,3381 12275,3403C12271,3415 12252,3449 12232,3479C12169,3572 12045,3621 11925,3600Z" style="fill:rgb(0,140,224);fill-rule:nonzero;"/>
        <path d="M8299,3567C8189,3511 8130,3407 8130,3273C8130,3132 8217,3010 8346,2970C8383,2959 8429,2950 8449,2950C8504,2950 8580,2977 8622,3011C8664,3045 8669,3038 8650,2968C8617,2850 8462,2792 8354,2855C8330,2869 8306,2889 8300,2900C8291,2916 8279,2920 8236,2920C8207,2920 8181,2917 8177,2914C8167,2904 8205,2838 8242,2803C8299,2748 8362,2726 8462,2726C8535,2727 8556,2731 8604,2754C8671,2787 8723,2845 8750,2917C8768,2967 8770,2995 8770,3280L8770,3590L8660,3590L8660,3519L8628,3544C8572,3585 8523,3600 8440,3600C8371,3600 8354,3596 8299,3567ZM8571,3455C8615,3427 8644,3381 8661,3318C8697,3186 8563,3043 8425,3065C8320,3082 8250,3167 8250,3279C8250,3396 8314,3470 8435,3492C8468,3498 8532,3481 8571,3455Z" style="fill:rgb(0,140,224);fill-rule:nonzero;"/>
        <path d="M13225,3587C13136,3552 13083,3501 13042,3412C13020,3364 13018,3348 13022,3262C13027,3153 13038,3123 13103,3053C13153,2999 13196,2976 13277,2959C13356,2943 13430,2958 13500,3005L13550,3039L13550,2970L13660,2970L13660,3590L13550,3590L13550,3555C13550,3536 13547,3520 13544,3520C13541,3520 13522,3533 13502,3549C13482,3565 13450,3583 13431,3589C13387,3603 13264,3602 13225,3587ZM13447,3465C13577,3380 13584,3197 13462,3103C13325,2998 13130,3106 13130,3287C13130,3338 13171,3420 13212,3450C13276,3497 13386,3504 13447,3465Z" style="fill:rgb(0,140,224);fill-rule:nonzero;"/>
        <path d="M15943,3585C15925,3577 15899,3560 15885,3546L15860,3521L15860,3591L15808,3588L15755,3585L15752,3278L15750,2970L15869,2970L15872,3184C15875,3428 15880,3442 15958,3470L16000,3484L16000,3542C16000,3606 15996,3608 15943,3585Z" style="fill:rgb(0,140,224);fill-rule:nonzero;"/>
        <path d="M15100,3372C15100,3122 15108,3082 15170,3020C15209,2981 15282,2950 15336,2950C15382,2950 15451,2977 15482,3007L15510,3034L15510,2970L15620,2970L15618,3278L15615,3585L15513,3591L15508,3387C15502,3162 15494,3128 15439,3089C15402,3063 15312,3060 15275,3084C15222,3119 15216,3147 15212,3378L15208,3590L15100,3590L15100,3372Z" style="fill:rgb(0,140,224);fill-rule:nonzero;"/>
        <path d="M10310,2400L10310,1580L10420,1580L10420,2400L10310,2400Z" style="fill:rgb(0,140,224);fill-rule:nonzero;"/>
        <path d="M11180,2400L11180,2200L11100,2200L11100,2100L11180,2100L11182,1843L11185,1585L11295,1585L11298,1843L11300,2100L11380,2100L11380,2200L11300,2200L11300,2400L11180,2400Z" style="fill:rgb(0,140,224);fill-rule:nonzero;"/>
        <path d="M11462,2338L11465,2275L11518,2272L11570,2269L11570,2400L11459,2400L11462,2338Z" style="fill:rgb(0,140,224);fill-rule:nonzero;"/>
        <path d="M12852,1993L12855,1585L12965,1585L12970,1790C12974,1962 12978,2000 12993,2028C13019,2076 13065,2100 13129,2100C13176,2100 13186,2096 13215,2067C13258,2024 13270,1952 13270,1742L13270,1580L13382,1580L13378,1808C13374,2029 13373,2036 13348,2085C13334,2113 13311,2145 13298,2157C13221,2229 13061,2231 12991,2161L12970,2140L12970,2400L12850,2400L12852,1993Z" style="fill:rgb(0,140,224);fill-rule:nonzero;"/>
        <path d="M8325,2195C8160,2128 8081,1919 8159,1755C8219,1628 8332,1563 8474,1573C8546,1578 8569,1586 8628,1628L8660,1651L8660,1580L8770,1580L8770,2200L8716,2200C8662,2200 8661,2199 8658,2170L8655,2140L8617,2165C8529,2226 8426,2236 8325,2195ZM8513,2099C8636,2065 8700,1912 8640,1795C8602,1721 8537,1680 8458,1680C8329,1680 8250,1762 8250,1898C8250,1956 8254,1973 8279,2012C8330,2092 8420,2125 8513,2099Z" style="fill:rgb(0,140,224);fill-rule:nonzero;"/>
        <path d="M9155,2213C9102,2201 9067,2186 9040,2163L9010,2138L9010,2169C9010,2200 9010,2200 8955,2200L8900,2200L8902,1893L8905,1585L9015,1585L9020,1790C9024,1906 9031,2006 9037,2021C9043,2035 9063,2059 9080,2073C9107,2096 9121,2100 9174,2100C9223,2100 9243,2095 9264,2079C9314,2040 9320,2006 9320,1784L9320,1580L9430,1580L9430,1808C9430,2034 9430,2037 9404,2088C9373,2151 9317,2193 9242,2209C9213,2215 9186,2219 9182,2219C9178,2218 9166,2216 9155,2213Z" style="fill:rgb(0,140,224);fill-rule:nonzero;"/>
        <path d="M9770,2213C9660,2172 9581,2094 9550,1993C9539,1957 9530,1914 9530,1896C9530,1857 9552,1775 9572,1735C9594,1694 9656,1633 9710,1602C9750,1578 9765,1575 9850,1575C9948,1575 10005,1593 10039,1634C10060,1659 10070,1653 10070,1615L10070,1580L10180,1580L10180,2200L10125,2200C10071,2200 10070,2200 10070,2170C10070,2154 10068,2140 10066,2140C10063,2140 10042,2153 10018,2169C9994,2184 9960,2202 9941,2209C9907,2220 9797,2223 9770,2213ZM9971,2076C10031,2036 10063,1979 10068,1905C10072,1850 10068,1835 10044,1789C10004,1716 9946,1680 9869,1680C9796,1680 9750,1700 9708,1750C9629,1842 9632,1962 9717,2047C9740,2070 9773,2094 9792,2099C9845,2116 9927,2105 9971,2076Z" style="fill:rgb(0,140,224);fill-rule:nonzero;"/>
        <path d="M11779,2197C11689,2137 11665,2025 11723,1939C11740,1914 11767,1896 11827,1870C11929,1826 11950,1808 11950,1761C11950,1692 11893,1654 11829,1680C11799,1693 11770,1735 11770,1765C11770,1776 11758,1780 11720,1780C11670,1780 11670,1780 11670,1748C11671,1699 11703,1636 11746,1604C11780,1578 11791,1575 11864,1575C11938,1575 11948,1578 11982,1603C12048,1654 12075,1743 12050,1829C12036,1880 12004,1909 11920,1947C11830,1988 11800,2014 11800,2050C11800,2081 11837,2120 11867,2120C11892,2120 11940,2084 11940,2064C11940,2054 11954,2050 11995,2050C12045,2050 12050,2052 12050,2073C12050,2107 12009,2172 11971,2197C11923,2229 11827,2229 11779,2197Z" style="fill:rgb(0,140,224);fill-rule:nonzero;"/>
        <path d="M12315,2192C12246,2159 12178,2090 12147,2022C12114,1950 12117,1823 12153,1753C12193,1676 12237,1630 12305,1598C12386,1560 12499,1558 12575,1594C12632,1621 12688,1676 12719,1735C12751,1795 12748,1800 12680,1800C12647,1800 12620,1796 12620,1790C12620,1771 12556,1709 12522,1695C12470,1673 12392,1676 12345,1703C12283,1738 12249,1795 12243,1873C12238,1931 12241,1946 12265,1995C12328,2125 12484,2149 12585,2044C12626,2002 12631,2000 12684,2000C12715,2000 12740,2002 12740,2005C12740,2027 12705,2086 12669,2125C12610,2189 12554,2213 12455,2218C12383,2221 12369,2218 12315,2192Z" style="fill:rgb(0,140,224);fill-rule:nonzero;"/>
        <path d="M13682,2203C13621,2182 13536,2100 13504,2032C13465,1951 13465,1839 13503,1760C13542,1679 13583,1635 13652,1601C13705,1574 13724,1570 13794,1570C13891,1570 13944,1591 14008,1653C14045,1688 14090,1756 14090,1775C14090,1778 14064,1780 14032,1780C13978,1780 13971,1777 13939,1744C13873,1675 13773,1659 13695,1704C13653,1729 13608,1786 13598,1828L13592,1850L13850,1850C14023,1850 14111,1854 14115,1861C14126,1878 14099,2001 14074,2050C14022,2153 13910,2221 13792,2219C13755,2219 13706,2212 13682,2203ZM13886,2088C13928,2067 13970,2018 13984,1972L13991,1950L13796,1950C13654,1950 13600,1953 13600,1962C13600,1984 13649,2057 13676,2075C13738,2115 13822,2121 13886,2088Z" style="fill:rgb(0,140,224);fill-rule:nonzero;"/>
        <path d="M10517,2133C10531,2095 10557,2025 10575,1975C10593,1926 10628,1831 10653,1765C10678,1699 10701,1634 10705,1620C10710,1597 10693,1541 10635,1398C10629,1382 10635,1380 10688,1380C10727,1380 10750,1384 10753,1393C10770,1436 11063,2155 11077,2188C11081,2197 11066,2200 11021,2200L10960,2200L10944,2163C10936,2142 10897,2044 10859,1945C10820,1846 10786,1761 10783,1756C10780,1752 10770,1768 10761,1793C10752,1817 10716,1919 10680,2019L10615,2200L10491,2200L10517,2133Z" style="fill:rgb(0,140,224);fill-rule:nonzero;"/>
        <path d="M11462,1893L11465,1585L11518,1582L11570,1579L11570,2200L11460,2200L11462,1893Z" style="fill:rgb(0,140,224);fill-rule:nonzero;"/>
        <path d="M8900,1020L8900,200L9019,200L9022,413C9025,619 9026,626 9049,657C9101,726 9195,741 9253,690C9302,648 9310,602 9310,386L9310,200L9420,200L9420,416C9420,668 9415,695 9350,761C9297,816 9243,835 9163,827C9113,822 9030,785 9030,768C9030,764 9027,760 9023,760C9018,760 9016,818 9018,890L9021,1020L8900,1020Z" style="fill:rgb(0,140,224);fill-rule:nonzero;"/>
        <path d="M9550,1020L9550,890L9670,890L9670,1020L9550,1020Z" style="fill:rgb(0,140,224);fill-rule:nonzero;"/>
        <path d="M9800,1020L9800,200L9910,200L9910,1020L9800,1020Z" style="fill:rgb(0,140,224);fill-rule:nonzero;"/>
        <path d="M12630,1020L12630,200L12749,200L12752,409C12755,603 12757,621 12776,647C12809,691 12858,720 12901,720C13018,720 13050,642 13050,358L13050,200L13162,200L13159,423L13155,646L13125,705C13102,749 13083,772 13049,793C12967,843 12847,840 12780,784L12750,758L12750,1020L12630,1020Z" style="fill:rgb(0,140,224);fill-rule:nonzero;"/>
        <path d="M13290,1020L13290,890L13400,890L13400,1020L13290,1020Z" style="fill:rgb(0,140,224);fill-rule:nonzero;"/>
        <path d="M10258,831C10197,818 10111,760 10070,702C9974,569 9996,367 10118,259C10270,126 10506,169 10602,347C10636,410 10654,496 10646,552C10630,660 10549,769 10456,810C10408,832 10310,842 10258,831ZM10421,704C10460,684 10508,626 10519,583C10544,494 10525,413 10466,354C10321,208 10090,344 10129,553C10154,690 10301,766 10421,704Z" style="fill:rgb(0,140,224);fill-rule:nonzero;"/>
        <path d="M10847,825C10771,799 10730,737 10730,651C10730,578 10763,529 10832,499C10939,451 10965,434 10978,407C11006,349 10965,287 10899,287C10863,287 10822,323 10812,364C10804,393 10800,395 10752,398C10691,402 10688,394 10720,307C10743,246 10769,218 10822,195C10972,133 11133,271 11091,428C11074,492 11039,526 10943,570C10858,610 10825,643 10836,676C10849,712 10873,730 10906,730C10941,730 10965,713 10975,680C10980,663 10990,660 11034,660L11087,660L11080,698C11067,768 11030,811 10965,829C10914,843 10894,842 10847,825Z" style="fill:rgb(0,140,224);fill-rule:nonzero;"/>
        <path d="M11410,831C11333,815 11255,759 11210,690C11099,516 11176,272 11364,201C11551,131 11742,243 11790,448C11821,583 11743,744 11617,804C11561,831 11466,843 11410,831ZM11575,701C11621,675 11668,607 11676,555C11686,485 11673,425 11637,378C11589,316 11548,295 11472,296C11420,296 11403,301 11367,326C11244,413 11244,615 11366,691C11434,732 11513,736 11575,701Z" style="fill:rgb(0,140,224);fill-rule:nonzero;"/>
        <path d="M13757,829C13689,818 13649,797 13597,745C13531,679 13506,621 13502,524C13498,452 13501,437 13528,377C13589,244 13699,174 13836,182C13918,188 13982,215 14033,269C14079,316 14121,380 14114,391C14111,396 14084,400 14054,400C14004,400 13997,397 13968,365C13931,322 13908,309 13855,299C13769,283 13678,326 13640,400C13602,474 13590,470 13880,470C14081,470 14140,473 14140,483C14140,489 14135,526 14130,565C14103,747 13945,859 13757,829ZM13873,719C13920,706 13979,656 13997,612C14005,593 14009,576 14007,574C14005,571 13917,571 13811,572L13619,575L13643,620C13688,706 13779,745 13873,719Z" style="fill:rgb(0,140,224);fill-rule:nonzero;"/>
        <path d="M8360,804C8330,790 8297,771 8288,763C8271,748 8270,749 8270,784L8270,821L8213,818L8155,815L8152,408L8150,0L8270,0L8270,271L8308,241C8460,118 8707,193 8778,383C8805,454 8807,556 8783,626C8759,697 8663,790 8591,813C8511,838 8426,835 8360,804ZM8575,697C8596,685 8628,655 8645,632C8673,592 8675,582 8675,506C8675,432 8672,419 8647,383C8576,280 8432,263 8340,346C8288,393 8270,435 8270,511C8270,590 8302,649 8368,691C8428,729 8514,732 8575,697Z" style="fill:rgb(0,140,224);fill-rule:nonzero;"/>
        <path d="M12117,816C12096,808 12061,790 12040,776L12000,750L12000,820L11890,820L11890,0L12000,0L12000,130C12000,202 12002,260 12005,260C12007,260 12025,249 12045,236C12200,130 12399,180 12498,349C12521,388 12525,409 12528,491C12532,578 12530,594 12507,643C12476,711 12413,775 12351,803C12292,829 12170,836 12117,816ZM12299,700C12371,664 12420,582 12420,498C12420,479 12408,439 12393,409C12314,254 12105,254 12023,409C11996,460 11992,539 12014,591C12029,625 12088,688 12125,708C12159,727 12256,722 12299,700Z" style="fill:rgb(0,140,224);fill-rule:nonzero;"/>
        <path d="M9557,814C9553,810 9550,670 9550,503L9550,200L9670,200L9668,508L9665,815L9615,818C9587,820 9561,818 9557,814Z" style="fill:rgb(0,140,224);fill-rule:nonzero;"/>
        <path d="M13290,820L13290,200L13400,200L13400,820L13290,820Z" style="fill:rgb(0,140,224);fill-rule:nonzero;"/>
    </g>
</svg>
