<?xml version="1.0" encoding="UTF-8" standalone="no"?>
<!DOCTYPE svg PUBLIC "-//W3C//DTD SVG 1.1//EN" "http://www.w3.org/Graphics/SVG/1.1/DTD/svg11.dtd">
<svg width="100%" height="100%" viewBox="0 0 1034 311" version="1.1" xmlns="http://www.w3.org/2000/svg" xmlns:xlink="http://www.w3.org/1999/xlink" xml:space="preserve" xmlns:serif="http://www.serif.com/" style="fill-rule:evenodd;clip-rule:evenodd;stroke-linejoin:round;stroke-miterlimit:2;">
    <g transform="matrix(4.16667,0,0,4.16667,-64.8917,-361.613)">
        <path d="M215.679,113.713C213.82,113.713 212.312,115.219 212.312,117.078C212.312,118.94 213.82,120.446 215.679,120.446C217.539,120.446 219.046,118.94 219.046,117.078C219.046,115.219 217.539,113.713 215.679,113.713ZM171.902,120.455L205.58,120.455L205.58,113.721L171.902,113.721L171.902,120.455ZM171.902,106.989L192.113,106.989L192.113,100.255L171.902,100.255L171.902,106.989ZM171.902,86.787L219.046,86.787L219.046,93.521L171.902,93.521L171.902,86.787Z" style="fill:rgb(190,32,46);fill-rule:nonzero;"/>
    </g>
    <g transform="matrix(4.16667,0,0,4.16667,-64.8917,-260.571)">
        <path d="M24.994,83.322C24.244,82.661 23.284,82.272 22.024,82.272C20.704,82.272 19.714,82.751 18.964,83.471C17.614,84.791 17.044,86.621 17.044,88.691C17.044,90.91 17.555,92.651 18.935,93.941C19.685,94.66 20.704,95.111 22.084,95.111C23.494,95.111 24.514,94.601 25.294,93.791C26.464,92.531 26.974,90.611 26.974,88.691C26.974,86.561 26.374,84.551 24.994,83.322ZM26.164,95.021C25.174,95.981 23.824,96.58 22.084,96.58C19.954,96.58 17.884,95.381 17.074,93.671L17.074,102.191L15.574,102.191L15.574,81.192L16.894,81.192L17.074,83.831C17.884,81.971 20.044,80.801 22.054,80.801C23.764,80.801 25.054,81.341 26.044,82.211C27.724,83.681 28.504,86.081 28.504,88.661C28.504,91.121 27.754,93.521 26.164,95.021" style="fill-rule:nonzero;"/>
    </g>
    <g transform="matrix(4.16667,0,0,4.16667,-64.8917,-311.692)">
        <path d="M44.344,108.46L44.344,98.65C44.344,96.04 43.204,94.48 40.474,94.48C36.784,94.48 35.494,97.72 35.494,100.96L35.494,108.46L33.994,108.46L33.994,86.801L35.494,86.801L35.494,96.22C36.334,94.301 38.464,93.07 40.564,93.07C44.014,93.07 45.844,95.2 45.844,98.56L45.844,108.46L44.344,108.46" style="fill-rule:nonzero;"/>
    </g>
    <g transform="matrix(4.16667,0,0,4.16667,-64.8917,-310.071)">
        <path d="M53.135,93.072L54.725,93.072L54.725,108.071L53.135,108.071L53.135,93.072ZM52.864,86.801L54.965,86.801L54.965,88.902L52.864,88.902L52.864,86.801Z" style="fill-rule:nonzero;"/>
    </g>
    <g transform="matrix(4.16667,0,0,4.16667,-64.8917,-310.946)">
        <path d="M65.194,108.46C63.274,108.46 62.194,107.471 62.194,105.281L62.194,86.622L63.694,86.622L63.694,105.221C63.694,106.241 63.994,107.021 65.254,107.021C65.854,107.021 66.124,107.021 66.544,106.96L66.544,108.281C66.214,108.371 65.824,108.46 65.194,108.46" style="fill-rule:nonzero;"/>
    </g>
    <g transform="matrix(4.16667,0,0,4.16667,-64.8917,-309.942)">
        <path d="M86.764,108.04L86.313,105.7C85.684,106.929 83.644,108.4 80.974,108.429C78.514,108.46 76.324,107.83 74.644,106.06C72.424,103.75 71.884,100.9 71.884,97.421C71.884,93.94 72.334,91.18 74.644,88.871C76.264,87.251 78.693,86.381 80.974,86.381C83.583,86.381 85.833,87.34 87.273,88.81C88.323,89.89 89.104,91.24 89.224,93.1L85.264,93.1C85.203,92.26 84.783,91.69 84.333,91.15C83.583,90.281 82.413,89.86 80.943,89.86C79.714,89.86 78.304,90.4 77.464,91.3C75.994,92.831 75.813,95.47 75.813,97.421C75.813,99.37 76.023,102.1 77.494,103.63C78.334,104.53 79.714,104.98 80.943,104.98C82.323,104.98 83.403,104.5 84.123,103.75C85.264,102.549 85.503,101.23 85.503,99.61L80.434,99.61L80.434,96.4L89.253,96.4L89.253,108.04L86.764,108.04" style="fill-rule:nonzero;"/>
    </g>
    <g transform="matrix(4.16667,0,0,4.16667,-64.8917,-310.071)">
        <path d="M105.147,90.192L100.047,90.192L100.047,96.551L105.207,96.551C107.396,96.551 108.657,95.412 108.657,93.402C108.657,91.692 107.337,90.192 105.147,90.192ZM108.327,108.071L104.787,100.031L100.077,100.031L100.077,108.071L96.178,108.071L96.178,86.801L105.147,86.801C110.217,86.801 112.526,89.982 112.526,93.402C112.526,96.251 110.967,98.501 108.627,99.371L112.526,108.071L108.327,108.071" style="fill-rule:nonzero;"/>
    </g>
    <g transform="matrix(4.16667,0,0,4.16667,-64.8917,-310.071)">
        <path d="M126.615,91.541L123.585,100.511L129.645,100.511L126.615,91.541ZM132.225,108.071L130.845,103.991L122.386,103.991L121.005,108.071L117.105,108.071L124.575,86.801L128.805,86.801L136.274,108.071L132.225,108.071" style="fill-rule:nonzero;"/>
    </g>
    <g transform="matrix(4.16667,0,0,4.16667,-64.8917,-310.071)">
        <path d="M152.889,91.482C152.169,90.761 151.118,90.282 149.889,90.282L145.479,90.282L145.479,104.591L149.889,104.591C151.118,104.591 152.169,104.111 152.889,103.391C154.389,101.891 154.419,99.371 154.419,97.421C154.419,95.471 154.389,92.981 152.889,91.482ZM155.858,105.79C154.448,107.261 152.318,108.071 149.889,108.071L141.609,108.071L141.609,86.801L149.889,86.801C152.318,86.801 154.448,87.612 155.858,89.081C158.048,91.331 158.349,94.481 158.349,97.421C158.349,100.361 158.048,103.54 155.858,105.79" style="fill-rule:nonzero;"/>
    </g>
    <g transform="matrix(4.16667,0,0,4.16667,-64.8917,-75.5917)">
        <path d="M75.009,66.211L75.009,68.681L79.196,68.681L79.196,70.202L75.009,70.202L75.009,73.907L73.332,73.907L73.332,64.69L79.703,64.69L79.703,66.211L75.009,66.211" style="fill-rule:nonzero;"/>
    </g>
    <g transform="matrix(4.16667,0,0,4.16667,-64.8917,-65.3542)">
        <path d="M84.621,68.447L82.904,68.577C82.41,68.616 81.929,68.915 81.929,69.461C81.929,69.981 82.384,70.306 82.891,70.306C83.905,70.306 84.621,69.76 84.621,68.759L84.621,68.447ZM85.985,71.555C85.283,71.555 84.894,71.112 84.841,70.605C84.529,71.151 83.749,71.619 82.787,71.619C81.175,71.619 80.343,70.605 80.343,69.5C80.343,68.213 81.344,67.472 82.631,67.381L84.621,67.238L84.621,66.822C84.621,66.185 84.399,65.756 83.476,65.756C82.722,65.756 82.28,66.094 82.241,66.718L80.669,66.718C80.759,65.197 81.968,64.521 83.476,64.521C84.633,64.521 85.622,64.885 86.011,65.899C86.18,66.328 86.206,66.809 86.206,67.264L86.206,69.773C86.206,70.085 86.311,70.202 86.584,70.202C86.687,70.202 86.791,70.176 86.791,70.176L86.791,71.372C86.519,71.489 86.376,71.555 85.985,71.555" style="fill-rule:nonzero;"/>
    </g>
    <g transform="matrix(4.16667,0,0,4.16667,-64.8917,-65.4625)">
        <path d="M93.252,70.553C92.784,71.138 91.964,71.619 90.937,71.619C89.911,71.619 89.052,71.125 88.585,70.553C88.078,69.916 87.843,69.071 87.843,68.083C87.843,67.095 88.078,66.25 88.585,65.613C89.052,65.041 89.911,64.547 90.937,64.547C91.964,64.547 92.784,65.028 93.252,65.613C93.563,66.016 93.746,66.549 93.771,67.082L92.172,67.082C92.16,66.835 92.081,66.627 91.977,66.458C91.783,66.159 91.432,65.951 90.937,65.951C90.496,65.951 90.17,66.133 89.95,66.367C89.56,66.796 89.495,67.446 89.495,68.083C89.495,68.72 89.56,69.357 89.95,69.786C90.17,70.02 90.496,70.215 90.937,70.215C91.432,70.215 91.783,70.007 91.977,69.708C92.081,69.539 92.16,69.331 92.172,69.084L93.771,69.084C93.746,69.617 93.563,70.15 93.252,70.553" style="fill-rule:nonzero;"/>
    </g>
    <g transform="matrix(4.16667,0,0,4.16667,-64.8917,-64.65)">
        <path d="M99.676,71.281L99.559,70.397C99.234,71.06 98.48,71.45 97.622,71.45C96.179,71.45 95.282,70.475 95.282,69.032L95.282,64.521L96.907,64.521L96.907,68.668C96.907,69.461 97.219,69.955 98.077,69.955C98.454,69.955 98.714,69.812 98.909,69.617C99.299,69.253 99.403,68.642 99.403,68.096L99.403,64.521L101.028,64.521L101.028,71.281L99.676,71.281" style="fill-rule:nonzero;"/>
    </g>
    <g transform="matrix(4.16667,0,0,4.16667,-64.8917,-76.025)">
        <path d="M104.914,74.089C103.808,74.089 103.067,73.556 103.067,72.269L103.067,64.612L104.706,64.612L104.706,71.996C104.706,72.386 104.796,72.646 105.355,72.646C105.499,72.646 105.538,72.633 105.628,72.633L105.628,73.998C105.303,74.063 105.238,74.089 104.914,74.089" style="fill-rule:nonzero;"/>
    </g>
    <g transform="matrix(4.16667,0,0,4.16667,-64.8917,-73.8042)">
        <path d="M109.445,73.569C108.08,73.569 107.404,72.789 107.404,71.489L107.404,68.057L106.169,68.057L106.169,66.718L107.404,66.718L107.404,65.001L109.029,64.599L109.029,66.718L110.732,66.718L110.732,68.057L109.029,68.057L109.029,71.346C109.029,71.866 109.263,72.087 109.783,72.087C110.121,72.087 110.394,72.074 110.836,72.022L110.836,73.387C110.381,73.504 109.926,73.569 109.445,73.569" style="fill-rule:nonzero;"/>
    </g>
    <g transform="matrix(4.16667,0,0,4.16667,-64.8917,-53.4917)">
        <path d="M115.609,69.76C115.271,70.644 114.712,71.45 113.529,71.45C112.997,71.45 112.632,71.373 112.281,71.281L112.281,69.929C112.71,70.007 112.827,70.046 113.191,70.046C113.49,70.046 113.802,69.942 113.971,69.54L114.361,68.59L111.696,61.843L113.478,61.843L115.246,66.731L116.936,61.843L118.586,61.843L115.609,69.76" style="fill-rule:nonzero;"/>
    </g>
    <g transform="matrix(4.16667,0,0,4.16667,-64.8917,-65.3542)">
        <path d="M126.425,66.367C126.204,66.133 125.84,65.938 125.398,65.938C124.956,65.938 124.592,66.133 124.371,66.367C123.981,66.796 123.89,67.433 123.89,68.07C123.89,68.707 123.981,69.344 124.371,69.773C124.592,70.007 124.956,70.202 125.398,70.202C125.84,70.202 126.204,70.007 126.425,69.773C126.815,69.344 126.906,68.707 126.906,68.07C126.906,67.433 126.815,66.796 126.425,66.367ZM127.764,70.566C127.296,71.139 126.425,71.619 125.398,71.619C124.371,71.619 123.5,71.139 123.032,70.566C122.525,69.929 122.239,69.214 122.239,68.07C122.239,66.926 122.525,66.211 123.032,65.574C123.5,65.002 124.371,64.521 125.398,64.521C126.425,64.521 127.296,65.002 127.764,65.574C128.271,66.211 128.557,66.926 128.557,68.07C128.557,69.214 128.271,69.929 127.764,70.566" style="fill-rule:nonzero;"/>
    </g>
    <g transform="matrix(4.16667,0,0,4.16667,-64.8917,-76.9458)">
        <path d="M133.159,66.029C132.574,66.029 132.275,66.367 132.275,66.848L132.275,67.472L134.082,67.472L134.082,68.811L132.275,68.811L132.275,74.232L130.65,74.232L130.65,68.811L129.506,68.811L129.506,67.472L130.65,67.472L130.65,66.822C130.65,65.574 131.495,64.69 132.951,64.69C133.419,64.69 133.718,64.729 134.225,64.833L134.225,66.133C133.887,66.068 133.588,66.029 133.159,66.029" style="fill-rule:nonzero;"/>
    </g>
    <g transform="matrix(4.16667,0,0,4.16667,-64.8917,-75.5917)">
        <path d="M141.453,66.744L140.14,70.631L142.766,70.631L141.453,66.744ZM143.884,73.907L143.286,72.139L139.62,72.139L139.021,73.907L137.332,73.907L140.569,64.69L142.402,64.69L145.639,73.907L143.884,73.907" style="fill-rule:nonzero;"/>
    </g>
    <g transform="matrix(4.16667,0,0,4.16667,-64.8917,-65.7333)">
        <path d="M150.265,66.224C149.121,66.224 148.523,67.043 148.523,68.135L148.523,71.541L146.885,71.541L146.885,64.781L148.263,64.781L148.406,65.795C148.718,65.015 149.524,64.69 150.317,64.69C150.486,64.69 150.655,64.703 150.824,64.729L150.824,66.289C150.642,66.25 150.447,66.224 150.265,66.224" style="fill-rule:nonzero;"/>
    </g>
    <g transform="matrix(4.16667,0,0,4.16667,-64.8917,-73.8042)">
        <path d="M155.006,73.569C153.641,73.569 152.965,72.789 152.965,71.489L152.965,68.057L151.73,68.057L151.73,66.718L152.965,66.718L152.965,65.001L154.59,64.599L154.59,66.718L156.292,66.718L156.292,68.057L154.59,68.057L154.59,71.346C154.59,71.866 154.824,72.087 155.344,72.087C155.682,72.087 155.955,72.074 156.396,72.022L156.396,73.387C155.942,73.504 155.487,73.569 155.006,73.569" style="fill-rule:nonzero;"/>
    </g>
    <g transform="matrix(4.16667,0,0,4.16667,-64.8917,-65.3542)">
        <path d="M162.724,70.839C162.177,71.385 161.333,71.619 160.41,71.619C159.552,71.619 158.785,71.372 158.226,70.839C157.835,70.462 157.511,69.903 157.511,69.266L159.033,69.266C159.033,69.565 159.187,69.89 159.396,70.059C159.656,70.267 159.955,70.358 160.423,70.358C160.968,70.358 161.8,70.241 161.8,69.5C161.8,69.11 161.541,68.85 161.125,68.785C160.527,68.694 159.851,68.655 159.253,68.525C158.33,68.33 157.707,67.576 157.707,66.718C157.707,66.029 157.992,65.548 158.394,65.197C158.888,64.768 159.603,64.521 160.449,64.521C161.255,64.521 162.074,64.781 162.568,65.314C162.931,65.704 163.166,66.211 163.166,66.705L161.619,66.705C161.619,66.445 161.501,66.237 161.345,66.068C161.15,65.873 160.8,65.756 160.462,65.756C160.228,65.756 160.007,65.756 159.759,65.86C159.474,65.977 159.24,66.224 159.24,66.575C159.24,67.056 159.656,67.199 160.019,67.251C160.63,67.329 160.8,67.342 161.462,67.446C162.529,67.615 163.308,68.291 163.308,69.357C163.308,70.007 163.076,70.488 162.724,70.839" style="fill-rule:nonzero;"/>
    </g>
    <g transform="matrix(4.16667,0,0,4.16667,-64.8917,-65.3542)">
        <path d="M171.654,68.447L169.939,68.577C169.445,68.616 168.962,68.915 168.962,69.461C168.962,69.981 169.417,70.306 169.925,70.306C170.939,70.306 171.654,69.76 171.654,68.759L171.654,68.447ZM173.019,71.555C172.318,71.555 171.927,71.112 171.875,70.605C171.564,71.151 170.783,71.619 169.822,71.619C168.208,71.619 167.376,70.605 167.376,69.5C167.376,68.213 168.378,67.472 169.666,67.381L171.654,67.238L171.654,66.822C171.654,66.185 171.433,65.756 170.509,65.756C169.755,65.756 169.314,66.094 169.275,66.718L167.703,66.718C167.792,65.197 169.001,64.521 170.509,64.521C171.667,64.521 172.656,64.885 173.044,65.899C173.214,66.328 173.24,66.809 173.24,67.264L173.24,69.773C173.24,70.085 173.345,70.202 173.617,70.202C173.722,70.202 173.826,70.176 173.826,70.176L173.826,71.372C173.552,71.489 173.41,71.555 173.019,71.555" style="fill-rule:nonzero;"/>
    </g>
    <g transform="matrix(4.16667,0,0,4.16667,-64.8917,-66.0583)">
        <path d="M179.509,71.619L179.509,67.472C179.509,66.679 179.25,66.198 178.392,66.198C177.82,66.198 177.443,66.562 177.22,67.056C176.988,67.589 177,68.291 177,68.863L177,71.619L175.375,71.619L175.375,64.859L176.74,64.859L176.857,65.73C177.259,65.015 178.066,64.69 178.847,64.69C180.289,64.69 181.134,65.704 181.134,67.108L181.134,71.619L179.509,71.619" style="fill-rule:nonzero;"/>
    </g>
    <g transform="matrix(4.16667,0,0,4.16667,-64.8917,-75.6458)">
        <path d="M185.919,68.356C185.412,68.356 185.06,68.59 184.828,68.889C184.49,69.331 184.398,69.942 184.398,70.527C184.398,71.112 184.49,71.736 184.828,72.178C185.06,72.477 185.412,72.711 185.919,72.711C187.193,72.711 187.453,71.502 187.453,70.527C187.453,69.552 187.193,68.356 185.919,68.356ZM187.595,73.92L187.492,73.179C187.089,73.803 186.335,74.076 185.593,74.076C184.917,74.076 184.359,73.842 183.943,73.504C183.136,72.841 182.748,71.827 182.748,70.553C182.748,69.227 183.15,68.2 183.957,67.537C184.373,67.199 184.917,66.991 185.607,66.991C186.464,66.991 187.089,67.277 187.375,67.628L187.375,64.534L189,64.534L189,73.92L187.595,73.92" style="fill-rule:nonzero;"/>
    </g>
    <g transform="matrix(4.16667,0,0,4.16667,-64.8917,-75.5917)">
        <path d="M199.66,73.907L199.66,69.89L195.876,69.89L195.876,73.907L194.201,73.907L194.201,64.69L195.876,64.69L195.876,68.291L199.66,68.291L199.66,64.69L201.337,64.69L201.337,73.907L199.66,73.907" style="fill-rule:nonzero;"/>
    </g>
    <g transform="matrix(4.16667,0,0,4.16667,-64.8917,-64.65)">
        <path d="M207.767,71.281L207.65,70.397C207.326,71.06 206.572,71.45 205.714,71.45C204.271,71.45 203.375,70.475 203.375,69.032L203.375,64.521L205,64.521L205,68.668C205,69.461 205.31,69.955 206.169,69.955C206.546,69.955 206.806,69.812 207.001,69.617C207.39,69.253 207.496,68.642 207.496,68.096L207.496,64.521L209.121,64.521L209.121,71.281L207.767,71.281" style="fill-rule:nonzero;"/>
    </g>
    <g transform="matrix(4.16667,0,0,4.16667,-64.8917,-66.0583)">
        <path d="M219.154,71.619L219.154,67.42C219.154,66.588 218.933,66.107 218.113,66.107C217.191,66.107 216.787,67.082 216.787,67.927L216.787,71.619L215.175,71.619L215.175,67.42C215.175,66.588 214.955,66.107 214.136,66.107C213.212,66.107 212.796,67.082 212.796,67.927L212.796,71.619L211.185,71.619L211.185,64.859L212.537,64.859L212.666,65.756C213.042,65.132 213.693,64.69 214.589,64.69C215.539,64.69 216.189,65.106 216.527,65.795C216.931,65.093 217.658,64.69 218.568,64.69C220.011,64.69 220.765,65.652 220.765,67.056L220.765,71.619L219.154,71.619" style="fill-rule:nonzero;"/>
    </g>
    <g transform="matrix(4.16667,0,0,4.16667,-64.8917,-65.3542)">
        <path d="M226.601,68.447L224.886,68.577C224.392,68.616 223.912,68.915 223.912,69.461C223.912,69.981 224.367,70.306 224.873,70.306C225.886,70.306 226.601,69.76 226.601,68.759L226.601,68.447ZM227.966,71.555C227.265,71.555 226.875,71.112 226.824,70.605C226.511,71.151 225.732,71.619 224.769,71.619C223.158,71.619 222.326,70.605 222.326,69.5C222.326,68.213 223.326,67.472 224.613,67.381L226.601,67.238L226.601,66.822C226.601,66.185 226.38,65.756 225.458,65.756C224.705,65.756 224.261,66.094 224.222,66.718L222.65,66.718C222.742,65.197 223.951,64.521 225.458,64.521C226.615,64.521 227.603,64.885 227.994,65.899C228.162,66.328 228.189,66.809 228.189,67.264L228.189,69.773C228.189,70.085 228.292,70.202 228.566,70.202C228.669,70.202 228.773,70.176 228.773,70.176L228.773,71.372C228.5,71.489 228.357,71.555 227.966,71.555" style="fill-rule:nonzero;"/>
    </g>
    <g transform="matrix(4.16667,0,0,4.16667,-64.8917,-66.0583)">
        <path d="M234.457,71.619L234.457,67.472C234.457,66.679 234.197,66.198 233.339,66.198C232.767,66.198 232.39,66.562 232.169,67.056C231.935,67.589 231.949,68.291 231.949,68.863L231.949,71.619L230.324,71.619L230.324,64.859L231.687,64.859L231.804,65.73C232.208,65.015 233.013,64.69 233.794,64.69C235.238,64.69 236.082,65.704 236.082,67.108L236.082,71.619L234.457,71.619" style="fill-rule:nonzero;"/>
    </g>
    <g transform="matrix(4.16667,0,0,4.16667,-64.8917,-76.2417)">
        <path d="M238.091,67.303L239.742,67.303L239.742,74.063L238.091,74.063L238.091,67.303ZM238.039,64.69L239.781,64.69L239.781,66.367L238.039,66.367L238.039,64.69Z" style="fill-rule:nonzero;"/>
    </g>
    <g transform="matrix(4.16667,0,0,4.16667,-64.8917,-73.8042)">
        <path d="M244.341,73.569C242.976,73.569 242.298,72.789 242.298,71.489L242.298,68.057L241.064,68.057L241.064,66.718L242.298,66.718L242.298,65.001L243.925,64.599L243.925,66.718L245.626,66.718L245.626,68.057L243.925,68.057L243.925,71.346C243.925,71.866 244.158,72.087 244.679,72.087C245.017,72.087 245.289,72.074 245.732,72.022L245.732,73.387C245.277,73.504 244.822,73.569 244.341,73.569" style="fill-rule:nonzero;"/>
    </g>
    <g transform="matrix(4.16667,0,0,4.16667,-64.8917,-76.2417)">
        <path d="M247.244,67.303L248.894,67.303L248.894,74.063L247.244,74.063L247.244,67.303ZM247.191,64.69L248.933,64.69L248.933,66.367L247.191,66.367L247.191,64.69Z" style="fill-rule:nonzero;"/>
    </g>
    <g transform="matrix(4.16667,0,0,4.16667,-64.8917,-65.3542)">
        <path d="M254.699,66.211C254.478,65.977 254.14,65.821 253.671,65.821C253.177,65.821 252.775,66.029 252.541,66.341C252.308,66.64 252.203,66.952 252.191,67.394L255.115,67.394C255.103,66.887 254.958,66.497 254.699,66.211ZM256.728,68.577L252.203,68.577C252.191,69.097 252.373,69.591 252.697,69.903C252.931,70.124 253.255,70.319 253.699,70.319C254.166,70.319 254.453,70.228 254.687,69.994C254.83,69.851 254.947,69.669 255.011,69.422L256.572,69.422C256.533,69.825 256.259,70.358 256,70.67C255.427,71.346 254.582,71.619 253.724,71.619C252.8,71.619 252.125,71.294 251.591,70.787C250.916,70.137 250.552,69.188 250.552,68.083C250.552,67.004 250.876,66.042 251.527,65.379C252.035,64.859 252.761,64.521 253.685,64.521C254.687,64.521 255.597,64.924 256.156,65.769C256.65,66.51 256.767,67.277 256.74,68.122C256.74,68.122 256.728,68.434 256.728,68.577" style="fill-rule:nonzero;"/>
    </g>
    <g transform="matrix(4.16667,0,0,4.16667,-64.8917,-65.3542)">
        <path d="M263.099,70.839C262.552,71.385 261.707,71.619 260.785,71.619C259.927,71.619 259.16,71.372 258.601,70.839C258.21,70.462 257.884,69.903 257.884,69.266L259.406,69.266C259.406,69.565 259.562,69.89 259.771,70.059C260.031,70.267 260.33,70.358 260.796,70.358C261.343,70.358 262.175,70.241 262.175,69.5C262.175,69.11 261.916,68.85 261.5,68.785C260.902,68.694 260.226,68.655 259.626,68.525C258.705,68.33 258.08,67.576 258.08,66.718C258.08,66.029 258.367,65.548 258.769,65.197C259.263,64.768 259.978,64.521 260.824,64.521C261.628,64.521 262.449,64.781 262.943,65.314C263.306,65.704 263.541,66.211 263.541,66.705L261.994,66.705C261.994,66.445 261.876,66.237 261.72,66.068C261.525,65.873 261.175,65.756 260.835,65.756C260.603,65.756 260.38,65.756 260.134,65.86C259.849,65.977 259.615,66.224 259.615,66.575C259.615,67.056 260.031,67.199 260.394,67.251C261.005,67.329 261.175,67.342 261.837,67.446C262.904,67.615 263.683,68.291 263.683,69.357C263.683,70.007 263.449,70.488 263.099,70.839" style="fill-rule:nonzero;"/>
    </g>
    <g transform="matrix(4.16667,0,0,4.16667,-64.8917,57.7917)">
        <path d="M79.248,57.895L79.053,56.881C78.78,57.414 77.896,58.051 76.739,58.064C75.672,58.077 74.724,57.804 73.996,57.037C73.034,56.036 72.799,54.801 72.799,53.293C72.799,51.785 72.995,50.588 73.996,49.587C74.698,48.885 75.751,48.508 76.739,48.508C77.87,48.508 78.845,48.924 79.469,49.562C79.924,50.03 80.262,50.615 80.314,51.42L78.598,51.42C78.572,51.057 78.39,50.81 78.195,50.576C77.87,50.199 77.363,50.017 76.726,50.017C76.192,50.017 75.581,50.251 75.217,50.641C74.581,51.304 74.502,52.448 74.502,53.293C74.502,54.138 74.593,55.321 75.23,55.984C75.595,56.374 76.192,56.569 76.726,56.569C77.324,56.569 77.791,56.361 78.104,56.036C78.598,55.516 78.702,54.944 78.702,54.242L76.504,54.242L76.504,52.851L80.327,52.851L80.327,57.895L79.248,57.895" style="fill-rule:nonzero;"/>
    </g>
    <g transform="matrix(4.16667,0,0,4.16667,-64.8917,67.5958)">
        <path d="M85.671,50.225C84.527,50.225 83.929,51.044 83.929,52.136L83.929,55.542L82.291,55.542L82.291,48.781L83.669,48.781L83.812,49.796C84.124,49.016 84.93,48.69 85.723,48.69C85.892,48.69 86.061,48.704 86.23,48.73L86.23,50.29C86.048,50.251 85.853,50.225 85.671,50.225" style="fill-rule:nonzero;"/>
    </g>
    <g transform="matrix(4.16667,0,0,4.16667,-64.8917,67.975)">
        <path d="M91.373,52.448L89.658,52.578C89.164,52.617 88.683,52.916 88.683,53.462C88.683,53.982 89.138,54.307 89.645,54.307C90.659,54.307 91.373,53.761 91.373,52.76L91.373,52.448ZM92.739,55.556C92.037,55.556 91.647,55.113 91.595,54.606C91.283,55.152 90.503,55.62 89.54,55.62C87.929,55.62 87.097,54.606 87.097,53.501C87.097,52.214 88.098,51.473 89.385,51.382L91.373,51.239L91.373,50.823C91.373,50.185 91.153,49.757 90.23,49.757C89.476,49.757 89.034,50.095 88.995,50.719L87.421,50.719C87.513,49.198 88.722,48.521 90.23,48.521C91.387,48.521 92.375,48.886 92.765,49.9C92.934,50.329 92.96,50.809 92.96,51.265L92.96,53.774C92.96,54.086 93.064,54.203 93.337,54.203C93.441,54.203 93.545,54.177 93.545,54.177L93.545,55.373C93.272,55.49 93.129,55.556 92.739,55.556" style="fill-rule:nonzero;"/>
    </g>
    <g transform="matrix(4.16667,0,0,4.16667,-64.8917,57.6833)">
        <path d="M97.803,52.357C97.295,52.357 96.945,52.591 96.71,52.89C96.373,53.332 96.282,53.943 96.282,54.527C96.282,55.113 96.373,55.736 96.71,56.179C96.945,56.478 97.295,56.712 97.803,56.712C99.077,56.712 99.336,55.503 99.336,54.527C99.336,53.553 99.077,52.357 97.803,52.357ZM99.479,57.921L99.376,57.18C98.973,57.804 98.219,58.077 97.478,58.077C96.802,58.077 96.243,57.843 95.827,57.505C95.02,56.842 94.63,55.828 94.63,54.554C94.63,53.228 95.034,52.201 95.839,51.538C96.255,51.199 96.802,50.991 97.491,50.991C98.349,50.991 98.973,51.277 99.259,51.629L99.259,48.534L100.884,48.534L100.884,57.921L99.479,57.921" style="fill-rule:nonzero;"/>
    </g>
    <g transform="matrix(4.16667,0,0,4.16667,-64.8917,68.6792)">
        <path d="M107.279,55.282L107.162,54.398C106.837,55.061 106.083,55.451 105.225,55.451C103.782,55.451 102.885,54.476 102.885,53.033L102.885,48.521L104.51,48.521L104.51,52.669C104.51,53.462 104.822,53.956 105.68,53.956C106.057,53.956 106.317,53.813 106.512,53.618C106.902,53.254 107.006,52.643 107.006,52.096L107.006,48.521L108.631,48.521L108.631,55.282L107.279,55.282" style="fill-rule:nonzero;"/>
    </g>
    <g transform="matrix(4.16667,0,0,4.16667,-64.8917,67.975)">
        <path d="M114.528,52.448L112.812,52.578C112.318,52.617 111.837,52.916 111.837,53.462C111.837,53.982 112.292,54.307 112.799,54.307C113.813,54.307 114.528,53.761 114.528,52.76L114.528,52.448ZM115.893,55.556C115.191,55.556 114.801,55.113 114.749,54.606C114.437,55.152 113.657,55.62 112.695,55.62C111.083,55.62 110.251,54.606 110.251,53.501C110.251,52.214 111.252,51.473 112.539,51.382L114.528,51.239L114.528,50.823C114.528,50.185 114.307,49.757 113.384,49.757C112.63,49.757 112.188,50.095 112.149,50.719L110.576,50.719C110.667,49.198 111.876,48.521 113.384,48.521C114.541,48.521 115.529,48.886 115.919,49.9C116.088,50.329 116.114,50.809 116.114,51.265L116.114,53.774C116.114,54.086 116.218,54.203 116.491,54.203C116.595,54.203 116.699,54.177 116.699,54.177L116.699,55.373C116.426,55.49 116.283,55.556 115.893,55.556" style="fill-rule:nonzero;"/>
    </g>
    <g transform="matrix(4.16667,0,0,4.16667,-64.8917,59.5292)">
        <path d="M120.667,57.569C119.302,57.569 118.625,56.789 118.625,55.489L118.625,52.057L117.391,52.057L117.391,50.717L118.625,50.717L118.625,49.001L120.251,48.599L120.251,50.717L121.954,50.717L121.954,52.057L120.251,52.057L120.251,55.346C120.251,55.866 120.485,56.087 121.005,56.087C121.343,56.087 121.616,56.074 122.058,56.022L122.058,57.387C121.603,57.504 121.148,57.569 120.667,57.569" style="fill-rule:nonzero;"/>
    </g>
    <g transform="matrix(4.16667,0,0,4.16667,-64.8917,67.975)">
        <path d="M127.222,50.212C127,49.977 126.663,49.822 126.194,49.822C125.701,49.822 125.297,50.03 125.063,50.342C124.83,50.64 124.726,50.953 124.712,51.395L127.638,51.395C127.625,50.888 127.481,50.498 127.222,50.212ZM129.25,52.578L124.726,52.578C124.712,53.098 124.895,53.592 125.219,53.904C125.454,54.125 125.778,54.32 126.22,54.32C126.688,54.32 126.975,54.229 127.208,53.995C127.352,53.852 127.468,53.67 127.534,53.423L129.094,53.423C129.055,53.826 128.782,54.359 128.521,54.671C127.95,55.347 127.104,55.62 126.247,55.62C125.323,55.62 124.647,55.295 124.114,54.788C123.438,54.138 123.074,53.189 123.074,52.084C123.074,51.005 123.399,50.043 124.049,49.38C124.556,48.86 125.285,48.521 126.208,48.521C127.208,48.521 128.119,48.925 128.678,49.769C129.171,50.511 129.289,51.278 129.263,52.123C129.263,52.123 129.25,52.434 129.25,52.578" style="fill-rule:nonzero;"/>
    </g>
    <g transform="matrix(4.16667,0,0,4.16667,-64.8917,57.7375)">
        <path d="M136.997,50.745L135.684,54.632L138.31,54.632L136.997,50.745ZM139.428,57.908L138.83,56.139L135.164,56.139L134.565,57.908L132.875,57.908L136.113,48.69L137.946,48.69L141.183,57.908L139.428,57.908" style="fill-rule:nonzero;"/>
    </g>
    <g transform="matrix(4.16667,0,0,4.16667,-64.8917,67.8667)">
        <path d="M147.206,54.554C146.738,55.139 145.918,55.62 144.892,55.62C143.865,55.62 143.006,55.126 142.539,54.554C142.032,53.917 141.797,53.072 141.797,52.083C141.797,51.096 142.032,50.25 142.539,49.614C143.006,49.041 143.865,48.547 144.892,48.547C145.918,48.547 146.738,49.029 147.206,49.614C147.518,50.017 147.7,50.55 147.726,51.083L146.126,51.083C146.114,50.835 146.036,50.627 145.932,50.458C145.737,50.16 145.386,49.952 144.892,49.952C144.45,49.952 144.125,50.134 143.904,50.368C143.514,50.796 143.449,51.447 143.449,52.083C143.449,52.721 143.514,53.358 143.904,53.787C144.125,54.021 144.45,54.216 144.892,54.216C145.386,54.216 145.737,54.008 145.932,53.708C146.036,53.54 146.114,53.332 146.126,53.085L147.726,53.085C147.7,53.618 147.518,54.151 147.206,54.554" style="fill-rule:nonzero;"/>
    </g>
    <g transform="matrix(4.16667,0,0,4.16667,-64.8917,67.975)">
        <path d="M153.182,52.448L151.466,52.578C150.972,52.617 150.491,52.916 150.491,53.462C150.491,53.982 150.946,54.307 151.453,54.307C152.467,54.307 153.182,53.761 153.182,52.76L153.182,52.448ZM154.547,55.556C153.845,55.556 153.455,55.113 153.403,54.606C153.091,55.152 152.311,55.62 151.349,55.62C149.737,55.62 148.905,54.606 148.905,53.501C148.905,52.214 149.906,51.473 151.193,51.382L153.182,51.239L153.182,50.823C153.182,50.185 152.961,49.757 152.038,49.757C151.284,49.757 150.842,50.095 150.803,50.719L149.23,50.719C149.321,49.198 150.53,48.521 152.038,48.521C153.195,48.521 154.183,48.886 154.573,49.9C154.742,50.329 154.768,50.809 154.768,51.265L154.768,53.774C154.768,54.086 154.872,54.203 155.145,54.203C155.249,54.203 155.354,54.177 155.354,54.177L155.354,55.373C155.08,55.49 154.937,55.556 154.547,55.556" style="fill-rule:nonzero;"/>
    </g>
    <g transform="matrix(4.16667,0,0,4.16667,-64.8917,57.6833)">
        <path d="M159.611,52.357C159.103,52.357 158.751,52.591 158.517,52.89C158.179,53.332 158.089,53.943 158.089,54.527C158.089,55.113 158.179,55.736 158.517,56.179C158.751,56.478 159.103,56.712 159.611,56.712C160.884,56.712 161.144,55.503 161.144,54.527C161.144,53.553 160.884,52.357 159.611,52.357ZM161.287,57.921L161.183,57.18C160.781,57.804 160.027,58.077 159.285,58.077C158.609,58.077 158.05,57.843 157.634,57.505C156.828,56.842 156.437,55.828 156.437,54.554C156.437,53.228 156.841,52.201 157.646,51.538C158.062,51.199 158.609,50.991 159.298,50.991C160.156,50.991 160.781,51.277 161.066,51.629L161.066,48.534L162.691,48.534L162.691,57.921L161.287,57.921" style="fill-rule:nonzero;"/>
    </g>
    <g transform="matrix(4.16667,0,0,4.16667,-64.8917,67.975)">
        <path d="M168.503,50.212C168.283,49.977 167.945,49.822 167.476,49.822C166.982,49.822 166.58,50.03 166.345,50.342C166.111,50.64 166.007,50.953 165.994,51.395L168.919,51.395C168.906,50.888 168.763,50.498 168.503,50.212ZM170.531,52.578L166.007,52.578C165.994,53.098 166.177,53.592 166.501,53.904C166.736,54.125 167.06,54.32 167.501,54.32C167.97,54.32 168.257,54.229 168.49,53.995C168.634,53.852 168.75,53.67 168.816,53.423L170.376,53.423C170.337,53.826 170.064,54.359 169.804,54.671C169.232,55.347 168.386,55.62 167.529,55.62C166.605,55.62 165.929,55.295 165.396,54.788C164.72,54.138 164.357,53.189 164.357,52.084C164.357,51.005 164.681,50.043 165.332,49.38C165.837,48.86 166.566,48.521 167.49,48.521C168.49,48.521 169.4,48.925 169.96,49.769C170.453,50.511 170.57,51.278 170.544,52.123C170.544,52.123 170.531,52.434 170.531,52.578" style="fill-rule:nonzero;"/>
    </g>
    <g transform="matrix(4.16667,0,0,4.16667,-64.8917,67.2708)">
        <path d="M180.171,55.62L180.171,51.421C180.171,50.589 179.951,50.107 179.132,50.107C178.208,50.107 177.806,51.083 177.806,51.928L177.806,55.62L176.195,55.62L176.195,51.421C176.195,50.589 175.972,50.107 175.154,50.107C174.23,50.107 173.814,51.083 173.814,51.928L173.814,55.62L172.203,55.62L172.203,48.859L173.554,48.859L173.685,49.757C174.062,49.133 174.712,48.69 175.609,48.69C176.558,48.69 177.208,49.106 177.546,49.796C177.949,49.094 178.677,48.69 179.587,48.69C181.031,48.69 181.785,49.653 181.785,51.057L181.785,55.62L180.171,55.62" style="fill-rule:nonzero;"/>
    </g>
    <g transform="matrix(4.16667,0,0,4.16667,-64.8917,79.8375)">
        <path d="M186.642,53.761C186.304,54.645 185.746,55.451 184.562,55.451C184.029,55.451 183.666,55.374 183.314,55.282L183.314,53.93C183.744,54.008 183.859,54.047 184.224,54.047C184.523,54.047 184.835,53.943 185.003,53.541L185.394,52.591L182.728,45.843L184.509,45.843L186.279,50.732L187.968,45.843L189.619,45.843L186.642,53.761" style="fill-rule:nonzero;"/>
    </g>
    <g transform="matrix(4.16667,0,0,4.16667,-64.8917,57.7375)">
        <path d="M198.693,50.719C198.38,50.407 197.925,50.199 197.392,50.199L195.482,50.199L195.482,56.4L197.392,56.4C197.925,56.4 198.38,56.192 198.693,55.88C199.343,55.23 199.357,54.138 199.357,53.293C199.357,52.448 199.343,51.369 198.693,50.719ZM199.98,56.92C199.369,57.557 198.447,57.908 197.392,57.908L193.804,57.908L193.804,48.69L197.392,48.69C198.447,48.69 199.369,49.042 199.98,49.679C200.929,50.654 201.06,52.018 201.06,53.293C201.06,54.567 200.929,55.945 199.98,56.92" style="fill-rule:nonzero;"/>
    </g>
    <g transform="matrix(4.16667,0,0,4.16667,-64.8917,57.7375)">
        <path d="M206.232,48.521L207.753,48.521L207.753,50.094L206.232,50.094L206.232,48.521ZM203.554,48.521L205.076,48.521L205.076,50.094L203.554,50.094L203.554,48.521ZM207.117,57.908L207,57.024C206.675,57.687 205.921,58.077 205.062,58.077C203.621,58.077 202.722,57.102 202.722,55.659L202.722,51.147L204.347,51.147L204.347,55.295C204.347,56.088 204.66,56.582 205.517,56.582C205.894,56.582 206.156,56.439 206.349,56.244C206.74,55.88 206.843,55.269 206.843,54.722L206.843,51.147L208.468,51.147L208.468,57.908L207.117,57.908" style="fill-rule:nonzero;"/>
    </g>
    <g transform="matrix(4.16667,0,0,4.16667,-64.8917,67.975)">
        <path d="M215.287,54.84C214.742,55.386 213.896,55.62 212.974,55.62C212.115,55.62 211.349,55.373 210.789,54.84C210.4,54.463 210.074,53.904 210.074,53.266L211.595,53.266C211.595,53.566 211.751,53.891 211.958,54.06C212.22,54.268 212.519,54.359 212.986,54.359C213.533,54.359 214.365,54.242 214.365,53.501C214.365,53.111 214.105,52.85 213.689,52.786C213.089,52.695 212.414,52.656 211.816,52.526C210.894,52.331 210.269,51.577 210.269,50.719C210.269,50.03 210.556,49.549 210.958,49.198C211.453,48.768 212.167,48.521 213.013,48.521C213.818,48.521 214.638,48.782 215.132,49.315C215.496,49.705 215.73,50.212 215.73,50.706L214.183,50.706C214.183,50.446 214.066,50.238 213.91,50.069C213.714,49.874 213.363,49.757 213.025,49.757C212.791,49.757 212.57,49.757 212.324,49.861C212.037,49.977 211.804,50.224 211.804,50.576C211.804,51.057 212.22,51.2 212.583,51.252C213.195,51.33 213.363,51.343 214.027,51.447C215.093,51.616 215.873,52.292 215.873,53.358C215.873,54.008 215.638,54.489 215.287,54.84" style="fill-rule:nonzero;"/>
    </g>
    <g transform="matrix(4.16667,0,0,4.16667,-64.8917,67.975)">
        <path d="M222.31,54.84C221.763,55.386 220.919,55.62 219.996,55.62C219.138,55.62 218.371,55.373 217.812,54.84C217.421,54.463 217.097,53.904 217.097,53.266L218.619,53.266C218.619,53.566 218.773,53.891 218.982,54.06C219.242,54.268 219.541,54.359 220.009,54.359C220.554,54.359 221.386,54.242 221.386,53.501C221.386,53.111 221.126,52.85 220.71,52.786C220.113,52.695 219.437,52.656 218.839,52.526C217.916,52.331 217.292,51.577 217.292,50.719C217.292,50.03 217.578,49.549 217.98,49.198C218.474,48.768 219.189,48.521 220.035,48.521C220.841,48.521 221.66,48.782 222.154,49.315C222.517,49.705 222.751,50.212 222.751,50.706L221.205,50.706C221.205,50.446 221.087,50.238 220.931,50.069C220.736,49.874 220.386,49.757 220.048,49.757C219.814,49.757 219.593,49.757 219.345,49.861C219.06,49.977 218.826,50.224 218.826,50.576C218.826,51.057 219.242,51.2 219.605,51.252C220.216,51.33 220.386,51.343 221.048,51.447C222.115,51.616 222.894,52.292 222.894,53.358C222.894,54.008 222.662,54.489 222.31,54.84" style="fill-rule:nonzero;"/>
    </g>
    <g transform="matrix(4.16667,0,0,4.16667,-64.8917,67.975)">
        <path d="M228.267,50.212C228.046,49.977 227.708,49.822 227.24,49.822C226.746,49.822 226.343,50.03 226.109,50.342C225.875,50.64 225.771,50.953 225.757,51.395L228.683,51.395C228.669,50.888 228.527,50.498 228.267,50.212ZM230.294,52.578L225.771,52.578C225.757,53.098 225.939,53.592 226.265,53.904C226.5,54.125 226.824,54.32 227.265,54.32C227.734,54.32 228.019,54.229 228.253,53.995C228.396,53.852 228.513,53.67 228.58,53.423L230.138,53.423C230.099,53.826 229.828,54.359 229.566,54.671C228.996,55.347 228.15,55.62 227.292,55.62C226.369,55.62 225.693,55.295 225.16,54.788C224.484,54.138 224.119,53.189 224.119,52.084C224.119,51.005 224.445,50.043 225.095,49.38C225.601,48.86 226.33,48.521 227.253,48.521C228.253,48.521 229.164,48.925 229.722,49.769C230.216,50.511 230.333,51.278 230.308,52.123C230.308,52.123 230.294,52.434 230.294,52.578" style="fill-rule:nonzero;"/>
    </g>
    <g transform="matrix(4.16667,0,0,4.16667,-64.8917,57.3083)">
        <path d="M233.771,58.089C232.666,58.089 231.925,57.556 231.925,56.269L231.925,48.612L233.564,48.612L233.564,55.996C233.564,56.386 233.654,56.646 234.214,56.646C234.357,56.646 234.396,56.633 234.486,56.633L234.486,57.998C234.162,58.063 234.097,58.089 233.771,58.089" style="fill-rule:nonzero;"/>
    </g>
    <g transform="matrix(4.16667,0,0,4.16667,-64.8917,57.6833)">
        <path d="M238.681,52.357C238.175,52.357 237.824,52.591 237.589,52.89C237.251,53.332 237.162,53.943 237.162,54.527C237.162,55.113 237.251,55.736 237.589,56.179C237.824,56.478 238.175,56.712 238.681,56.712C239.957,56.712 240.216,55.503 240.216,54.527C240.216,53.553 239.957,52.357 238.681,52.357ZM240.359,57.921L240.255,57.18C239.851,57.804 239.097,58.077 238.357,58.077C237.681,58.077 237.123,57.843 236.707,57.505C235.9,56.842 235.509,55.828 235.509,54.554C235.509,53.228 235.914,52.201 236.718,51.538C237.134,51.199 237.681,50.991 238.371,50.991C239.228,50.991 239.851,51.277 240.138,51.629L240.138,48.534L241.763,48.534L241.763,57.921L240.359,57.921" style="fill-rule:nonzero;"/>
    </g>
    <g transform="matrix(4.16667,0,0,4.16667,-64.8917,67.975)">
        <path d="M247.634,50.368C247.414,50.134 247.05,49.938 246.607,49.938C246.166,49.938 245.802,50.134 245.582,50.368C245.191,50.797 245.099,51.433 245.099,52.071C245.099,52.708 245.191,53.345 245.582,53.774C245.802,54.008 246.166,54.203 246.607,54.203C247.05,54.203 247.414,54.008 247.634,53.774C248.025,53.345 248.117,52.708 248.117,52.071C248.117,51.433 248.025,50.797 247.634,50.368ZM248.974,54.567C248.505,55.14 247.634,55.62 246.607,55.62C245.582,55.62 244.71,55.14 244.242,54.567C243.734,53.93 243.449,53.215 243.449,52.071C243.449,50.927 243.734,50.212 244.242,49.575C244.71,49.003 245.582,48.521 246.607,48.521C247.634,48.521 248.505,49.003 248.974,49.575C249.48,50.212 249.767,50.927 249.767,52.071C249.767,53.215 249.48,53.93 248.974,54.567" style="fill-rule:nonzero;"/>
    </g>
    <g transform="matrix(4.16667,0,0,4.16667,-64.8917,67.5958)">
        <path d="M254.832,50.225C253.689,50.225 253.089,51.044 253.089,52.136L253.089,55.542L251.453,55.542L251.453,48.781L252.83,48.781L252.974,49.796C253.285,49.016 254.091,48.69 254.884,48.69C255.054,48.69 255.222,48.704 255.392,48.73L255.392,50.29C255.208,50.251 255.015,50.225 254.832,50.225" style="fill-rule:nonzero;"/>
    </g>
    <g transform="matrix(4.16667,0,0,4.16667,-64.8917,56.3875)">
        <path d="M259.97,50.029C259.384,50.029 259.085,50.367 259.085,50.848L259.085,51.471L260.892,51.471L260.892,52.811L259.085,52.811L259.085,58.232L257.46,58.232L257.46,52.811L256.316,52.811L256.316,51.471L257.46,51.471L257.46,50.822C257.46,49.574 258.306,48.69 259.761,48.69C260.23,48.69 260.529,48.729 261.037,48.833L261.037,50.132C260.699,50.068 260.398,50.029 259.97,50.029" style="fill-rule:nonzero;"/>
    </g>
    <g transform="matrix(4.16667,0,0,4.16667,-64.8917,-75.5917)">
        <path d="M75.009,66.211L75.009,68.681L79.196,68.681L79.196,70.202L75.009,70.202L75.009,73.907L73.332,73.907L73.332,64.69L79.703,64.69L79.703,66.211L75.009,66.211" style="fill:rgb(17,10,20);fill-rule:nonzero;"/>
    </g>
    <g transform="matrix(4.16667,0,0,4.16667,-64.8917,-65.3542)">
        <path d="M84.621,68.447L82.904,68.577C82.41,68.616 81.929,68.915 81.929,69.461C81.929,69.981 82.384,70.306 82.891,70.306C83.905,70.306 84.621,69.76 84.621,68.759L84.621,68.447ZM85.985,71.555C85.283,71.555 84.894,71.112 84.841,70.605C84.529,71.151 83.749,71.619 82.787,71.619C81.175,71.619 80.343,70.605 80.343,69.5C80.343,68.213 81.344,67.472 82.631,67.381L84.621,67.238L84.621,66.822C84.621,66.185 84.399,65.756 83.476,65.756C82.722,65.756 82.28,66.094 82.241,66.718L80.669,66.718C80.759,65.197 81.968,64.521 83.476,64.521C84.633,64.521 85.622,64.885 86.011,65.899C86.18,66.328 86.206,66.809 86.206,67.264L86.206,69.773C86.206,70.085 86.311,70.202 86.584,70.202C86.687,70.202 86.791,70.176 86.791,70.176L86.791,71.372C86.519,71.489 86.376,71.555 85.985,71.555" style="fill:rgb(17,10,20);fill-rule:nonzero;"/>
    </g>
    <g transform="matrix(4.16667,0,0,4.16667,-64.8917,-65.4625)">
        <path d="M93.252,70.553C92.784,71.138 91.964,71.619 90.937,71.619C89.911,71.619 89.052,71.125 88.585,70.553C88.078,69.916 87.843,69.071 87.843,68.083C87.843,67.095 88.078,66.25 88.585,65.613C89.052,65.041 89.911,64.547 90.937,64.547C91.964,64.547 92.784,65.028 93.252,65.613C93.563,66.016 93.746,66.549 93.771,67.082L92.172,67.082C92.16,66.835 92.081,66.627 91.977,66.458C91.783,66.159 91.432,65.951 90.937,65.951C90.496,65.951 90.17,66.133 89.95,66.367C89.56,66.796 89.495,67.446 89.495,68.083C89.495,68.72 89.56,69.357 89.95,69.786C90.17,70.02 90.496,70.215 90.937,70.215C91.432,70.215 91.783,70.007 91.977,69.708C92.081,69.539 92.16,69.331 92.172,69.084L93.771,69.084C93.746,69.617 93.563,70.15 93.252,70.553" style="fill:rgb(17,10,20);fill-rule:nonzero;"/>
    </g>
    <g transform="matrix(4.16667,0,0,4.16667,-64.8917,-64.65)">
        <path d="M99.676,71.281L99.559,70.397C99.234,71.06 98.48,71.45 97.622,71.45C96.179,71.45 95.282,70.475 95.282,69.032L95.282,64.521L96.907,64.521L96.907,68.668C96.907,69.461 97.219,69.955 98.077,69.955C98.454,69.955 98.714,69.812 98.909,69.617C99.299,69.253 99.403,68.642 99.403,68.096L99.403,64.521L101.028,64.521L101.028,71.281L99.676,71.281" style="fill:rgb(17,10,20);fill-rule:nonzero;"/>
    </g>
    <g transform="matrix(4.16667,0,0,4.16667,-64.8917,-76.025)">
        <path d="M104.914,74.089C103.808,74.089 103.067,73.556 103.067,72.269L103.067,64.612L104.706,64.612L104.706,71.996C104.706,72.386 104.796,72.646 105.355,72.646C105.499,72.646 105.538,72.633 105.628,72.633L105.628,73.998C105.303,74.063 105.238,74.089 104.914,74.089" style="fill:rgb(17,10,20);fill-rule:nonzero;"/>
    </g>
    <g transform="matrix(4.16667,0,0,4.16667,-64.8917,-73.8042)">
        <path d="M109.445,73.569C108.08,73.569 107.404,72.789 107.404,71.489L107.404,68.057L106.169,68.057L106.169,66.718L107.404,66.718L107.404,65.001L109.029,64.599L109.029,66.718L110.732,66.718L110.732,68.057L109.029,68.057L109.029,71.346C109.029,71.866 109.263,72.087 109.783,72.087C110.121,72.087 110.394,72.074 110.836,72.022L110.836,73.387C110.381,73.504 109.926,73.569 109.445,73.569" style="fill:rgb(17,10,20);fill-rule:nonzero;"/>
    </g>
    <g transform="matrix(4.16667,0,0,4.16667,-64.8917,-53.4917)">
        <path d="M115.609,69.76C115.271,70.644 114.712,71.45 113.529,71.45C112.997,71.45 112.632,71.373 112.281,71.281L112.281,69.929C112.71,70.007 112.827,70.046 113.191,70.046C113.49,70.046 113.802,69.942 113.971,69.54L114.361,68.59L111.696,61.843L113.478,61.843L115.246,66.731L116.936,61.843L118.586,61.843L115.609,69.76" style="fill:rgb(17,10,20);fill-rule:nonzero;"/>
    </g>
    <g transform="matrix(4.16667,0,0,4.16667,-64.8917,-65.3542)">
        <path d="M126.425,66.367C126.204,66.133 125.84,65.938 125.398,65.938C124.956,65.938 124.592,66.133 124.371,66.367C123.981,66.796 123.89,67.433 123.89,68.07C123.89,68.707 123.981,69.344 124.371,69.773C124.592,70.007 124.956,70.202 125.398,70.202C125.84,70.202 126.204,70.007 126.425,69.773C126.815,69.344 126.906,68.707 126.906,68.07C126.906,67.433 126.815,66.796 126.425,66.367ZM127.764,70.566C127.296,71.139 126.425,71.619 125.398,71.619C124.371,71.619 123.5,71.139 123.032,70.566C122.525,69.929 122.239,69.214 122.239,68.07C122.239,66.926 122.525,66.211 123.032,65.574C123.5,65.002 124.371,64.521 125.398,64.521C126.425,64.521 127.296,65.002 127.764,65.574C128.271,66.211 128.557,66.926 128.557,68.07C128.557,69.214 128.271,69.929 127.764,70.566" style="fill:rgb(17,10,20);fill-rule:nonzero;"/>
    </g>
    <g transform="matrix(4.16667,0,0,4.16667,-64.8917,-76.9458)">
        <path d="M133.159,66.029C132.574,66.029 132.275,66.367 132.275,66.848L132.275,67.472L134.082,67.472L134.082,68.811L132.275,68.811L132.275,74.232L130.65,74.232L130.65,68.811L129.506,68.811L129.506,67.472L130.65,67.472L130.65,66.822C130.65,65.574 131.495,64.69 132.951,64.69C133.419,64.69 133.718,64.729 134.225,64.833L134.225,66.133C133.887,66.068 133.588,66.029 133.159,66.029" style="fill:rgb(17,10,20);fill-rule:nonzero;"/>
    </g>
    <g transform="matrix(4.16667,0,0,4.16667,-64.8917,-75.5917)">
        <path d="M141.453,66.744L140.14,70.631L142.766,70.631L141.453,66.744ZM143.884,73.907L143.286,72.139L139.62,72.139L139.021,73.907L137.332,73.907L140.569,64.69L142.402,64.69L145.639,73.907L143.884,73.907" style="fill:rgb(17,10,20);fill-rule:nonzero;"/>
    </g>
    <g transform="matrix(4.16667,0,0,4.16667,-64.8917,-65.7333)">
        <path d="M150.265,66.224C149.121,66.224 148.523,67.043 148.523,68.135L148.523,71.541L146.885,71.541L146.885,64.781L148.263,64.781L148.406,65.795C148.718,65.015 149.524,64.69 150.317,64.69C150.486,64.69 150.655,64.703 150.824,64.729L150.824,66.289C150.642,66.25 150.447,66.224 150.265,66.224" style="fill:rgb(17,10,20);fill-rule:nonzero;"/>
    </g>
    <g transform="matrix(4.16667,0,0,4.16667,-64.8917,-73.8042)">
        <path d="M155.006,73.569C153.641,73.569 152.965,72.789 152.965,71.489L152.965,68.057L151.73,68.057L151.73,66.718L152.965,66.718L152.965,65.001L154.59,64.599L154.59,66.718L156.292,66.718L156.292,68.057L154.59,68.057L154.59,71.346C154.59,71.866 154.824,72.087 155.344,72.087C155.682,72.087 155.955,72.074 156.396,72.022L156.396,73.387C155.942,73.504 155.487,73.569 155.006,73.569" style="fill:rgb(17,10,20);fill-rule:nonzero;"/>
    </g>
    <g transform="matrix(4.16667,0,0,4.16667,-64.8917,-65.3542)">
        <path d="M162.724,70.839C162.177,71.385 161.333,71.619 160.41,71.619C159.552,71.619 158.785,71.372 158.226,70.839C157.835,70.462 157.511,69.903 157.511,69.266L159.033,69.266C159.033,69.565 159.187,69.89 159.396,70.059C159.656,70.267 159.955,70.358 160.423,70.358C160.968,70.358 161.8,70.241 161.8,69.5C161.8,69.11 161.541,68.85 161.125,68.785C160.527,68.694 159.851,68.655 159.253,68.525C158.33,68.33 157.707,67.576 157.707,66.718C157.707,66.029 157.992,65.548 158.394,65.197C158.888,64.768 159.603,64.521 160.449,64.521C161.255,64.521 162.074,64.781 162.568,65.314C162.931,65.704 163.166,66.211 163.166,66.705L161.619,66.705C161.619,66.445 161.501,66.237 161.345,66.068C161.15,65.873 160.8,65.756 160.462,65.756C160.228,65.756 160.007,65.756 159.759,65.86C159.474,65.977 159.24,66.224 159.24,66.575C159.24,67.056 159.656,67.199 160.019,67.251C160.63,67.329 160.8,67.342 161.462,67.446C162.529,67.615 163.308,68.291 163.308,69.357C163.308,70.007 163.076,70.488 162.724,70.839" style="fill:rgb(17,10,20);fill-rule:nonzero;"/>
    </g>
    <g transform="matrix(4.16667,0,0,4.16667,-64.8917,-65.3542)">
        <path d="M171.654,68.447L169.939,68.577C169.445,68.616 168.962,68.915 168.962,69.461C168.962,69.981 169.417,70.306 169.925,70.306C170.939,70.306 171.654,69.76 171.654,68.759L171.654,68.447ZM173.019,71.555C172.318,71.555 171.927,71.112 171.875,70.605C171.564,71.151 170.783,71.619 169.822,71.619C168.208,71.619 167.376,70.605 167.376,69.5C167.376,68.213 168.378,67.472 169.666,67.381L171.654,67.238L171.654,66.822C171.654,66.185 171.433,65.756 170.509,65.756C169.755,65.756 169.314,66.094 169.275,66.718L167.703,66.718C167.792,65.197 169.001,64.521 170.509,64.521C171.667,64.521 172.656,64.885 173.044,65.899C173.214,66.328 173.24,66.809 173.24,67.264L173.24,69.773C173.24,70.085 173.345,70.202 173.617,70.202C173.722,70.202 173.826,70.176 173.826,70.176L173.826,71.372C173.552,71.489 173.41,71.555 173.019,71.555" style="fill:rgb(17,10,20);fill-rule:nonzero;"/>
    </g>
    <g transform="matrix(4.16667,0,0,4.16667,-64.8917,-66.0583)">
        <path d="M179.509,71.619L179.509,67.472C179.509,66.679 179.25,66.198 178.392,66.198C177.82,66.198 177.443,66.562 177.22,67.056C176.988,67.589 177,68.291 177,68.863L177,71.619L175.375,71.619L175.375,64.859L176.74,64.859L176.857,65.73C177.259,65.015 178.066,64.69 178.847,64.69C180.289,64.69 181.134,65.704 181.134,67.108L181.134,71.619L179.509,71.619" style="fill:rgb(17,10,20);fill-rule:nonzero;"/>
    </g>
    <g transform="matrix(4.16667,0,0,4.16667,-64.8917,-75.6458)">
        <path d="M185.919,68.356C185.412,68.356 185.06,68.59 184.828,68.889C184.49,69.331 184.398,69.942 184.398,70.527C184.398,71.112 184.49,71.736 184.828,72.178C185.06,72.477 185.412,72.711 185.919,72.711C187.193,72.711 187.453,71.502 187.453,70.527C187.453,69.552 187.193,68.356 185.919,68.356ZM187.595,73.92L187.492,73.179C187.089,73.803 186.335,74.076 185.593,74.076C184.917,74.076 184.359,73.842 183.943,73.504C183.136,72.841 182.748,71.827 182.748,70.553C182.748,69.227 183.15,68.2 183.957,67.537C184.373,67.199 184.917,66.991 185.607,66.991C186.464,66.991 187.089,67.277 187.375,67.628L187.375,64.534L189,64.534L189,73.92L187.595,73.92" style="fill:rgb(17,10,20);fill-rule:nonzero;"/>
    </g>
    <g transform="matrix(4.16667,0,0,4.16667,-64.8917,-75.5917)">
        <path d="M199.66,73.907L199.66,69.89L195.876,69.89L195.876,73.907L194.201,73.907L194.201,64.69L195.876,64.69L195.876,68.291L199.66,68.291L199.66,64.69L201.337,64.69L201.337,73.907L199.66,73.907" style="fill:rgb(17,10,20);fill-rule:nonzero;"/>
    </g>
    <g transform="matrix(4.16667,0,0,4.16667,-64.8917,-64.65)">
        <path d="M207.767,71.281L207.65,70.397C207.326,71.06 206.572,71.45 205.714,71.45C204.271,71.45 203.375,70.475 203.375,69.032L203.375,64.521L205,64.521L205,68.668C205,69.461 205.31,69.955 206.169,69.955C206.546,69.955 206.806,69.812 207.001,69.617C207.39,69.253 207.496,68.642 207.496,68.096L207.496,64.521L209.121,64.521L209.121,71.281L207.767,71.281" style="fill:rgb(17,10,20);fill-rule:nonzero;"/>
    </g>
    <g transform="matrix(4.16667,0,0,4.16667,-64.8917,-66.0583)">
        <path d="M219.154,71.619L219.154,67.42C219.154,66.588 218.933,66.107 218.113,66.107C217.191,66.107 216.787,67.082 216.787,67.927L216.787,71.619L215.175,71.619L215.175,67.42C215.175,66.588 214.955,66.107 214.136,66.107C213.212,66.107 212.796,67.082 212.796,67.927L212.796,71.619L211.185,71.619L211.185,64.859L212.537,64.859L212.666,65.756C213.042,65.132 213.693,64.69 214.589,64.69C215.539,64.69 216.189,65.106 216.527,65.795C216.931,65.093 217.658,64.69 218.568,64.69C220.011,64.69 220.765,65.652 220.765,67.056L220.765,71.619L219.154,71.619" style="fill:rgb(17,10,20);fill-rule:nonzero;"/>
    </g>
    <g transform="matrix(4.16667,0,0,4.16667,-64.8917,-65.3542)">
        <path d="M226.601,68.447L224.886,68.577C224.392,68.616 223.912,68.915 223.912,69.461C223.912,69.981 224.367,70.306 224.873,70.306C225.886,70.306 226.601,69.76 226.601,68.759L226.601,68.447ZM227.966,71.555C227.265,71.555 226.875,71.112 226.824,70.605C226.511,71.151 225.732,71.619 224.769,71.619C223.158,71.619 222.326,70.605 222.326,69.5C222.326,68.213 223.326,67.472 224.613,67.381L226.601,67.238L226.601,66.822C226.601,66.185 226.38,65.756 225.458,65.756C224.705,65.756 224.261,66.094 224.222,66.718L222.65,66.718C222.742,65.197 223.951,64.521 225.458,64.521C226.615,64.521 227.603,64.885 227.994,65.899C228.162,66.328 228.189,66.809 228.189,67.264L228.189,69.773C228.189,70.085 228.292,70.202 228.566,70.202C228.669,70.202 228.773,70.176 228.773,70.176L228.773,71.372C228.5,71.489 228.357,71.555 227.966,71.555" style="fill:rgb(17,10,20);fill-rule:nonzero;"/>
    </g>
    <g transform="matrix(4.16667,0,0,4.16667,-64.8917,-66.0583)">
        <path d="M234.457,71.619L234.457,67.472C234.457,66.679 234.197,66.198 233.339,66.198C232.767,66.198 232.39,66.562 232.169,67.056C231.935,67.589 231.949,68.291 231.949,68.863L231.949,71.619L230.324,71.619L230.324,64.859L231.687,64.859L231.804,65.73C232.208,65.015 233.013,64.69 233.794,64.69C235.238,64.69 236.082,65.704 236.082,67.108L236.082,71.619L234.457,71.619" style="fill:rgb(17,10,20);fill-rule:nonzero;"/>
    </g>
    <g transform="matrix(4.16667,0,0,4.16667,-64.8917,-76.2417)">
        <path d="M238.091,67.303L239.742,67.303L239.742,74.063L238.091,74.063L238.091,67.303ZM238.039,64.69L239.781,64.69L239.781,66.367L238.039,66.367L238.039,64.69Z" style="fill:rgb(17,10,20);fill-rule:nonzero;"/>
    </g>
    <g transform="matrix(4.16667,0,0,4.16667,-64.8917,-73.8042)">
        <path d="M244.341,73.569C242.976,73.569 242.298,72.789 242.298,71.489L242.298,68.057L241.064,68.057L241.064,66.718L242.298,66.718L242.298,65.001L243.925,64.599L243.925,66.718L245.626,66.718L245.626,68.057L243.925,68.057L243.925,71.346C243.925,71.866 244.158,72.087 244.679,72.087C245.017,72.087 245.289,72.074 245.732,72.022L245.732,73.387C245.277,73.504 244.822,73.569 244.341,73.569" style="fill:rgb(17,10,20);fill-rule:nonzero;"/>
    </g>
    <g transform="matrix(4.16667,0,0,4.16667,-64.8917,-76.2417)">
        <path d="M247.244,67.303L248.894,67.303L248.894,74.063L247.244,74.063L247.244,67.303ZM247.191,64.69L248.933,64.69L248.933,66.367L247.191,66.367L247.191,64.69Z" style="fill:rgb(17,10,20);fill-rule:nonzero;"/>
    </g>
    <g transform="matrix(4.16667,0,0,4.16667,-64.8917,-65.3542)">
        <path d="M254.699,66.211C254.478,65.977 254.14,65.821 253.671,65.821C253.177,65.821 252.775,66.029 252.541,66.341C252.308,66.64 252.203,66.952 252.191,67.394L255.115,67.394C255.103,66.887 254.958,66.497 254.699,66.211ZM256.728,68.577L252.203,68.577C252.191,69.097 252.373,69.591 252.697,69.903C252.931,70.124 253.255,70.319 253.699,70.319C254.166,70.319 254.453,70.228 254.687,69.994C254.83,69.851 254.947,69.669 255.011,69.422L256.572,69.422C256.533,69.825 256.259,70.358 256,70.67C255.427,71.346 254.582,71.619 253.724,71.619C252.8,71.619 252.125,71.294 251.591,70.787C250.916,70.137 250.552,69.188 250.552,68.083C250.552,67.004 250.876,66.042 251.527,65.379C252.035,64.859 252.761,64.521 253.685,64.521C254.687,64.521 255.597,64.924 256.156,65.769C256.65,66.51 256.767,67.277 256.74,68.122C256.74,68.122 256.728,68.434 256.728,68.577" style="fill:rgb(17,10,20);fill-rule:nonzero;"/>
    </g>
    <g transform="matrix(4.16667,0,0,4.16667,-64.8917,-65.3542)">
        <path d="M263.099,70.839C262.552,71.385 261.707,71.619 260.785,71.619C259.927,71.619 259.16,71.372 258.601,70.839C258.21,70.462 257.884,69.903 257.884,69.266L259.406,69.266C259.406,69.565 259.562,69.89 259.771,70.059C260.031,70.267 260.33,70.358 260.796,70.358C261.343,70.358 262.175,70.241 262.175,69.5C262.175,69.11 261.916,68.85 261.5,68.785C260.902,68.694 260.226,68.655 259.626,68.525C258.705,68.33 258.08,67.576 258.08,66.718C258.08,66.029 258.367,65.548 258.769,65.197C259.263,64.768 259.978,64.521 260.824,64.521C261.628,64.521 262.449,64.781 262.943,65.314C263.306,65.704 263.541,66.211 263.541,66.705L261.994,66.705C261.994,66.445 261.876,66.237 261.72,66.068C261.525,65.873 261.175,65.756 260.835,65.756C260.603,65.756 260.38,65.756 260.134,65.86C259.849,65.977 259.615,66.224 259.615,66.575C259.615,67.056 260.031,67.199 260.394,67.251C261.005,67.329 261.175,67.342 261.837,67.446C262.904,67.615 263.683,68.291 263.683,69.357C263.683,70.007 263.449,70.488 263.099,70.839" style="fill:rgb(17,10,20);fill-rule:nonzero;"/>
    </g>
    <g transform="matrix(4.16667,0,0,4.16667,-64.8917,57.7917)">
        <path d="M79.248,57.895L79.053,56.881C78.78,57.414 77.896,58.051 76.739,58.064C75.672,58.077 74.724,57.804 73.996,57.037C73.034,56.036 72.799,54.801 72.799,53.293C72.799,51.785 72.995,50.588 73.996,49.587C74.698,48.885 75.751,48.508 76.739,48.508C77.87,48.508 78.845,48.924 79.469,49.562C79.924,50.03 80.262,50.615 80.314,51.42L78.598,51.42C78.572,51.057 78.39,50.81 78.195,50.576C77.87,50.199 77.363,50.017 76.726,50.017C76.192,50.017 75.581,50.251 75.217,50.641C74.581,51.304 74.502,52.448 74.502,53.293C74.502,54.138 74.593,55.321 75.23,55.984C75.595,56.374 76.192,56.569 76.726,56.569C77.324,56.569 77.791,56.361 78.104,56.036C78.598,55.516 78.702,54.944 78.702,54.242L76.504,54.242L76.504,52.851L80.327,52.851L80.327,57.895L79.248,57.895" style="fill:rgb(17,10,20);fill-rule:nonzero;"/>
    </g>
    <g transform="matrix(4.16667,0,0,4.16667,-64.8917,67.5958)">
        <path d="M85.671,50.225C84.527,50.225 83.929,51.044 83.929,52.136L83.929,55.542L82.291,55.542L82.291,48.781L83.669,48.781L83.812,49.796C84.124,49.016 84.93,48.69 85.723,48.69C85.892,48.69 86.061,48.704 86.23,48.73L86.23,50.29C86.048,50.251 85.853,50.225 85.671,50.225" style="fill:rgb(17,10,20);fill-rule:nonzero;"/>
    </g>
    <g transform="matrix(4.16667,0,0,4.16667,-64.8917,67.975)">
        <path d="M91.373,52.448L89.658,52.578C89.164,52.617 88.683,52.916 88.683,53.462C88.683,53.982 89.138,54.307 89.645,54.307C90.659,54.307 91.373,53.761 91.373,52.76L91.373,52.448ZM92.739,55.556C92.037,55.556 91.647,55.113 91.595,54.606C91.283,55.152 90.503,55.62 89.54,55.62C87.929,55.62 87.097,54.606 87.097,53.501C87.097,52.214 88.098,51.473 89.385,51.382L91.373,51.239L91.373,50.823C91.373,50.185 91.153,49.757 90.23,49.757C89.476,49.757 89.034,50.095 88.995,50.719L87.421,50.719C87.513,49.198 88.722,48.521 90.23,48.521C91.387,48.521 92.375,48.886 92.765,49.9C92.934,50.329 92.96,50.809 92.96,51.265L92.96,53.774C92.96,54.086 93.064,54.203 93.337,54.203C93.441,54.203 93.545,54.177 93.545,54.177L93.545,55.373C93.272,55.49 93.129,55.556 92.739,55.556" style="fill:rgb(17,10,20);fill-rule:nonzero;"/>
    </g>
    <g transform="matrix(4.16667,0,0,4.16667,-64.8917,57.6833)">
        <path d="M97.803,52.357C97.295,52.357 96.945,52.591 96.71,52.89C96.373,53.332 96.282,53.943 96.282,54.527C96.282,55.113 96.373,55.736 96.71,56.179C96.945,56.478 97.295,56.712 97.803,56.712C99.077,56.712 99.336,55.503 99.336,54.527C99.336,53.553 99.077,52.357 97.803,52.357ZM99.479,57.921L99.376,57.18C98.973,57.804 98.219,58.077 97.478,58.077C96.802,58.077 96.243,57.843 95.827,57.505C95.02,56.842 94.63,55.828 94.63,54.554C94.63,53.228 95.034,52.201 95.839,51.538C96.255,51.199 96.802,50.991 97.491,50.991C98.349,50.991 98.973,51.277 99.259,51.629L99.259,48.534L100.884,48.534L100.884,57.921L99.479,57.921" style="fill:rgb(17,10,20);fill-rule:nonzero;"/>
    </g>
    <g transform="matrix(4.16667,0,0,4.16667,-64.8917,68.6792)">
        <path d="M107.279,55.282L107.162,54.398C106.837,55.061 106.083,55.451 105.225,55.451C103.782,55.451 102.885,54.476 102.885,53.033L102.885,48.521L104.51,48.521L104.51,52.669C104.51,53.462 104.822,53.956 105.68,53.956C106.057,53.956 106.317,53.813 106.512,53.618C106.902,53.254 107.006,52.643 107.006,52.096L107.006,48.521L108.631,48.521L108.631,55.282L107.279,55.282" style="fill:rgb(17,10,20);fill-rule:nonzero;"/>
    </g>
    <g transform="matrix(4.16667,0,0,4.16667,-64.8917,67.975)">
        <path d="M114.528,52.448L112.812,52.578C112.318,52.617 111.837,52.916 111.837,53.462C111.837,53.982 112.292,54.307 112.799,54.307C113.813,54.307 114.528,53.761 114.528,52.76L114.528,52.448ZM115.893,55.556C115.191,55.556 114.801,55.113 114.749,54.606C114.437,55.152 113.657,55.62 112.695,55.62C111.083,55.62 110.251,54.606 110.251,53.501C110.251,52.214 111.252,51.473 112.539,51.382L114.528,51.239L114.528,50.823C114.528,50.185 114.307,49.757 113.384,49.757C112.63,49.757 112.188,50.095 112.149,50.719L110.576,50.719C110.667,49.198 111.876,48.521 113.384,48.521C114.541,48.521 115.529,48.886 115.919,49.9C116.088,50.329 116.114,50.809 116.114,51.265L116.114,53.774C116.114,54.086 116.218,54.203 116.491,54.203C116.595,54.203 116.699,54.177 116.699,54.177L116.699,55.373C116.426,55.49 116.283,55.556 115.893,55.556" style="fill:rgb(17,10,20);fill-rule:nonzero;"/>
    </g>
    <g transform="matrix(4.16667,0,0,4.16667,-64.8917,59.5292)">
        <path d="M120.667,57.569C119.302,57.569 118.625,56.789 118.625,55.489L118.625,52.057L117.391,52.057L117.391,50.717L118.625,50.717L118.625,49.001L120.251,48.599L120.251,50.717L121.954,50.717L121.954,52.057L120.251,52.057L120.251,55.346C120.251,55.866 120.485,56.087 121.005,56.087C121.343,56.087 121.616,56.074 122.058,56.022L122.058,57.387C121.603,57.504 121.148,57.569 120.667,57.569" style="fill:rgb(17,10,20);fill-rule:nonzero;"/>
    </g>
    <g transform="matrix(4.16667,0,0,4.16667,-64.8917,67.975)">
        <path d="M127.222,50.212C127,49.977 126.663,49.822 126.194,49.822C125.701,49.822 125.297,50.03 125.063,50.342C124.83,50.64 124.726,50.953 124.712,51.395L127.638,51.395C127.625,50.888 127.481,50.498 127.222,50.212ZM129.25,52.578L124.726,52.578C124.712,53.098 124.895,53.592 125.219,53.904C125.454,54.125 125.778,54.32 126.22,54.32C126.688,54.32 126.975,54.229 127.208,53.995C127.352,53.852 127.468,53.67 127.534,53.423L129.094,53.423C129.055,53.826 128.782,54.359 128.521,54.671C127.95,55.347 127.104,55.62 126.247,55.62C125.323,55.62 124.647,55.295 124.114,54.788C123.438,54.138 123.074,53.189 123.074,52.084C123.074,51.005 123.399,50.043 124.049,49.38C124.556,48.86 125.285,48.521 126.208,48.521C127.208,48.521 128.119,48.925 128.678,49.769C129.171,50.511 129.289,51.278 129.263,52.123C129.263,52.123 129.25,52.434 129.25,52.578" style="fill:rgb(17,10,20);fill-rule:nonzero;"/>
    </g>
    <g transform="matrix(4.16667,0,0,4.16667,-64.8917,57.7375)">
        <path d="M136.997,50.745L135.684,54.632L138.31,54.632L136.997,50.745ZM139.428,57.908L138.83,56.139L135.164,56.139L134.565,57.908L132.875,57.908L136.113,48.69L137.946,48.69L141.183,57.908L139.428,57.908" style="fill:rgb(17,10,20);fill-rule:nonzero;"/>
    </g>
    <g transform="matrix(4.16667,0,0,4.16667,-64.8917,67.8667)">
        <path d="M147.206,54.554C146.738,55.139 145.918,55.62 144.892,55.62C143.865,55.62 143.006,55.126 142.539,54.554C142.032,53.917 141.797,53.072 141.797,52.083C141.797,51.096 142.032,50.25 142.539,49.614C143.006,49.041 143.865,48.547 144.892,48.547C145.918,48.547 146.738,49.029 147.206,49.614C147.518,50.017 147.7,50.55 147.726,51.083L146.126,51.083C146.114,50.835 146.036,50.627 145.932,50.458C145.737,50.16 145.386,49.952 144.892,49.952C144.45,49.952 144.125,50.134 143.904,50.368C143.514,50.796 143.449,51.447 143.449,52.083C143.449,52.721 143.514,53.358 143.904,53.787C144.125,54.021 144.45,54.216 144.892,54.216C145.386,54.216 145.737,54.008 145.932,53.708C146.036,53.54 146.114,53.332 146.126,53.085L147.726,53.085C147.7,53.618 147.518,54.151 147.206,54.554" style="fill:rgb(17,10,20);fill-rule:nonzero;"/>
    </g>
    <g transform="matrix(4.16667,0,0,4.16667,-64.8917,67.975)">
        <path d="M153.182,52.448L151.466,52.578C150.972,52.617 150.491,52.916 150.491,53.462C150.491,53.982 150.946,54.307 151.453,54.307C152.467,54.307 153.182,53.761 153.182,52.76L153.182,52.448ZM154.547,55.556C153.845,55.556 153.455,55.113 153.403,54.606C153.091,55.152 152.311,55.62 151.349,55.62C149.737,55.62 148.905,54.606 148.905,53.501C148.905,52.214 149.906,51.473 151.193,51.382L153.182,51.239L153.182,50.823C153.182,50.185 152.961,49.757 152.038,49.757C151.284,49.757 150.842,50.095 150.803,50.719L149.23,50.719C149.321,49.198 150.53,48.521 152.038,48.521C153.195,48.521 154.183,48.886 154.573,49.9C154.742,50.329 154.768,50.809 154.768,51.265L154.768,53.774C154.768,54.086 154.872,54.203 155.145,54.203C155.249,54.203 155.354,54.177 155.354,54.177L155.354,55.373C155.08,55.49 154.937,55.556 154.547,55.556" style="fill:rgb(17,10,20);fill-rule:nonzero;"/>
    </g>
    <g transform="matrix(4.16667,0,0,4.16667,-64.8917,57.6833)">
        <path d="M159.611,52.357C159.103,52.357 158.751,52.591 158.517,52.89C158.179,53.332 158.089,53.943 158.089,54.527C158.089,55.113 158.179,55.736 158.517,56.179C158.751,56.478 159.103,56.712 159.611,56.712C160.884,56.712 161.144,55.503 161.144,54.527C161.144,53.553 160.884,52.357 159.611,52.357ZM161.287,57.921L161.183,57.18C160.781,57.804 160.027,58.077 159.285,58.077C158.609,58.077 158.05,57.843 157.634,57.505C156.828,56.842 156.437,55.828 156.437,54.554C156.437,53.228 156.841,52.201 157.646,51.538C158.062,51.199 158.609,50.991 159.298,50.991C160.156,50.991 160.781,51.277 161.066,51.629L161.066,48.534L162.691,48.534L162.691,57.921L161.287,57.921" style="fill:rgb(17,10,20);fill-rule:nonzero;"/>
    </g>
    <g transform="matrix(4.16667,0,0,4.16667,-64.8917,67.975)">
        <path d="M168.503,50.212C168.283,49.977 167.945,49.822 167.476,49.822C166.982,49.822 166.58,50.03 166.345,50.342C166.111,50.64 166.007,50.953 165.994,51.395L168.919,51.395C168.906,50.888 168.763,50.498 168.503,50.212ZM170.531,52.578L166.007,52.578C165.994,53.098 166.177,53.592 166.501,53.904C166.736,54.125 167.06,54.32 167.501,54.32C167.97,54.32 168.257,54.229 168.49,53.995C168.634,53.852 168.75,53.67 168.816,53.423L170.376,53.423C170.337,53.826 170.064,54.359 169.804,54.671C169.232,55.347 168.386,55.62 167.529,55.62C166.605,55.62 165.929,55.295 165.396,54.788C164.72,54.138 164.357,53.189 164.357,52.084C164.357,51.005 164.681,50.043 165.332,49.38C165.837,48.86 166.566,48.521 167.49,48.521C168.49,48.521 169.4,48.925 169.96,49.769C170.453,50.511 170.57,51.278 170.544,52.123C170.544,52.123 170.531,52.434 170.531,52.578" style="fill:rgb(17,10,20);fill-rule:nonzero;"/>
    </g>
    <g transform="matrix(4.16667,0,0,4.16667,-64.8917,67.2708)">
        <path d="M180.171,55.62L180.171,51.421C180.171,50.589 179.951,50.107 179.132,50.107C178.208,50.107 177.806,51.083 177.806,51.928L177.806,55.62L176.195,55.62L176.195,51.421C176.195,50.589 175.972,50.107 175.154,50.107C174.23,50.107 173.814,51.083 173.814,51.928L173.814,55.62L172.203,55.62L172.203,48.859L173.554,48.859L173.685,49.757C174.062,49.133 174.712,48.69 175.609,48.69C176.558,48.69 177.208,49.106 177.546,49.796C177.949,49.094 178.677,48.69 179.587,48.69C181.031,48.69 181.785,49.653 181.785,51.057L181.785,55.62L180.171,55.62" style="fill:rgb(17,10,20);fill-rule:nonzero;"/>
    </g>
    <g transform="matrix(4.16667,0,0,4.16667,-64.8917,79.8375)">
        <path d="M186.642,53.761C186.304,54.645 185.746,55.451 184.562,55.451C184.029,55.451 183.666,55.374 183.314,55.282L183.314,53.93C183.744,54.008 183.859,54.047 184.224,54.047C184.523,54.047 184.835,53.943 185.003,53.541L185.394,52.591L182.728,45.843L184.509,45.843L186.279,50.732L187.968,45.843L189.619,45.843L186.642,53.761" style="fill:rgb(17,10,20);fill-rule:nonzero;"/>
    </g>
    <g transform="matrix(4.16667,0,0,4.16667,-64.8917,57.7375)">
        <path d="M198.693,50.719C198.38,50.407 197.925,50.199 197.392,50.199L195.482,50.199L195.482,56.4L197.392,56.4C197.925,56.4 198.38,56.192 198.693,55.88C199.343,55.23 199.357,54.138 199.357,53.293C199.357,52.448 199.343,51.369 198.693,50.719ZM199.98,56.92C199.369,57.557 198.447,57.908 197.392,57.908L193.804,57.908L193.804,48.69L197.392,48.69C198.447,48.69 199.369,49.042 199.98,49.679C200.929,50.654 201.06,52.018 201.06,53.293C201.06,54.567 200.929,55.945 199.98,56.92" style="fill:rgb(17,10,20);fill-rule:nonzero;"/>
    </g>
    <g transform="matrix(4.16667,0,0,4.16667,-64.8917,57.7375)">
        <path d="M206.232,48.521L207.753,48.521L207.753,50.094L206.232,50.094L206.232,48.521ZM203.554,48.521L205.076,48.521L205.076,50.094L203.554,50.094L203.554,48.521ZM207.117,57.908L207,57.024C206.675,57.687 205.921,58.077 205.062,58.077C203.621,58.077 202.722,57.102 202.722,55.659L202.722,51.147L204.347,51.147L204.347,55.295C204.347,56.088 204.66,56.582 205.517,56.582C205.894,56.582 206.156,56.439 206.349,56.244C206.74,55.88 206.843,55.269 206.843,54.722L206.843,51.147L208.468,51.147L208.468,57.908L207.117,57.908" style="fill:rgb(17,10,20);fill-rule:nonzero;"/>
    </g>
    <g transform="matrix(4.16667,0,0,4.16667,-64.8917,67.975)">
        <path d="M215.287,54.84C214.742,55.386 213.896,55.62 212.974,55.62C212.115,55.62 211.349,55.373 210.789,54.84C210.4,54.463 210.074,53.904 210.074,53.266L211.595,53.266C211.595,53.566 211.751,53.891 211.958,54.06C212.22,54.268 212.519,54.359 212.986,54.359C213.533,54.359 214.365,54.242 214.365,53.501C214.365,53.111 214.105,52.85 213.689,52.786C213.089,52.695 212.414,52.656 211.816,52.526C210.894,52.331 210.269,51.577 210.269,50.719C210.269,50.03 210.556,49.549 210.958,49.198C211.453,48.768 212.167,48.521 213.013,48.521C213.818,48.521 214.638,48.782 215.132,49.315C215.496,49.705 215.73,50.212 215.73,50.706L214.183,50.706C214.183,50.446 214.066,50.238 213.91,50.069C213.714,49.874 213.363,49.757 213.025,49.757C212.791,49.757 212.57,49.757 212.324,49.861C212.037,49.977 211.804,50.224 211.804,50.576C211.804,51.057 212.22,51.2 212.583,51.252C213.195,51.33 213.363,51.343 214.027,51.447C215.093,51.616 215.873,52.292 215.873,53.358C215.873,54.008 215.638,54.489 215.287,54.84" style="fill:rgb(17,10,20);fill-rule:nonzero;"/>
    </g>
    <g transform="matrix(4.16667,0,0,4.16667,-64.8917,67.975)">
        <path d="M222.31,54.84C221.763,55.386 220.919,55.62 219.996,55.62C219.138,55.62 218.371,55.373 217.812,54.84C217.421,54.463 217.097,53.904 217.097,53.266L218.619,53.266C218.619,53.566 218.773,53.891 218.982,54.06C219.242,54.268 219.541,54.359 220.009,54.359C220.554,54.359 221.386,54.242 221.386,53.501C221.386,53.111 221.126,52.85 220.71,52.786C220.113,52.695 219.437,52.656 218.839,52.526C217.916,52.331 217.292,51.577 217.292,50.719C217.292,50.03 217.578,49.549 217.98,49.198C218.474,48.768 219.189,48.521 220.035,48.521C220.841,48.521 221.66,48.782 222.154,49.315C222.517,49.705 222.751,50.212 222.751,50.706L221.205,50.706C221.205,50.446 221.087,50.238 220.931,50.069C220.736,49.874 220.386,49.757 220.048,49.757C219.814,49.757 219.593,49.757 219.345,49.861C219.06,49.977 218.826,50.224 218.826,50.576C218.826,51.057 219.242,51.2 219.605,51.252C220.216,51.33 220.386,51.343 221.048,51.447C222.115,51.616 222.894,52.292 222.894,53.358C222.894,54.008 222.662,54.489 222.31,54.84" style="fill:rgb(17,10,20);fill-rule:nonzero;"/>
    </g>
    <g transform="matrix(4.16667,0,0,4.16667,-64.8917,67.975)">
        <path d="M228.267,50.212C228.046,49.977 227.708,49.822 227.24,49.822C226.746,49.822 226.343,50.03 226.109,50.342C225.875,50.64 225.771,50.953 225.757,51.395L228.683,51.395C228.669,50.888 228.527,50.498 228.267,50.212ZM230.294,52.578L225.771,52.578C225.757,53.098 225.939,53.592 226.265,53.904C226.5,54.125 226.824,54.32 227.265,54.32C227.734,54.32 228.019,54.229 228.253,53.995C228.396,53.852 228.513,53.67 228.58,53.423L230.138,53.423C230.099,53.826 229.828,54.359 229.566,54.671C228.996,55.347 228.15,55.62 227.292,55.62C226.369,55.62 225.693,55.295 225.16,54.788C224.484,54.138 224.119,53.189 224.119,52.084C224.119,51.005 224.445,50.043 225.095,49.38C225.601,48.86 226.33,48.521 227.253,48.521C228.253,48.521 229.164,48.925 229.722,49.769C230.216,50.511 230.333,51.278 230.308,52.123C230.308,52.123 230.294,52.434 230.294,52.578" style="fill:rgb(17,10,20);fill-rule:nonzero;"/>
    </g>
    <g transform="matrix(4.16667,0,0,4.16667,-64.8917,57.3083)">
        <path d="M233.771,58.089C232.666,58.089 231.925,57.556 231.925,56.269L231.925,48.612L233.564,48.612L233.564,55.996C233.564,56.386 233.654,56.646 234.214,56.646C234.357,56.646 234.396,56.633 234.486,56.633L234.486,57.998C234.162,58.063 234.097,58.089 233.771,58.089" style="fill:rgb(17,10,20);fill-rule:nonzero;"/>
    </g>
    <g transform="matrix(4.16667,0,0,4.16667,-64.8917,57.6833)">
        <path d="M238.681,52.357C238.175,52.357 237.824,52.591 237.589,52.89C237.251,53.332 237.162,53.943 237.162,54.527C237.162,55.113 237.251,55.736 237.589,56.179C237.824,56.478 238.175,56.712 238.681,56.712C239.957,56.712 240.216,55.503 240.216,54.527C240.216,53.553 239.957,52.357 238.681,52.357ZM240.359,57.921L240.255,57.18C239.851,57.804 239.097,58.077 238.357,58.077C237.681,58.077 237.123,57.843 236.707,57.505C235.9,56.842 235.509,55.828 235.509,54.554C235.509,53.228 235.914,52.201 236.718,51.538C237.134,51.199 237.681,50.991 238.371,50.991C239.228,50.991 239.851,51.277 240.138,51.629L240.138,48.534L241.763,48.534L241.763,57.921L240.359,57.921" style="fill:rgb(17,10,20);fill-rule:nonzero;"/>
    </g>
    <g transform="matrix(4.16667,0,0,4.16667,-64.8917,67.975)">
        <path d="M247.634,50.368C247.414,50.134 247.05,49.938 246.607,49.938C246.166,49.938 245.802,50.134 245.582,50.368C245.191,50.797 245.099,51.433 245.099,52.071C245.099,52.708 245.191,53.345 245.582,53.774C245.802,54.008 246.166,54.203 246.607,54.203C247.05,54.203 247.414,54.008 247.634,53.774C248.025,53.345 248.117,52.708 248.117,52.071C248.117,51.433 248.025,50.797 247.634,50.368ZM248.974,54.567C248.505,55.14 247.634,55.62 246.607,55.62C245.582,55.62 244.71,55.14 244.242,54.567C243.734,53.93 243.449,53.215 243.449,52.071C243.449,50.927 243.734,50.212 244.242,49.575C244.71,49.003 245.582,48.521 246.607,48.521C247.634,48.521 248.505,49.003 248.974,49.575C249.48,50.212 249.767,50.927 249.767,52.071C249.767,53.215 249.48,53.93 248.974,54.567" style="fill:rgb(17,10,20);fill-rule:nonzero;"/>
    </g>
    <g transform="matrix(4.16667,0,0,4.16667,-64.8917,67.5958)">
        <path d="M254.832,50.225C253.689,50.225 253.089,51.044 253.089,52.136L253.089,55.542L251.453,55.542L251.453,48.781L252.83,48.781L252.974,49.796C253.285,49.016 254.091,48.69 254.884,48.69C255.054,48.69 255.222,48.704 255.392,48.73L255.392,50.29C255.208,50.251 255.015,50.225 254.832,50.225" style="fill:rgb(17,10,20);fill-rule:nonzero;"/>
    </g>
    <g transform="matrix(4.16667,0,0,4.16667,-64.8917,56.3875)">
        <path d="M259.97,50.029C259.384,50.029 259.085,50.367 259.085,50.848L259.085,51.471L260.892,51.471L260.892,52.811L259.085,52.811L259.085,58.232L257.46,58.232L257.46,52.811L256.316,52.811L256.316,51.471L257.46,51.471L257.46,50.822C257.46,49.574 258.306,48.69 259.761,48.69C260.23,48.69 260.529,48.729 261.037,48.833L261.037,50.132C260.699,50.068 260.398,50.029 259.97,50.029" style="fill:rgb(17,10,20);fill-rule:nonzero;"/>
    </g>
</svg>
