<svg clip-rule="evenodd" fill-rule="evenodd" stroke-linejoin="round" stroke-miterlimit="2" viewBox="0 0 3714 903" xmlns="http://www.w3.org/2000/svg"><g fill-rule="nonzero" transform="matrix(4.16667 0 0 4.16667 -557.908 -478.046)"><g fill="#0a71b9"><path d="m629.889 162.961v75.452c0 44.975-33.695 75.451-75.257 75.451-41.564 0-75.258-30.476-75.258-75.451v-75.452h38.136c0 13.715.003 69.367.003 72.17 0 23.317 16.619 39.262 37.119 39.262 20.501 0 37.12-15.945 37.12-39.262v-72.17z"/><path d="m172.037 309.97h-38.139v-195.239h38.136v53.498c10.961-5.892 23.611-9.159 37.122-9.159 41.562 0 75.257 30.476 75.257 75.452v75.448h-38.137v-72.17c0-23.314-16.619-39.259-37.12-39.259-20.5 0-37.119 15.945-37.119 39.259z"/><path d="m345.407 309.97h-38.136v-195.239h38.136v53.498c10.961-5.892 23.61-9.159 37.122-9.159 41.562 0 75.256 30.476 75.256 75.452v75.448h-38.136v-72.17c0-23.314-16.62-39.259-37.12-39.259s-37.12 15.945-37.12 39.259z"/><path d="m962.738 331.352h34.733c15.239 0 27.599-12.324 27.599-27.526 0-15.206-12.36-27.531-27.599-27.531h-34.733z"/></g><path d="m711.402 286.041c-.801-2.044-1.95-3.739-3.449-5.08-1.495-1.339-3.311-2.345-5.45-3.015-2.139-.669-4.524-1.005-7.162-1.005-1.104 0-1.978.009-2.617.024-.643.019-1.231.036-1.765.055-.535.019-1.123.034-1.764.052-.642.018-1.513.046-2.619.08v33.018c1.032 0 2.306.019 3.822.055 1.512.034 3.145.053 4.89.053 1.78 0 3.688-.23 5.719-.689 2.029-.458 3.902-1.304 5.612-2.54 1.709-1.235 3.135-2.963 4.275-5.184 1.139-2.223 1.711-5.099 1.711-8.627 0-2.751-.402-5.151-1.203-7.197zm-4.57 14.289c-.677 1.834-1.603 3.28-2.778 4.338-1.176 1.058-2.532 1.791-4.062 2.195-1.532.407-3.153.611-4.865.611-.676 0-1.355-.018-2.031-.055-.677-.034-1.424-.104-2.243-.211v-27.516c.603-.036 1.218-.055 1.843-.055h1.791c4.667 0 8.062 1.158 10.182 3.467 2.118 2.311 3.178 5.726 3.178 10.24 0 2.822-.338 5.152-1.015 6.986zm13.308-13.389v14.605c0 1.236.054 2.416.161 3.546.106 1.129.427 2.116.963 2.963.533.847 1.343 1.526 2.43 2.036 1.086.511 2.593.768 4.516.768 1.213 0 2.272-.184 3.181-.554.908-.373 1.672-.804 2.297-1.297.625-.495 1.115-.987 1.471-1.482.354-.495.622-.864.801-1.112l.534 4.022 4.009-.369c-.036-.178-.079-.486-.134-.927-.053-.44-.106-.935-.159-1.482-.055-.547-.1-1.128-.134-1.746-.036-.618-.055-1.192-.055-1.721v-17.25h-4.167v13.018c0 1.059-.17 2.064-.509 3.015-.338.954-.801 1.782-1.389 2.488s-1.283 1.263-2.084 1.666c-.802.408-1.684.609-2.647.609-1.067 0-1.932-.131-2.59-.397-.661-.263-1.16-.661-1.498-1.189-.339-.529-.562-1.184-.668-1.96-.107-.774-.161-1.657-.161-2.645v-14.605zm16.594-9.657c-.481-.477-1.06-.716-1.736-.716-.713 0-1.301.239-1.764.716-.463.476-.695 1.032-.695 1.666 0 .635.232 1.191.695 1.668s1.051.713 1.764.713c.676 0 1.255-.236 1.736-.713.482-.477.722-1.033.722-1.668 0-.634-.24-1.19-.722-1.666zm-9.859 0c-.465-.477-1.053-.716-1.764-.716-.678 0-1.257.239-1.739.716-.478.476-.72 1.032-.72 1.666 0 .635.242 1.191.72 1.668.482.477 1.061.713 1.739.713.711 0 1.299-.236 1.764-.713.461-.477.695-1.033.695-1.668 0-.634-.234-1.19-.695-1.666zm36.315 23.284c-.447-.794-1.014-1.473-1.711-2.038-.695-.564-1.451-1.006-2.27-1.324-.819-.316-1.621-.582-2.406-.792-1.46-.388-2.645-.935-3.553-1.641s-1.364-1.657-1.364-2.858c0-.917.401-1.685 1.203-2.302.801-.615 1.825-.927 3.073-.927 1.317 0 2.343.248 3.074.742.729.495 1.363 1.006 1.896 1.535l2.031-2.592c-.569-.496-1.398-.972-2.485-1.43-1.088-.459-2.538-.689-4.355-.689-1.105 0-2.156.134-3.153.398-.998.265-1.882.66-2.647 1.191-.767.53-1.379 1.199-1.843 2.01-.463.813-.695 1.748-.695 2.806 0 1.235.213 2.265.641 3.093.429.832.98 1.52 1.656 2.064.677.55 1.408.973 2.192 1.271.785.3 1.532.557 2.245.768 1.496.422 2.699.944 3.607 1.562.91.618 1.364 1.648 1.364 3.094 0 1.235-.366 2.179-1.096 2.831-.732.654-1.774.981-3.126.981-.713 0-1.383-.116-2.005-.345-.624-.229-1.203-.52-1.736-.874-.537-.353-1.008-.713-1.417-1.083-.411-.373-.74-.716-.99-1.033l-2.029 3.228c2.245 1.764 4.951 2.645 8.122 2.645 1.176 0 2.281-.159 3.315-.475 1.033-.317 1.924-.785 2.671-1.403.749-.617 1.344-1.385 1.791-2.302.446-.917.668-1.974.668-3.176 0-1.165-.222-2.142-.668-2.935zm22.074 0c-.448-.794-1.016-1.473-1.71-2.038-.697-.564-1.453-1.006-2.273-1.324-.819-.316-1.621-.582-2.404-.792-1.462-.388-2.647-.935-3.555-1.641s-1.362-1.657-1.362-2.858c0-.917.399-1.685 1.201-2.302.802-.615 1.825-.927 3.074-.927 1.317 0 2.343.248 3.074.742.728.495 1.362 1.006 1.895 1.535l2.032-2.592c-.57-.496-1.398-.972-2.486-1.43-1.087-.459-2.538-.689-4.354-.689-1.105 0-2.157.134-3.153.398-.999.265-1.88.66-2.647 1.191-.768.53-1.38 1.199-1.843 2.01-.464.813-.695 1.748-.695 2.806 0 1.235.213 2.265.64 3.093.429.832.981 1.52 1.657 2.064.677.55 1.408.973 2.193 1.271.783.3 1.53.557 2.243.768 1.498.422 2.699.944 3.607 1.562.911.618 1.365 1.648 1.365 3.094 0 1.235-.366 2.179-1.097 2.831-.73.654-1.772.981-3.126.981-.713 0-1.382-.116-2.004-.345-.625-.229-1.203-.52-1.737-.874-.535-.353-1.008-.713-1.416-1.083-.411-.373-.74-.716-.99-1.033l-2.03 3.228c2.245 1.764 4.951 2.645 8.122 2.645 1.177 0 2.283-.159 3.315-.475 1.033-.317 1.926-.785 2.673-1.403.749-.617 1.343-1.385 1.791-2.302.444-.917.667-1.974.667-3.176 0-1.165-.223-2.142-.667-2.935zm26.694-1.298v-2.327c0-1.306-.152-2.602-.454-3.889-.302-1.29-.811-2.436-1.524-3.441-.712-1.004-1.666-1.817-2.858-2.434-1.193-.618-2.699-.927-4.518-.927-1.495 0-2.893.3-4.194.902-1.301.599-2.431 1.437-3.394 2.512-.962 1.077-1.719 2.364-2.27 3.863-.555 1.5-.829 3.167-.829 5.001 0 4.056.942 7.126 2.833 9.207 1.887 2.082 4.684 3.122 8.391 3.122 1.922 0 3.616-.389 5.076-1.162 1.462-.777 2.833-1.907 4.115-3.388l-1.656-1.693c-1.567 1.376-2.913 2.274-4.034 2.699-1.124.422-2.219.634-3.288.634-2.352 0-4.116-.749-5.291-2.248-1.176-1.5-1.834-3.644-1.978-6.431zm-5.53-8.518c.908 1.269 1.362 2.962 1.362 5.079v.793h-11.599c.144-1.023.394-2.001.749-2.937.357-.933.811-1.764 1.363-2.485.551-.725 1.213-1.296 1.977-1.721.768-.423 1.63-.636 2.593-.636 1.459 0 2.645.636 3.555 1.907zm17.503-16.88h-4.223v36.301h4.223zm24.526 29.368c-.535 1.269-1.185 2.248-1.952 2.935-.765.688-1.567 1.149-2.404 1.378-.838.23-1.541.343-2.112.343-1.069 0-1.995-.238-2.778-.715-.785-.474-1.435-1.138-1.952-1.984-.516-.847-.9-1.853-1.149-3.015-.25-1.164-.375-2.418-.375-3.757 0-1.378.161-2.637.482-3.784.322-1.146.776-2.125 1.364-2.937.588-.811 1.289-1.438 2.111-1.878.818-.441 1.709-.663 2.672-.663.926 0 1.807.168 2.645.503.838.337 1.568.873 2.19 1.615.625.74 1.124 1.676 1.499 2.803.372 1.131.561 2.489.561 4.076 0 2.115-.269 3.809-.802 5.08zm1.069 7.196 4.007-.369c-.036-.178-.079-.486-.134-.927-.052-.44-.106-.935-.159-1.482-.054-.547-.099-1.128-.134-1.746-.036-.618-.054-1.192-.054-1.721v-30.319h-3.848v16.403c-.569-1.094-1.487-2.038-2.751-2.83-1.265-.795-2.754-1.193-4.464-1.193-1.462 0-2.833.266-4.115.795-1.283.529-2.404 1.315-3.367 2.354-.962 1.042-1.73 2.347-2.297 3.916-.572 1.571-.856 3.379-.856 5.424 0 1.659.205 3.221.615 4.683.409 1.464 1.033 2.751 1.871 3.864.835 1.11 1.904 1.984 3.205 2.62 1.301.635 2.843.951 4.625.951 1.14 0 2.127-.159 2.965-.475.837-.317 1.55-.706 2.137-1.165.588-.458 1.061-.944 1.417-1.455.357-.511.623-.96.801-1.35zm32.708-17.012c-.499-1.501-1.23-2.779-2.192-3.837-.961-1.057-2.164-1.88-3.607-2.461-1.442-.583-3.092-.874-4.945-.874-1.852 0-3.491.291-4.917.874-1.424.581-2.627 1.404-3.607 2.461-.981 1.058-1.719 2.336-2.218 3.837-.5 1.498-.747 3.167-.747 5.001 0 1.905.293 3.623.881 5.157.588 1.536 1.398 2.84 2.431 3.916 1.033 1.077 2.254 1.906 3.662 2.489 1.407.581 2.913.872 4.515.872 1.605 0 3.111-.291 4.518-.872 1.407-.583 2.626-1.412 3.661-2.489 1.033-1.076 1.844-2.38 2.432-3.916.587-1.534.88-3.252.88-5.157 0-1.834-.25-3.503-.747-5.001zm-5.587 11.773c-1.227 1.73-2.948 2.593-5.157 2.593s-3.927-.863-5.155-2.593c-1.231-1.728-1.846-4.021-1.846-6.878 0-2.822.606-5.081 1.819-6.775 1.21-1.693 2.939-2.54 5.182-2.54 2.245 0 3.973.847 5.185 2.54 1.213 1.694 1.818 3.953 1.818 6.775 0 2.857-.615 5.15-1.846 6.878zm13.281 4.973h3.957v-11.164c0-.776.025-1.552.08-2.329.054-.774.168-1.516.347-2.222.393-1.447.969-2.654 1.737-3.623.764-.972 1.63-1.456 2.592-1.456 1.603 0 2.459.866 2.565 2.593l3.474-1.217c-.034-.776-.196-1.446-.482-2.011-.284-.566-.64-1.015-1.067-1.351-.429-.334-.901-.581-1.416-.74-.518-.159-1.008-.238-1.471-.238-1.39 0-2.601.387-3.635 1.164-1.033.777-1.904 1.819-2.618 3.122l-.535-4.021-4.007.37c.034.177.079.486.132.926.055.441.108.944.161 1.508.055.565.098 1.146.134 1.745.034.603.052 1.165.052 1.694zm37.506-35.452c-.466-.284-1.186-.538-2.166-.767-.981-.23-2.041-.345-3.181-.345-1.568 0-2.974.283-4.223.847-1.246.565-2.315 1.534-3.205 2.91-.679 1.023-1.088 2.142-1.23 3.359-.143 1.217-.214 2.357-.214 3.415v2.804h-4.222v2.646h4.222v20.583h4.01v-20.583h6.467v-2.646h-6.467v-2.646c0-.882.034-1.815.106-2.805.07-.988.25-1.877.533-2.672.286-.792.704-1.455 1.258-1.985.552-.528 1.326-.793 2.325-.793 1.032 0 1.922.176 2.672.528.749.354 1.371.724 1.87 1.112z"/><path d="m711.944 219.717h-4.127v20.32c0 2.188-.22 3.977-.663 5.371-.44 1.394-1.049 2.497-1.825 3.307-.776.814-1.684 1.367-2.725 1.667-1.041.299-2.161.45-3.359.45-1.237 0-2.374-.151-3.414-.45-1.04-.3-1.941-.853-2.699-1.667-.759-.81-1.358-1.913-1.798-3.307-.443-1.394-.663-3.183-.663-5.371v-20.32h-4.286v20.69c0 4.869 1.076 8.327 3.228 10.372 2.152 2.046 5.362 3.069 9.632 3.069 4.268 0 7.45-1.023 9.551-3.069 2.098-2.045 3.148-5.503 3.148-10.372zm28.47 33.019v-14.604c0-1.235-.055-2.415-.159-3.546-.107-1.128-.424-2.116-.953-2.963-.53-.846-1.333-1.525-2.408-2.038-1.077-.51-2.566-.767-4.471-.767-1.2 0-2.249.186-3.149.556-.898.37-1.659.803-2.276 1.296-.618.495-1.11.988-1.48 1.483-.371.495-.627.865-.768 1.11l-.528-4.02-3.971.37c.036.177.079.485.134.926.052.44.104.944.159 1.507.052.565.095 1.147.132 1.745.033.602.052 1.166.052 1.694v17.251h4.126v-13.017c0-1.057.168-2.063.504-3.014.334-.955.793-1.783 1.376-2.489.581-.706 1.269-1.259 2.064-1.666.795-.406 1.666-.608 2.62-.608 1.058 0 1.913.132 2.564.394.655.266 1.147.663 1.483 1.193.336.528.556 1.182.661 1.956.106.776.159 1.66.159 2.647v14.604zm12.401-34.474c-.528-.548-1.145-.82-1.851-.82-.74 0-1.376.272-1.905.82-.529.547-.792 1.174-.792 1.877 0 .708.263 1.323.792 1.853.529.528 1.165.794 1.905.794.706 0 1.323-.266 1.851-.794.53-.53.795-1.145.795-1.853 0-.703-.265-1.33-.795-1.877zm.212 11.243h-4.234v23.231h4.234zm10.345 0h-4.55l9.472 23.707h3.335l9.682-23.707h-3.809l-6.139 16.3c-.599 1.623-.935 2.84-1.006 3.651-.07-.388-.176-.899-.318-1.535-.141-.633-.388-1.41-.739-2.327zm40.799 12.332v-2.329c0-1.305-.15-2.601-.449-3.888-.3-1.288-.804-2.437-1.508-3.44-.706-1.006-1.651-1.818-2.833-2.436-1.181-.616-2.672-.926-4.47-.926-1.482 0-2.867.302-4.154.901-1.289.6-2.408 1.437-3.36 2.513-.954 1.076-1.703 2.363-2.25 3.861-.546 1.501-.819 3.167-.819 5.002 0 4.057.933 7.126 2.804 9.207 1.87 2.082 4.638 3.122 8.308 3.122 1.905 0 3.581-.388 5.026-1.163 1.446-.776 2.806-1.906 4.075-3.387l-1.639-1.693c-1.552 1.376-2.885 2.275-3.996 2.699-1.112.422-2.197.633-3.255.633-2.329 0-4.075-.749-5.239-2.247-1.163-1.501-1.816-3.643-1.957-6.429zm-5.478-8.52c.902 1.269 1.351 2.963 1.351 5.079v.794h-11.482c.138-1.022.385-2.002.74-2.938.351-.932.801-1.761 1.348-2.485.547-.725 1.199-1.297 1.959-1.721.758-.423 1.615-.633 2.566-.633 1.446 0 2.619.633 3.518 1.904zm12.781 19.419h3.914v-11.164c0-.777.027-1.553.08-2.329.053-.775.168-1.517.345-2.223.387-1.446.959-2.654 1.72-3.623.756-.972 1.612-1.455 2.566-1.455 1.587 0 2.433.864 2.54 2.592l3.439-1.217c-.036-.777-.195-1.445-.476-2.011-.283-.563-.634-1.015-1.059-1.35-.422-.334-.892-.582-1.402-.741-.511-.159-.997-.238-1.455-.238-1.376 0-2.575.388-3.599 1.164s-1.887 1.818-2.593 3.122l-.528-4.02-3.969.37c.034.177.08.485.132.926.053.44.106.944.159 1.507.052.565.098 1.147.132 1.745.036.602.054 1.166.054 1.694zm34.05-9.603c-.44-.795-1.003-1.473-1.691-2.038-.688-.563-1.439-1.006-2.25-1.321-.812-.318-1.605-.584-2.382-.795-1.445-.388-2.619-.936-3.518-1.642-.899-.703-1.351-1.657-1.351-2.857 0-.915.397-1.683 1.192-2.3.794-.618 1.807-.927 3.042-.927 1.305 0 2.32.245 3.044.741.722.495 1.349 1.005 1.877 1.535l2.012-2.593c-.565-.495-1.385-.972-2.461-1.431-1.076-.456-2.513-.687-4.313-.687-1.094 0-2.134.134-3.121.397-.988.266-1.862.663-2.621 1.192-.757.529-1.366 1.199-1.825 2.009-.458.813-.687 1.748-.687 2.806 0 1.235.211 2.268.633 3.094.424.831.972 1.518 1.641 2.066.67.547 1.395.969 2.171 1.269.773.3 1.516.556 2.222.767 1.482.422 2.672.945 3.571 1.562.901.617 1.351 1.648 1.351 3.095 0 1.234-.364 2.178-1.085 2.83-.725.654-1.755.981-3.097.981-.706 0-1.366-.116-1.984-.346-.618-.228-1.19-.519-1.721-.874-.528-.351-.996-.712-1.401-1.083-.406-.372-.733-.714-.978-1.032l-2.011 3.228c2.222 1.764 4.904 2.645 8.043 2.645 1.164 0 2.256-.157 3.28-.474 1.024-.319 1.905-.786 2.647-1.404.74-.617 1.331-1.384 1.771-2.301.443-.917.663-1.975.663-3.176 0-1.162-.22-2.144-.663-2.936zm12.463-24.871c-.529-.548-1.146-.82-1.852-.82-.74 0-1.376.272-1.905.82-.529.547-.794 1.174-.794 1.877 0 .708.265 1.323.794 1.853.529.528 1.165.794 1.905.794.706 0 1.323-.266 1.852-.794.529-.53.792-1.145.792-1.853 0-.703-.263-1.33-.792-1.877zm.211 11.243h-4.233v23.231h4.233zm20.479 20.321c-.494.247-.945.433-1.351.556-.406.124-.855.186-1.348.186-.284 0-.618-.055-1.005-.159-.389-.107-.689-.247-.9-.424-.495-.386-.785-.863-.874-1.428-.089-.563-.132-1.446-.132-2.647v-13.757h5.503v-2.648h-5.503v-6.826l-4.022.954v5.872h-3.916v2.648h3.916v14.129c0 1.199.045 2.231.134 3.094.086.865.361 1.598.819 2.198.493.67 1.138 1.146 1.933 1.427.792.282 1.63.423 2.512.423.917 0 1.826-.141 2.725-.423.9-.281 1.668-.669 2.302-1.164zm28.152-20.321h-3.757c-.565 1.449-1.158 2.948-1.773 4.5-.617 1.553-1.244 3.094-1.88 4.629-.635 1.534-1.269 3.053-1.904 4.551-.636 1.501-1.253 2.901-1.853 4.207l-7.355-17.887h-4.551l9.843 22.384c-1.164 2.4-2.338 4.65-3.519 6.749-1.183 2.099-2.372 3.993-3.571 5.687l4.02 1.641z"/><path d="m690.739 195.757v-15.769h16.159v15.769h4.211v-33.02h-4.211v14.341h-16.159v-14.341h-4.211v33.02zm47.318-10.902v-2.327c0-1.305-.149-2.601-.447-3.89-.298-1.287-.797-2.434-1.5-3.44-.702-1.006-1.641-1.816-2.815-2.433-1.177-.618-2.658-.927-4.448-.927-1.475 0-2.853.3-4.133.899-1.28.602-2.394 1.44-3.342 2.513-.946 1.079-1.693 2.366-2.237 3.864-.545 1.501-.816 3.167-.816 5.001 0 4.057.931 7.126 2.791 9.208 1.859 2.082 4.614 3.121 8.262 3.121 1.895 0 3.562-.388 5.002-1.164 1.439-.774 2.789-1.905 4.054-3.387l-1.633-1.694c-1.545 1.378-2.868 2.277-3.975 2.699-1.104.425-2.183.636-3.238.636-2.314 0-4.051-.749-5.209-2.249-1.158-1.499-1.809-3.642-1.948-6.43zm-5.447-8.52c.895 1.272 1.342 2.965 1.342 5.081v.795h-11.422c.141-1.024.387-2.003.737-2.938.349-.935.799-1.764 1.343-2.488.542-.722 1.193-1.296 1.947-1.719.754-.424 1.605-.635 2.553-.635 1.439 0 2.606.635 3.5 1.904zm16.869-15.053c-.527-.547-1.141-.822-1.841-.822-.739 0-1.37.275-1.897.822-.526.547-.788 1.172-.788 1.878s.262 1.323.788 1.852c.527.529 1.158.795 1.897.795.7 0 1.314-.266 1.841-.795.526-.529.79-1.146.79-1.852s-.264-1.331-.79-1.878zm.211 11.244h-4.211v23.231h4.211zm28.317 23.231v-14.607c0-1.232-.052-2.415-.158-3.543-.104-1.129-.42-2.118-.947-2.965-.526-.847-1.325-1.525-2.395-2.036s-2.552-.768-4.448-.768c-1.193 0-2.236.184-3.132.556-.895.371-1.649.802-2.263 1.297-.614.494-1.104.987-1.475 1.48-.368.495-.623.865-.763 1.112l-.527-4.022-3.946.372c.033.175.079.484.131.924.054.442.105.944.158 1.509.054.566.097 1.147.133 1.746.034.6.052 1.165.052 1.694v17.251h4.105v-13.017c0-1.058.167-2.064.501-3.017.332-.954.788-1.78 1.368-2.489.578-.703 1.263-1.259 2.053-1.666.788-.404 1.657-.608 2.604-.608 1.054 0 1.904.131 2.553.397s1.141.661 1.475 1.19c.332.531.552 1.182.657 1.959.107.776.158 1.659.158 2.644v14.607zm7.926 0h3.894v-11.165c0-.777.027-1.552.079-2.329.055-.777.167-1.516.344-2.223.386-1.446.955-2.653 1.709-3.625.755-.969 1.605-1.455 2.554-1.455 1.579 0 2.421.865 2.527 2.592l3.421-1.217c-.036-.774-.194-1.445-.475-2.011-.279-.563-.632-1.013-1.051-1.348-.42-.334-.888-.582-1.396-.74-.508-.159-.991-.238-1.447-.238-1.369 0-2.561.388-3.579 1.164-1.019.776-1.877 1.816-2.579 3.121l-.527-4.022-3.946.372c.033.175.078.484.131.924.052.442.105.944.157 1.509.053.566.096 1.147.132 1.746.033.6.052 1.165.052 1.694zm23.671-34.475c-.527-.547-1.141-.822-1.843-.822-.736 0-1.368.275-1.895.822-.525.547-.79 1.172-.79 1.878s.265 1.323.79 1.852c.527.529 1.159.795 1.895.795.702 0 1.316-.266 1.843-.795.526-.529.79-1.146.79-1.852s-.264-1.331-.79-1.878zm.209 11.244h-4.21v23.231h4.21zm24.266 17.991c-1.299 1.235-2.421 2.057-3.369 2.461-.948.406-1.965.608-3.053.608-1.262 0-2.326-.245-3.184-.74-.861-.493-1.554-1.164-2.079-2.011-.527-.847-.904-1.816-1.132-2.91-.228-1.093-.343-2.223-.343-3.387 0-1.165.133-2.346.395-3.544.264-1.201.675-2.284 1.238-3.255.559-.97 1.28-1.764 2.158-2.382.876-.617 1.913-.926 3.104-.926 1.333 0 2.397.211 3.185.635.79.423 1.501.952 2.132 1.587l2-3.017c-1.019-.703-2.132-1.18-3.342-1.428-1.21-.245-2.395-.37-3.554-.37-1.789 0-3.412.309-4.869.927-1.456.617-2.684 1.48-3.682 2.592-1 1.113-1.773 2.433-2.317 3.968-.545 1.535-.815 3.222-.815 5.053 0 3.953.982 6.952 2.946 8.997 1.965 2.045 4.686 3.069 8.159 3.069.56 0 1.186-.061 1.869-.186.685-.122 1.375-.333 2.078-.633s1.395-.724 2.08-1.272c.684-.544 1.34-1.241 1.973-2.088zm11.216-31.062h-4.106v36.302h4.106v-13.017c0-1.058.167-2.064.499-3.017.334-.954.79-1.78 1.368-2.489.58-.703 1.265-1.259 2.055-1.666.788-.404 1.657-.608 2.603-.608 1.055 0 1.904.131 2.554.397.648.266 1.141.661 1.475 1.19.332.531.55 1.182.657 1.959.106.776.158 1.659.158 2.644v14.607h4.106v-14.607c0-1.232-.053-2.415-.159-3.543-.104-1.129-.42-2.118-.946-2.965s-1.325-1.525-2.395-2.036c-1.072-.511-2.555-.768-4.45-.768-1.192 0-2.228.178-3.104.529-.878.352-1.614.768-2.211 1.244-.596.477-1.079.961-1.447 1.455-.369.495-.623.866-.763 1.111zm44.003 36.302v-15.769h16.158v15.769h4.211v-33.02h-4.211v14.341h-16.158v-14.341h-4.212v33.02zm47.371-10.902v-2.327c0-1.305-.151-2.601-.446-3.89-.301-1.287-.8-2.434-1.502-3.44s-1.64-1.816-2.816-2.433c-1.176-.618-2.658-.927-4.446-.927-1.475 0-2.853.3-4.133.899-1.282.602-2.395 1.44-3.342 2.513-.948 1.079-1.693 2.366-2.237 3.864-.545 1.501-.815 3.167-.815 5.001 0 4.057.927 7.126 2.789 9.208 1.857 2.082 4.612 3.121 8.263 3.121 1.895 0 3.562-.388 5-1.164 1.439-.774 2.791-1.905 4.053-3.387l-1.632-1.694c-1.545 1.378-2.868 2.277-3.974 2.699-1.105.425-2.184.636-3.237.636-2.316 0-4.052-.749-5.211-2.249-1.158-1.499-1.806-3.642-1.946-6.43zm-5.448-8.52c.894 1.272 1.343 2.965 1.343 5.081v.795h-11.423c.139-1.024.385-2.003.738-2.938.35-.935.797-1.764 1.342-2.488.544-.722 1.191-1.296 1.948-1.719.754-.424 1.603-.635 2.552-.635 1.438 0 2.605.635 3.5 1.904zm16.495-15.053c-.527-.547-1.141-.822-1.843-.822-.736 0-1.368.275-1.894.822-.527.547-.789 1.172-.789 1.878s.262 1.323.789 1.852c.526.529 1.158.795 1.894.795.702 0 1.316-.266 1.843-.795.526-.529.79-1.146.79-1.852s-.264-1.331-.79-1.878zm.21 11.244h-4.211v23.231h4.211zm28.212 23.231v-14.607c0-1.232-.052-2.415-.156-3.543-.106-1.129-.422-2.118-.949-2.965-.525-.847-1.325-1.525-2.395-2.036-1.071-.511-2.552-.768-4.447-.768-1.194 0-2.237.184-3.131.556-.897.371-1.651.802-2.265 1.297-.614.494-1.105.987-1.472 1.48-.368.495-.624.865-.763 1.112l-.527-4.022-3.949.372c.036.175.079.484.134.924.052.442.103.944.157 1.509.053.566.095 1.147.131 1.746.034.6.053 1.165.053 1.694v17.251h4.104v-13.017c0-1.058.167-2.064.502-3.017.332-.954.788-1.78 1.368-2.489.578-.703 1.262-1.259 2.053-1.666.79-.404 1.657-.608 2.605-.608 1.053 0 1.904.131 2.552.397.651.266 1.141.661 1.475 1.19.332.531.553 1.182.657 1.959.105.776.158 1.659.158 2.644v14.607zm26.132-10.902v-2.327c0-1.305-.15-2.601-.45-3.89-.29-1.287-.79-2.434-1.5-3.44-.698-1.006-1.635-1.816-2.812-2.433-1.176-.618-2.657-.927-4.448-.927-1.472 0-2.85.3-4.13.899-1.283.602-2.396 1.44-3.344 2.513-.946 1.079-1.694 2.366-2.235 3.864-.545 1.501-.818 3.167-.818 5.001 0 4.057.93 7.126 2.79 9.208 1.859 2.082 4.614 3.121 8.263 3.121 1.896 0 3.563-.388 5.002-1.164 1.442-.774 2.792-1.905 4.052-3.387l-1.63-1.694c-1.546 1.378-2.869 2.277-3.976 2.699-1.104.425-2.183.636-3.236.636-2.317 0-4.053-.749-5.211-2.249-1.158-1.499-1.809-3.642-1.946-6.43zm-5.446-8.52c.894 1.272 1.341 2.965 1.341 5.081v.795h-11.421c.14-1.024.386-2.003.738-2.938.35-.935.797-1.764 1.341-2.488.545-.722 1.193-1.296 1.948-1.719.753-.424 1.605-.635 2.553-.635 1.439 0 2.606.635 3.5 1.904z"/></g></svg>