<svg xmlns="http://www.w3.org/2000/svg" width="216" height="40" viewBox="0 0 216 40" fill="none" id="Logo"> <g id="logomark"> <path d="M20 28.4356C16.5306 28.4357 13.3035 30.2166 11.4521 33.1512L9.1543 36.7934L10.0371 37.3511C10.3132 37.5101 10.5937 37.6622 10.8779 37.8082L13.1436 34.2188C14.6285 31.8648 17.2171 30.437 20 30.4369C22.783 30.4369 25.3714 31.8647 26.8564 34.2188L29.1211 37.8082C29.4053 37.6623 29.6858 37.5101 29.9619 37.3511L30.8457 36.7934L28.5479 33.1512C26.6964 30.2165 23.4695 28.4356 20 28.4356ZM20.123 36.4428L20 36.4379C19.3855 36.4381 18.8239 36.774 18.5312 37.3072L18.4766 37.4166L17.3691 39.834C18.0662 39.9256 18.7744 39.9821 19.4922 40L20 38.8914L20.5068 40C21.2249 39.9821 21.9335 39.9256 22.6309 39.834L21.5244 37.4166L21.4697 37.3072C21.1966 36.8096 20.689 36.4842 20.123 36.4428ZM21 12.4063V0H19V12.4063L15.7891 0.422921L13.8574 0.940585L17.0674 12.923L10.8662 2.18005L9.13379 3.18021L15.335 13.9222L6.56543 5.15124L5.15039 6.56651L13.9199 15.3375L3.17969 9.13529L2.17969 10.868L12.9209 17.0702L0.94043 13.8597L0.422852 15.7917L12.4053 19.0031H0V21.0035H12.4053L0.422852 24.2149L0.94043 26.1469L12.9209 22.9354L2.17969 29.1386L3.17969 30.8713L13.9199 24.6681L5.15039 33.4401L6.56543 34.8554L13.1216 28.2964C13.684 27.7337 14 26.9706 14 26.175V20.435C14 17.1209 16.6865 14.4342 20 14.434C23.3137 14.434 26 17.1208 26 20.435V26.1759C26 26.9716 26.316 27.7347 26.8785 28.2974L33.4346 34.8554L34.8496 33.4401L26.0801 24.6691L36.8203 30.8713L37.8203 29.1386L27.0791 22.9354L39.0596 26.1469L39.5771 24.2149L27.5957 21.0035H40V19.0031H27.5947L39.5771 15.7917L39.0596 13.8597L27.0791 17.0692L37.8203 10.868L36.8203 9.13529L26.0781 15.3375L34.8496 6.56554L33.4355 5.15124L24.6641 13.9232L30.8662 3.18021L29.1338 2.18005L22.9316 12.923L26.1426 0.940585L24.2109 0.422921L21 12.4063ZM20 32.4372C18.0122 32.4374 16.1792 33.5112 15.207 35.2453L13.2021 38.8201C13.8407 39.051 14.4942 39.2501 15.1611 39.4159L16.9512 36.224C17.5694 35.1209 18.7357 34.4377 20 34.4376C21.2645 34.4376 22.4305 35.1208 23.0488 36.224L24.8379 39.4159C25.5048 39.2502 26.1583 39.0509 26.7969 38.8201L24.793 35.2453C23.8208 33.5111 21.9879 32.4372 20 32.4372Z" fill="#FF2121"></path> </g> <g id="logotype"> <path d="M208.695 13.7151C210.09 13.7151 211.334 14.0029 212.428 14.5785C213.544 15.1541 214.412 16.0068 215.035 17.1366C215.678 18.2665 216 19.6308 216 21.2297V31.6221H212.364V21.7733C212.364 20.1957 211.967 18.9913 211.173 18.1599C210.379 17.3072 209.296 16.8808 207.923 16.8808C206.55 16.8808 205.456 17.3072 204.641 18.1599C203.847 18.9913 203.45 20.1957 203.45 21.7733V31.6221H199.814V21.7733C199.814 20.1957 199.417 18.9913 198.623 18.1599C197.829 17.3072 196.746 16.8808 195.373 16.8808C194 16.8808 192.906 17.3072 192.091 18.1599C191.297 18.9913 190.9 20.1957 190.9 21.7733V31.6221H187.232V14.0029H190.9V16.0174C191.501 15.2926 192.262 14.7277 193.185 14.3227C194.107 13.9176 195.094 13.7151 196.145 13.7151C197.561 13.7151 198.827 14.0136 199.942 14.6105C201.058 15.2074 201.916 16.0707 202.517 17.2006C203.053 16.1347 203.89 15.2926 205.027 14.6744C206.164 14.0349 207.387 13.7151 208.695 13.7151Z" fill="#540000"></path> <path d="M183.518 14.0029V31.622H179.849V29.5436C179.27 30.2684 178.509 30.8439 177.565 31.2703C176.642 31.6753 175.655 31.8779 174.604 31.8779C173.21 31.8779 171.955 31.5901 170.839 31.0145C169.745 30.4389 168.876 29.5862 168.233 28.4563C167.61 27.3265 167.299 25.9622 167.299 24.3633V14.0029H170.936V23.8197C170.936 25.3972 171.333 26.6124 172.126 27.4651C172.92 28.2965 174.003 28.7122 175.376 28.7122C176.749 28.7122 177.833 28.2965 178.627 27.4651C179.442 26.6124 179.849 25.3972 179.849 23.8197V14.0029H183.518Z" fill="#540000"></path> <path d="M157.833 31.9099C156.438 31.9099 155.183 31.6647 154.068 31.1744C152.974 30.6628 152.105 29.9806 151.461 29.1279C150.818 28.2539 150.474 27.2839 150.432 26.218H154.229C154.293 26.9641 154.647 27.593 155.291 28.1047C155.956 28.595 156.782 28.8401 157.768 28.8401C158.798 28.8401 159.592 28.6483 160.15 28.2645C160.729 27.8595 161.019 27.3479 161.019 26.7297C161.019 26.0688 160.697 25.5785 160.053 25.2587C159.431 24.939 158.433 24.5872 157.06 24.2035C155.73 23.8411 154.647 23.4893 153.81 23.1483C152.974 22.8072 152.244 22.2849 151.622 21.5814C151.021 20.8779 150.721 19.9506 150.721 18.7994C150.721 17.8614 151 17.0087 151.558 16.2413C152.116 15.4525 152.909 14.8343 153.939 14.3866C154.99 13.939 156.192 13.7151 157.543 13.7151C159.56 13.7151 161.179 14.2267 162.402 15.25C163.647 16.2519 164.312 17.6269 164.397 19.375H160.729C160.665 18.5862 160.343 17.9574 159.764 17.4884C159.184 17.0194 158.401 16.7849 157.414 16.7849C156.449 16.7849 155.709 16.9661 155.194 17.3285C154.679 17.6909 154.422 18.1705 154.422 18.7674C154.422 19.2364 154.593 19.6308 154.937 19.9506C155.28 20.2704 155.698 20.5262 156.192 20.718C156.685 20.8886 157.414 21.1124 158.38 21.3895C159.667 21.7306 160.718 22.0824 161.533 22.4448C162.37 22.7859 163.089 23.2975 163.689 23.9797C164.29 24.6618 164.601 25.5678 164.623 26.6977C164.623 27.6996 164.344 28.595 163.786 29.3837C163.228 30.1725 162.434 30.7907 161.405 31.2384C160.396 31.686 159.206 31.9099 157.833 31.9099Z" fill="#540000"></path> <path d="M134.382 16.593C135.005 15.783 135.852 15.1008 136.925 14.5465C137.997 13.9923 139.209 13.7151 140.561 13.7151C142.106 13.7151 143.511 14.0988 144.776 14.8663C146.064 15.6124 147.072 16.6676 147.801 18.032C148.531 19.3963 148.895 20.9632 148.895 22.7326C148.895 24.5019 148.531 26.0901 147.801 27.4971C147.072 28.8828 146.064 29.97 144.776 30.7587C143.511 31.5262 142.106 31.9099 140.561 31.9099C139.209 31.9099 138.008 31.6434 136.957 31.1105C135.906 30.5562 135.048 29.874 134.382 29.064V40H130.714V14.0029H134.382V16.593ZM145.163 22.7326C145.163 21.5174 144.905 20.4729 144.39 19.5988C143.897 18.7035 143.232 18.032 142.395 17.5843C141.58 17.1153 140.7 16.8808 139.756 16.8808C138.834 16.8808 137.954 17.1153 137.118 17.5843C136.303 18.0533 135.637 18.7355 135.123 19.6308C134.629 20.5262 134.382 21.5814 134.382 22.7965C134.382 24.0116 134.629 25.0775 135.123 25.9942C135.637 26.8895 136.303 27.5717 137.118 28.0407C137.954 28.5097 138.834 28.7442 139.756 28.7442C140.7 28.7442 141.58 28.5097 142.395 28.0407C143.232 27.5504 143.897 26.8469 144.39 25.9302C144.905 25.0136 145.163 23.9477 145.163 22.7326Z" fill="#540000"></path> <path d="M125.222 11.6686C124.557 11.6686 123.999 11.4448 123.549 10.9971C123.098 10.5494 122.873 9.99516 122.873 9.3343C122.873 8.67345 123.098 8.11919 123.549 7.67151C123.999 7.22384 124.557 7 125.222 7C125.866 7 126.413 7.22384 126.863 7.67151C127.314 8.11919 127.539 8.67345 127.539 9.3343C127.539 9.99516 127.314 10.5494 126.863 10.9971C126.413 11.4448 125.866 11.6686 125.222 11.6686ZM127.024 14.0029V31.6221H123.356V14.0029H127.024Z" fill="#540000"></path> <path d="M111.652 31.9099C109.979 31.9099 108.466 31.5368 107.115 30.7907C105.763 30.0233 104.701 28.9574 103.929 27.593C103.157 26.2074 102.771 24.6085 102.771 22.7965C102.771 21.0058 103.167 19.4176 103.961 18.032C104.755 16.6463 105.838 15.5804 107.211 14.8343C108.584 14.0882 110.118 13.7151 111.813 13.7151C113.508 13.7151 115.042 14.0882 116.415 14.8343C117.788 15.5804 118.871 16.6463 119.665 18.032C120.459 19.4176 120.855 21.0058 120.855 22.7965C120.855 24.5872 120.448 26.1754 119.633 27.561C118.817 28.9467 117.702 30.0233 116.286 30.7907C114.892 31.5368 113.347 31.9099 111.652 31.9099ZM111.652 28.7442C112.596 28.7442 113.476 28.5204 114.291 28.0727C115.128 27.625 115.803 26.9535 116.318 26.0581C116.833 25.1628 117.09 24.0756 117.09 22.7965C117.09 21.5174 116.844 20.4409 116.35 19.5669C115.857 18.6715 115.203 18 114.387 17.5523C113.572 17.1047 112.693 16.8808 111.749 16.8808C110.805 16.8808 109.925 17.1047 109.11 17.5523C108.316 18 107.683 18.6715 107.211 19.5669C106.739 20.4409 106.503 21.5174 106.503 22.7965C106.503 24.6938 106.986 26.1647 107.952 27.2093C108.938 28.2326 110.172 28.7442 111.652 28.7442Z" fill="#540000"></path> <path d="M92.2577 31.9099C90.5843 31.9099 89.0719 31.5368 87.7204 30.7907C86.3688 30.0233 85.3069 28.9574 84.5346 27.593C83.7623 26.2074 83.3762 24.6085 83.3762 22.7965C83.3762 21.0058 83.773 19.4176 84.5668 18.032C85.3605 16.6463 86.4439 15.5804 87.8169 14.8343C89.1899 14.0882 90.7238 13.7151 92.4186 13.7151C94.1134 13.7151 95.6472 14.0882 97.0202 14.8343C98.3932 15.5804 99.4766 16.6463 100.27 18.032C101.064 19.4176 101.461 21.0058 101.461 22.7965C101.461 24.5872 101.053 26.1754 100.238 27.561C99.423 28.9467 98.3074 30.0233 96.8915 30.7907C95.4971 31.5368 93.9525 31.9099 92.2577 31.9099ZM92.2577 28.7442C93.2016 28.7442 94.0812 28.5204 94.8964 28.0727C95.7331 27.625 96.4088 26.9535 96.9237 26.0581C97.4386 25.1628 97.696 24.0756 97.696 22.7965C97.696 21.5174 97.4493 20.4409 96.9559 19.5669C96.4625 18.6715 95.8081 18 94.9929 17.5523C94.1777 17.1047 93.2981 16.8808 92.3542 16.8808C91.4103 16.8808 90.5307 17.1047 89.7155 17.5523C88.9217 18 88.2889 18.6715 87.8169 19.5669C87.3449 20.4409 87.109 21.5174 87.109 22.7965C87.109 24.6938 87.5917 26.1647 88.557 27.2093C89.5439 28.2326 90.7774 28.7442 92.2577 28.7442Z" fill="#540000"></path> <path d="M72.8632 31.9099C71.1899 31.9099 69.6774 31.5368 68.3259 30.7907C66.9744 30.0233 65.9124 28.9574 65.1401 27.593C64.3678 26.2074 63.9817 24.6085 63.9817 22.7965C63.9817 21.0058 64.3786 19.4176 65.1723 18.032C65.9661 16.6463 67.0494 15.5804 68.4224 14.8343C69.7954 14.0882 71.3293 13.7151 73.0241 13.7151C74.7189 13.7151 76.2528 14.0882 77.6258 14.8343C78.9987 15.5804 80.0821 16.6463 80.8759 18.032C81.6696 19.4176 82.0665 21.0058 82.0665 22.7965C82.0665 24.5872 81.6589 26.1754 80.8437 27.561C80.0285 28.9467 78.9129 30.0233 77.497 30.7907C76.1026 31.5368 74.558 31.9099 72.8632 31.9099ZM72.8632 28.7442C73.8071 28.7442 74.6867 28.5204 75.5019 28.0727C76.3386 27.625 77.0144 26.9535 77.5292 26.0581C78.0441 25.1628 78.3015 24.0756 78.3015 22.7965C78.3015 21.5174 78.0548 20.4409 77.5614 19.5669C77.068 18.6715 76.4137 18 75.5985 17.5523C74.7832 17.1047 73.9037 16.8808 72.9597 16.8808C72.0158 16.8808 71.1362 17.1047 70.321 17.5523C69.5273 18 68.8944 18.6715 68.4224 19.5669C67.9505 20.4409 67.7145 21.5174 67.7145 22.7965C67.7145 24.6938 68.1972 26.1647 69.1626 27.2093C70.1494 28.2326 71.3829 28.7442 72.8632 28.7442Z" fill="#540000"></path> <path d="M55.6685 28.6802H63.2306V31.6221H52V9.39824H55.6685V28.6802Z" fill="#540000"></path> <path d="M83.3075 32.3982C83.4813 33.4945 83.8223 34.4985 84.3304 35.4102C85.1027 36.7745 86.1647 37.8404 87.5162 38.6079C88.8677 39.354 90.3802 39.7271 92.0535 39.7271C93.7483 39.7271 95.2929 39.354 96.6873 38.6079C98.1032 37.8404 99.2188 36.7639 100.034 35.3782C100.567 34.4716 100.926 33.4783 101.111 32.3982H97.2964C97.1677 32.938 96.9754 33.4303 96.7195 33.8753C96.2046 34.7707 95.5289 35.4422 94.6922 35.8899C93.877 36.3375 92.9974 36.5614 92.0535 36.5614C90.5732 36.5614 89.3397 36.0497 88.3529 35.0265C87.7151 34.3364 87.2881 33.4604 87.0716 32.3982H83.3075Z" fill="#540000"></path> </g> </svg>