<svg xmlns="http://www.w3.org/2000/svg" width="272" height="41" viewBox="0 0 272 41" fill="none" id="Logo"> <g id="logomark"> <path d="M27.8314 1.6478C25.8494 0.989846 23.7296 0.633728 21.5267 0.633728C18.076 0.633728 14.8293 1.50771 11.9961 3.04623C12.5571 3.22523 13.1008 3.44313 13.6237 3.69697C16.024 2.57496 18.7022 1.94838 21.5267 1.94838C23.2041 1.94838 24.8298 2.16943 26.3765 2.5839C26.8319 2.23186 27.3185 1.91826 27.8314 1.6478Z" fill="#283841"></path> <path d="M25.3515 3.49285C24.1204 3.21925 22.8404 3.07507 21.5267 3.07507C19.1659 3.07507 16.9139 3.54101 14.8577 4.38581C15.2999 4.66709 15.7232 4.97567 16.1248 5.30936C17.8149 4.71369 19.633 4.38957 21.5267 4.38957C22.5001 4.38957 23.4536 4.47523 24.38 4.63932C24.6751 4.23316 25.0001 3.8499 25.3515 3.49285Z" fill="#283841"></path> <path d="M23.7201 5.67428C23.0039 5.57027 22.2716 5.5163 21.5266 5.5163C19.9761 5.5163 18.4803 5.74974 17.0721 6.1832C17.4104 6.52928 17.7284 6.89528 18.0242 7.27901C19.1426 6.98643 20.3164 6.8308 21.5266 6.8308C22.071 6.8308 22.608 6.86233 23.136 6.92367C23.3025 6.4921 23.4981 6.0748 23.7201 5.67428Z" fill="#283841"></path> <path d="M22.7844 8.01929C22.3707 7.9785 21.951 7.95764 21.5267 7.95764C20.5601 7.95764 19.619 8.06573 18.7144 8.27061C18.957 8.65811 19.1786 9.06019 19.3779 9.47498C20.0736 9.34179 20.792 9.27214 21.5267 9.27214C21.8679 9.27214 22.2058 9.2872 22.5393 9.31669C22.593 8.87476 22.6753 8.44161 22.7844 8.01929Z" fill="#283841"></path> <path d="M22.466 10.4416C22.1566 10.4133 21.8433 10.399 21.5266 10.399C20.948 10.399 20.3807 10.447 19.8282 10.5393C19.9807 10.9525 20.1115 11.3761 20.2196 11.8086C20.6462 11.746 21.0824 11.7135 21.5264 11.7135C21.8436 11.7135 22.1568 11.73 22.4653 11.7623V10.5398C22.4655 10.507 22.4657 10.4742 22.466 10.4416Z" fill="#283841"></path> <path d="M22.4656 12.8963C22.1578 12.8592 21.8443 12.8402 21.5267 12.8402C21.1589 12.8402 20.797 12.8657 20.4429 12.9149C20.5091 13.3445 20.5532 13.7814 20.5741 14.2242C20.885 14.1784 21.2032 14.1546 21.5268 14.1546C21.8458 14.1546 22.1592 14.1776 22.4657 14.2222L22.4656 12.8963Z" fill="#283841"></path> <path d="M22.4655 15.3637C22.1606 15.3097 21.8469 15.2816 21.5265 15.2816C21.2062 15.2816 20.8924 15.3097 20.5876 15.3637V16.7059C20.889 16.6341 21.2034 16.5961 21.5265 16.5961C21.8497 16.5961 22.1643 16.6341 22.4655 16.7059V15.3637Z" fill="#283841"></path> <path fill-rule="evenodd" clip-rule="evenodd" d="M41.526 20.4929L41.5266 4.85901C43.2379 4.85901 44.6252 3.47172 44.6252 1.76047V1.15021H32.5132C27.3276 1.15021 23.1237 5.35396 23.1237 10.5398V20.1642L23.1229 20.6337C23.1229 21.5154 22.4083 22.23 21.5267 22.23C20.645 22.23 19.9304 21.5154 19.9304 20.6337V14.906C19.9304 8.3979 14.6545 3.12203 8.14637 3.12203H0.0712891V4.24874C0.0712891 4.7277 0.199303 5.17669 0.423014 5.5634H0.0712891V6.69011C0.0712891 7.16891 0.199303 7.6179 0.423014 8.00492H0.0712891V9.31942H0.0778778C0.106744 9.72778 0.228796 10.1104 0.423014 10.4461H0.0712891V11.7606H0.0778778C0.106744 12.169 0.228796 12.5516 0.423014 12.8873H0.0712891V14.014C0.0712891 14.4928 0.199303 14.9418 0.423014 15.3287H0.0712891V16.4554C0.0712891 17.4856 0.663825 18.3773 1.52666 18.8086V20.6337C1.52666 31.6793 10.4807 40.6337 21.5265 40.6337C32.5723 40.6337 41.5265 31.6793 41.5265 20.6337C41.5265 20.5867 41.5263 20.5398 41.526 20.4929ZM40.2121 20.1642V17.629C40.2121 17.0067 39.7076 16.5023 39.0854 16.5023V20.4929C39.0858 20.5398 39.0853 20.5867 39.0853 20.6337C39.0853 30.3311 31.224 38.1924 21.5267 38.1924C11.8293 38.1924 3.96803 30.3311 3.96803 20.6337V19.0845H2.84132V20.6337C2.84132 30.9535 11.2071 39.3191 21.5267 39.3191C31.8462 39.3191 40.212 30.9533 40.212 20.6337C40.212 20.4768 40.2101 20.3203 40.2062 20.1642H40.2121ZM37.7709 20.1642V17.629C37.7709 17.0067 37.2664 16.5023 36.6442 16.5023V20.4929C36.6446 20.5397 36.6439 20.5866 36.6439 20.6336C36.6439 28.9827 29.8757 35.7508 21.5267 35.7508C13.1777 35.7508 6.40924 28.9827 6.40924 20.6337V20.6105C6.40924 20.6025 6.40924 20.5947 6.4094 20.5867L6.40924 16.643H2.70044C2.22164 16.643 1.77265 16.515 1.38594 16.2913V16.4552C1.38594 17.1813 1.97456 17.7697 2.70044 17.7697H5.28253V20.6337C5.28253 29.6051 12.5552 36.8779 21.5267 36.8779C30.4982 36.8779 37.7708 29.6052 37.7708 20.6337C37.7708 20.4767 37.7686 20.3203 37.7641 20.1642H37.7709ZM35.3297 20.164V17.629C35.3297 17.0067 34.8252 16.5023 34.203 16.5023V20.4929H34.2017C34.2022 20.5397 34.2024 20.5866 34.2024 20.6336C34.2024 27.6343 28.5271 33.3096 21.5264 33.3096C14.5256 33.3096 8.85029 27.6343 8.85029 20.6336C8.85029 20.6179 8.85029 20.6022 8.85045 20.5867L8.85029 15.9858C8.85029 15.0005 8.05162 14.2018 7.06625 14.2018H1.39912C1.49027 14.8389 2.03809 15.3285 2.70028 15.3285H6.4563C7.15646 15.3285 7.72389 15.896 7.72389 16.5961V20.5867C7.72389 20.6024 7.72389 20.618 7.72389 20.6336C7.72389 28.2567 13.9036 34.4363 21.5267 34.4363C29.1498 34.4363 35.3294 28.2567 35.3294 20.6336C35.3294 20.4764 35.3268 20.32 35.3216 20.164H35.3297ZM32.8885 20.164V17.629C32.8885 17.0067 32.384 16.5023 31.7618 16.5023V20.4929H31.7606C31.7612 20.5397 31.7615 20.5867 31.7615 20.6337C31.7615 26.2863 27.1792 30.8684 21.5268 30.8684C15.8744 30.8684 11.2921 26.2861 11.2921 20.6337C11.2921 20.618 11.2921 20.6024 11.2923 20.5868L11.2921 15.9858C11.2921 13.6523 9.40047 11.7604 7.06672 11.7604H1.39912C1.49027 12.3975 2.03809 12.8872 2.70028 12.8872H7.06657C8.77781 12.8872 10.1651 14.2744 10.1651 15.9857V20.5867C10.1651 20.5898 10.1652 20.593 10.1652 20.5962C10.1652 20.6041 10.1651 20.612 10.1651 20.6198V20.6336C10.1651 26.9083 15.2518 31.9951 21.5265 31.9951C27.8012 31.9951 32.8879 26.9085 32.8879 20.6336C32.8879 20.4762 32.8848 20.3198 32.8783 20.164H32.8885ZM30.4473 20.1642V17.629C30.4473 17.0067 29.9428 16.5023 29.3206 16.5023V20.4929H29.3189C29.3197 20.5397 29.3201 20.5867 29.3201 20.6337C29.3201 24.9379 25.831 28.4272 21.5267 28.4272C17.2223 28.4272 13.7332 24.938 13.7332 20.6337C13.7332 20.618 13.7332 20.6024 13.7333 20.5868L13.7332 15.6103C13.7332 12.1359 10.9166 9.31926 7.44214 9.31926H1.39912C1.49027 9.95635 2.03809 10.4459 2.70028 10.4459H7.06657C10.1262 10.4459 12.6065 12.9262 12.6065 15.9858V20.5868C12.6064 20.6025 12.6065 20.618 12.6065 20.6337C12.6065 25.5602 16.6002 29.5539 21.5267 29.5539C26.4532 29.5539 30.4469 25.5602 30.4469 20.6337C30.4469 20.4762 30.4428 20.3198 30.4348 20.1642H30.4473ZM28.0061 20.1642V17.629C28.0061 17.0067 27.5016 16.5023 26.8794 16.5023V20.4929H26.8771C26.8783 20.5396 26.8789 20.5865 26.8789 20.6336C26.8789 23.5895 24.4828 25.9857 21.5268 25.9857C18.5709 25.9857 16.1747 23.5895 16.1747 20.6336V20.6063C16.1747 20.602 16.1747 20.5978 16.1749 20.5936V20.5865L16.1747 15.1407C16.1747 10.5773 12.4753 6.87789 7.91184 6.87789H1.39912C1.49027 7.51498 2.03809 8.00461 2.70028 8.00461H7.44214C11.6426 8.00461 15.0478 11.4098 15.0478 15.6103V20.5868C15.0476 20.6025 15.0478 20.618 15.0478 20.6337C15.0478 24.2118 17.9485 27.1126 21.5267 27.1126C25.1048 27.1126 28.0055 24.2118 28.0055 20.6337C28.0055 20.4759 27.9998 20.3193 27.9887 20.1642H28.0061ZM25.5649 20.164V17.629C25.5649 17.0067 25.0603 16.5023 24.4382 16.5023V20.4929L24.4374 20.6337C24.4374 22.2413 23.1342 23.5445 21.5267 23.5445C19.9191 23.5445 18.6159 22.2413 18.6159 20.6337V14.906C18.6159 9.12395 13.9285 4.43653 8.14637 4.43653H1.39912C1.49027 5.07362 2.03809 5.56324 2.70028 5.56324H7.91152C13.201 5.56324 17.489 9.85124 17.489 15.1407V20.5867C17.4888 20.6023 17.489 20.618 17.489 20.6336C17.489 22.8635 19.2968 24.6712 21.5267 24.6712C23.7566 24.6712 25.5643 22.8635 25.5643 20.6336C25.5643 20.4748 25.5552 20.3181 25.5373 20.164H25.5649ZM37.3012 3.70892C37.3012 4.34413 37.8163 4.85916 38.4515 4.85916C39.0867 4.85916 39.6017 4.34413 39.6017 3.70892C39.6017 3.07371 39.0867 2.55868 38.4515 2.55868C37.8163 2.55868 37.3012 3.07371 37.3012 3.70892Z" fill="#283841"></path> </g> <g id="logomark_2"> <path d="M66.7241 20.0723C66.7241 20.0903 66.7241 20.1083 66.7241 20.1264C66.7421 20.1264 66.7601 20.1264 66.7782 20.1264H77.322V28.0748H55.5044C55.5044 26.9573 55.5044 25.8398 55.5044 24.7224C55.5044 23.6049 55.5044 22.4875 55.5044 21.37C55.5044 20.2345 55.5044 19.108 55.5044 17.9906C55.5044 16.8731 55.5044 15.7556 55.5044 14.6382C55.5044 13.5027 55.5044 12.3672 55.5044 11.2317C55.5044 10.0782 55.5044 8.9337 55.5044 7.79822H66.7241C66.7241 8.82556 66.7241 9.85291 66.7241 10.8803C66.7241 11.8896 66.7241 12.9079 66.7241 13.9353C66.7241 14.9626 66.7241 15.99 66.7241 17.0173C66.7241 18.0266 66.7241 19.0449 66.7241 20.0723Z" fill="#283841"></path> <path d="M90.1055 28.8858C88.988 28.8858 87.9066 28.8047 86.8612 28.6425C85.8158 28.4803 84.8426 28.237 83.9414 27.9126C83.0402 27.5701 82.2201 27.1466 81.4812 26.6419C80.7422 26.1372 80.1114 25.5515 79.5887 24.8846C79.066 24.1997 78.6605 23.4337 78.3721 22.5866C78.0837 21.7215 77.9395 20.7662 77.9395 19.7208C77.9395 18.4952 78.1378 17.3958 78.5343 16.4225C78.9489 15.4312 79.5256 14.5661 80.2646 13.8271C81.0216 13.0882 81.9047 12.4753 82.9141 11.9887C83.9234 11.4841 85.0318 11.1146 86.2394 10.8803C87.465 10.6279 88.7537 10.5018 90.1055 10.5018C91.7997 10.5018 93.3767 10.7 94.8367 11.0965C96.3146 11.475 97.6033 12.0518 98.7027 12.8268C99.8202 13.5838 100.694 14.5391 101.325 15.6926C101.956 16.8461 102.271 18.1888 102.271 19.7208C102.271 21.2528 101.956 22.5956 101.325 23.7491C100.694 24.8846 99.8202 25.8398 98.7027 26.6149C97.6033 27.3718 96.3146 27.9396 94.8367 28.3181C93.3767 28.6966 91.7997 28.8858 90.1055 28.8858ZM90.1325 21.7215C91.25 21.7215 92.043 21.5052 92.5116 21.0726C92.9802 20.64 93.2145 20.1714 93.2145 19.6668C93.2145 19.4325 93.1605 19.1981 93.0523 18.9638C92.9442 18.7295 92.773 18.5133 92.5386 18.315C92.3043 18.1167 91.9889 17.9635 91.5924 17.8554C91.1959 17.7292 90.7093 17.6661 90.1325 17.6661C89.5557 17.6661 89.0601 17.7292 88.6456 17.8554C88.249 17.9635 87.9246 18.1167 87.6723 18.315C87.438 18.5133 87.2667 18.7295 87.1586 18.9638C87.0505 19.1981 86.9964 19.4415 86.9964 19.6938C86.9964 19.9461 87.0505 20.1985 87.1586 20.4508C87.2667 20.6851 87.447 20.9014 87.6993 21.0996C87.9516 21.2799 88.2761 21.4331 88.6726 21.5592C89.0691 21.6674 89.5557 21.7215 90.1325 21.7215Z" fill="#283841"></path> <path d="M126.682 11.3128C126.682 13.4937 126.682 15.6835 126.682 17.8824C126.682 20.0813 126.682 22.2802 126.682 24.4791C126.682 25.4523 126.457 26.3355 126.006 27.1285C125.556 27.9035 124.934 28.5884 124.141 29.1832C123.348 29.796 122.429 30.3007 121.383 30.6972C120.338 31.0937 119.211 31.3911 118.004 31.5894C116.796 31.8057 115.571 31.9138 114.327 31.9138C112.741 31.9138 111.173 31.7426 109.623 31.4001C108.073 31.0577 106.685 30.544 105.459 29.8591V25.5605C105.982 25.9029 106.613 26.2183 107.352 26.5067C108.109 26.7771 108.911 26.9934 109.758 27.1556C110.605 27.3178 111.443 27.3989 112.272 27.3989C112.957 27.3989 113.597 27.3358 114.192 27.2096C114.805 27.0654 115.345 26.8492 115.814 26.5608C116.283 26.2724 116.652 25.8939 116.922 25.4253C117.193 24.9567 117.328 24.3799 117.328 23.695V18.6935C117.328 18.3691 117.265 18.0897 117.139 17.8554C117.013 17.6211 116.823 17.4318 116.571 17.2876C116.337 17.1254 116.057 17.0083 115.733 16.9362C115.408 16.8461 115.048 16.801 114.651 16.801C114.111 16.801 113.624 16.8731 113.192 17.0173C112.777 17.1435 112.453 17.3417 112.218 17.6121C111.984 17.8824 111.867 18.2159 111.867 18.6124C111.867 19.0269 111.984 19.3784 112.218 19.6668C112.471 19.9551 112.804 20.1804 113.219 20.3426C113.633 20.4868 114.111 20.5589 114.651 20.5589C116.093 20.5589 116.986 20.0362 117.328 18.9909L115.706 25.3442C114.949 25.7948 114.201 26.0651 113.462 26.1553C112.723 26.2454 111.975 26.2904 111.218 26.2904C110.119 26.2904 109.064 26.1192 108.055 25.7768C107.046 25.4163 106.144 24.9116 105.351 24.2628C104.576 23.5959 103.954 22.7939 103.486 21.8566C103.035 20.9014 102.81 19.82 102.81 18.6124C102.81 17.8013 102.918 17.0533 103.134 16.3684C103.351 15.6835 103.657 15.0527 104.054 14.476C104.45 13.8992 104.919 13.3946 105.459 12.962C106.018 12.5114 106.622 12.1329 107.271 11.8265C107.938 11.5201 108.641 11.2948 109.38 11.1506C110.137 10.9884 110.903 10.9073 111.678 10.9073C112.038 10.9073 112.426 10.9343 112.84 10.9884C113.255 11.0245 113.669 11.0965 114.084 11.2047C114.516 11.2948 114.931 11.43 115.327 11.6102C115.724 11.7724 116.084 11.9797 116.409 12.232C116.751 12.4663 117.04 12.7547 117.274 13.0972C117.292 13.1332 117.301 13.1512 117.301 13.1512C117.319 13.1512 117.328 13.1422 117.328 13.1242C117.328 13.1062 117.328 13.0882 117.328 13.0701C117.328 12.8719 117.328 12.5835 117.328 12.205C117.328 11.8085 117.328 11.5111 117.328 11.3128H126.682Z" fill="#283841"></path> <path d="M139.635 28.8858C138.518 28.8858 137.436 28.8047 136.391 28.6425C135.346 28.4803 134.372 28.237 133.471 27.9126C132.57 27.5701 131.75 27.1466 131.011 26.6419C130.272 26.1372 129.641 25.5515 129.118 24.8846C128.596 24.1997 128.19 23.4337 127.902 22.5866C127.613 21.7215 127.469 20.7662 127.469 19.7208C127.469 18.4952 127.667 17.3958 128.064 16.4225C128.479 15.4312 129.055 14.5661 129.794 13.8271C130.551 13.0882 131.434 12.4753 132.444 11.9887C133.453 11.4841 134.561 11.1146 135.769 10.8803C136.995 10.6279 138.283 10.5018 139.635 10.5018C141.329 10.5018 142.906 10.7 144.366 11.0965C145.844 11.475 147.133 12.0518 148.232 12.8268C149.35 13.5838 150.224 14.5391 150.855 15.6926C151.486 16.8461 151.801 18.1888 151.801 19.7208C151.801 21.2528 151.486 22.5956 150.855 23.7491C150.224 24.8846 149.35 25.8398 148.232 26.6149C147.133 27.3718 145.844 27.9396 144.366 28.3181C142.906 28.6966 141.329 28.8858 139.635 28.8858ZM139.662 21.7215C140.78 21.7215 141.573 21.5052 142.041 21.0726C142.51 20.64 142.744 20.1714 142.744 19.6668C142.744 19.4325 142.69 19.1981 142.582 18.9638C142.474 18.7295 142.303 18.5133 142.068 18.315C141.834 18.1167 141.519 17.9635 141.122 17.8554C140.726 17.7292 140.239 17.6661 139.662 17.6661C139.085 17.6661 138.59 17.7292 138.175 17.8554C137.779 17.9635 137.454 18.1167 137.202 18.315C136.968 18.5133 136.796 18.7295 136.688 18.9638C136.58 19.1981 136.526 19.4415 136.526 19.6938C136.526 19.9461 136.58 20.1985 136.688 20.4508C136.796 20.6851 136.977 20.9014 137.229 21.0996C137.481 21.2799 137.806 21.4331 138.202 21.5592C138.599 21.6674 139.085 21.7215 139.662 21.7215Z" fill="#283841"></path> <path d="M152.61 28.0748C152.61 27.2457 152.61 26.4256 152.61 25.6145C152.61 24.7855 152.61 23.9654 152.61 23.1543C152.61 22.3252 152.61 21.5052 152.61 20.6941C152.61 20.3517 152.61 20.0092 152.61 19.6668C152.61 19.3243 152.61 18.9819 152.61 18.6394C153.655 18.6394 154.692 18.6394 155.719 18.6394C156.764 18.6394 157.81 18.6394 158.855 18.6394C159.901 18.6394 160.937 18.6394 161.964 18.6394C161.964 19.6848 161.964 20.7302 161.964 21.7755C161.964 22.8209 161.964 23.8753 161.964 24.9387C161.964 25.984 161.964 27.0294 161.964 28.0748H152.61ZM152.61 18.6394C152.61 17.4138 152.61 16.1882 152.61 14.9626C152.61 13.737 152.61 12.5204 152.61 11.3128H161.964C161.964 11.9076 161.964 12.5024 161.964 13.0972C161.964 13.6919 161.964 14.2867 161.964 14.8815C161.964 15.4763 161.964 16.0711 161.964 16.6658C161.964 16.6658 161.955 16.6748 161.937 16.6929C160.387 17.0173 158.828 17.3417 157.26 17.6661C155.71 17.9906 154.16 18.315 152.61 18.6394Z" fill="#283841"></path> <path d="M188.182 19.6668C188.182 21.0185 187.902 22.2351 187.344 23.3165C186.785 24.398 186.028 25.3262 185.073 26.1012C184.135 26.8762 183.072 27.471 181.882 27.8855C180.693 28.282 179.458 28.4803 178.179 28.4803C177.53 28.4803 176.854 28.4172 176.151 28.291C175.466 28.1829 174.799 28.0207 174.15 27.8044C173.519 27.5701 172.952 27.2907 172.447 26.9663C172.447 26.9663 172.438 26.9663 172.42 26.9663C172.42 26.9663 172.411 26.9663 172.393 26.9663C172.393 26.9663 172.393 26.9753 172.393 26.9934V31.319H163.039C163.039 30.2016 163.039 29.0931 163.039 27.9937C163.039 26.8762 163.039 25.7677 163.039 24.6683C163.039 23.5508 163.039 22.4424 163.039 21.343C163.039 20.2255 163.039 19.117 163.039 18.0176C163.039 16.9001 163.039 15.7917 163.039 14.6923C163.039 13.5748 163.039 12.4483 163.039 11.3128H172.393C172.393 12.2681 172.393 13.2053 172.393 14.1245C172.393 15.0437 172.393 15.9629 172.393 16.8821C172.393 17.8013 172.393 18.7476 172.393 19.7208C172.393 20.0633 172.483 20.3607 172.663 20.613C172.844 20.8653 173.087 21.0726 173.393 21.2348C173.7 21.397 174.042 21.5232 174.421 21.6133C174.817 21.6854 175.214 21.7215 175.61 21.7215C176.313 21.7215 176.89 21.6223 177.34 21.4241C177.809 21.2258 178.151 20.9735 178.368 20.6671C178.602 20.3607 178.719 20.0453 178.719 19.7208C178.719 19.4325 178.656 19.1711 178.53 18.9368C178.404 18.6845 178.215 18.4682 177.962 18.288C177.71 18.0897 177.385 17.9365 176.989 17.8284C176.592 17.7202 176.133 17.6661 175.61 17.6661C174.853 17.6661 174.177 17.8013 173.582 18.0717C173.006 18.342 172.618 18.7836 172.42 19.3964L174.583 11.3128C175.178 11.1686 175.763 11.0695 176.34 11.0154C176.917 10.9433 177.485 10.9073 178.043 10.9073C179.143 10.9073 180.197 11.0335 181.206 11.2858C182.234 11.5381 183.162 11.9076 183.991 12.3942C184.838 12.8809 185.577 13.4847 186.208 14.2056C186.839 14.9085 187.325 15.7196 187.668 16.6388C188.01 17.54 188.182 18.5493 188.182 19.6668Z" fill="#283841"></path> <path d="M188.721 16.6658C188.721 15.6385 189.01 14.7463 189.586 13.9893C190.181 13.2323 190.983 12.6015 191.993 12.0969C193.002 11.5742 194.146 11.1867 195.426 10.9343C196.706 10.682 198.039 10.5558 199.427 10.5558C201.14 10.5558 202.726 10.709 204.186 11.0154C205.663 11.3218 206.997 11.7274 208.187 12.232V18.5042C207.682 18.1257 207.015 17.8013 206.186 17.531C205.375 17.2606 204.51 17.0533 203.591 16.9092C202.69 16.765 201.833 16.6929 201.022 16.6929C200.482 16.6929 199.986 16.7289 199.535 16.801C199.103 16.8551 198.751 16.9452 198.481 17.0714C198.229 17.1975 198.103 17.3597 198.103 17.558C198.103 17.6661 198.139 17.7473 198.211 17.8013C198.301 17.8554 198.427 17.8914 198.589 17.9095C198.751 17.9275 198.959 17.9365 199.211 17.9365C199.626 17.9365 199.995 17.9365 200.319 17.9365C200.644 17.9365 201.004 17.9365 201.401 17.9365C202.302 17.9365 203.203 17.9996 204.104 18.1257C205.024 18.2339 205.853 18.4592 206.592 18.8016C207.349 19.1441 207.952 19.6397 208.403 20.2886C208.854 20.9194 209.079 21.7575 209.079 22.8029C209.079 23.9023 208.773 24.8395 208.16 25.6145C207.565 26.3715 206.745 26.9934 205.699 27.48C204.672 27.9486 203.51 28.2911 202.212 28.5073C200.932 28.7236 199.598 28.8318 198.211 28.8318C196.571 28.8318 194.948 28.6786 193.344 28.3722C191.758 28.0658 190.397 27.6152 189.262 27.0204V20.4238C189.713 20.9104 190.352 21.3159 191.181 21.6403C192.029 21.9467 192.939 22.1811 193.912 22.3433C194.903 22.4875 195.832 22.5595 196.697 22.5595C197.255 22.5595 197.76 22.5325 198.211 22.4784C198.661 22.4063 199.013 22.3072 199.265 22.1811C199.535 22.0369 199.671 21.8566 199.671 21.6403C199.671 21.5502 199.644 21.4871 199.589 21.4511C199.535 21.4151 199.445 21.388 199.319 21.37C199.211 21.352 199.058 21.343 198.86 21.343C198.589 21.343 198.31 21.343 198.021 21.343C197.733 21.343 197.472 21.343 197.237 21.343C196.607 21.343 195.904 21.3249 195.129 21.2889C194.372 21.2348 193.615 21.1357 192.858 20.9915C192.101 20.8293 191.407 20.586 190.776 20.2615C190.163 19.9191 189.667 19.4595 189.289 18.8827C188.911 18.288 188.721 17.549 188.721 16.6658Z" fill="#283841"></path> <path d="M231.476 11.3128C231.476 12.5204 231.476 13.737 231.476 14.9626C231.476 16.1882 231.476 17.4138 231.476 18.6394C231.476 19.6848 231.476 20.7392 231.476 21.8026C231.476 22.8479 231.476 23.8933 231.476 24.9387C231.476 25.984 231.476 27.0294 231.476 28.0748H222.122C222.122 27.3178 222.122 26.5518 222.122 25.7768C222.122 25.0017 222.122 24.2267 222.122 23.4517C222.122 22.6587 222.122 21.8927 222.122 21.1537C222.122 19.4775 222.122 17.8374 222.122 16.2333C222.122 14.6111 222.122 12.971 222.122 11.3128H231.476ZM219.256 11.3128C219.256 12.2681 219.256 13.2323 219.256 14.2056C219.256 15.1609 219.256 16.1161 219.256 17.0714C219.256 18.0266 219.256 18.9909 219.256 19.9642C219.256 20.3607 219.319 20.6851 219.445 20.9374C219.589 21.1717 219.77 21.343 219.986 21.4511C220.22 21.5412 220.464 21.5863 220.716 21.5863C220.968 21.5863 221.221 21.5412 221.473 21.4511C221.743 21.361 221.96 21.2528 222.122 21.1267L219.959 27.8044C219.454 28.0567 218.832 28.264 218.094 28.4262C217.373 28.5884 216.616 28.6695 215.823 28.6695C215.102 28.6695 214.39 28.5794 213.687 28.3992C212.984 28.237 212.344 27.9576 211.767 27.5611C211.209 27.1646 210.758 26.6419 210.415 25.993C210.073 25.3442 209.902 24.5331 209.902 23.5599C209.902 22.2622 209.902 20.9645 209.902 19.6668C209.902 18.3691 209.902 17.0714 209.902 15.7737C209.902 15.0347 209.902 14.2957 209.902 13.5568C209.902 12.7998 209.902 12.0518 209.902 11.3128H219.256Z" fill="#283841"></path> <path d="M232.554 28.0748C232.554 26.7951 232.554 25.5154 232.554 24.2357C232.554 22.9561 232.554 21.6764 232.554 20.3967C232.554 19.099 232.554 17.8103 232.554 16.5307C232.554 15.6475 232.554 14.7734 232.554 13.9082C232.554 13.0431 232.554 12.178 232.554 11.3128H241.909C241.909 12.5024 241.909 13.6919 241.909 14.8815C241.909 16.053 241.909 17.2336 241.909 18.4231C241.909 20.0272 241.909 21.6403 241.909 23.2625C241.909 24.8666 241.909 26.4707 241.909 28.0748H232.554ZM244.937 28.0748C244.937 26.6689 244.937 25.2451 244.937 23.8032C244.937 22.3613 244.937 20.9374 244.937 19.5316C244.937 19.0089 244.802 18.6394 244.531 18.4231C244.279 18.2069 243.972 18.0897 243.612 18.0717C243.251 18.0537 242.918 18.0987 242.612 18.2069C242.323 18.315 242.143 18.4231 242.071 18.5313L244.234 11.5832C245.55 11.0064 246.973 10.7181 248.505 10.7181C249.262 10.7181 249.983 10.8082 250.668 10.9884C251.353 11.1686 251.966 11.448 252.507 11.8265C253.065 12.205 253.498 12.7097 253.804 13.3405C254.129 13.9533 254.291 14.6923 254.291 15.5574C254.291 16.0801 254.291 16.6118 254.291 17.1525C254.291 17.6932 254.291 18.2249 254.291 18.7476C254.291 18.9999 254.291 19.2612 254.291 19.5316C254.291 19.7839 254.291 20.0362 254.291 20.2886C254.291 20.5409 254.291 20.8022 254.291 21.0726C254.291 22.2261 254.291 23.3886 254.291 24.5602C254.291 25.7317 254.291 26.9032 254.291 28.0748H244.937ZM257.157 28.0748C257.157 26.6689 257.157 25.2451 257.157 23.8032C257.157 22.3613 257.157 20.9374 257.157 19.5316C257.157 19.0089 257.022 18.6394 256.751 18.4231C256.499 18.2069 256.192 18.0897 255.832 18.0717C255.471 18.0537 255.138 18.0987 254.832 18.2069C254.543 18.315 254.363 18.4231 254.291 18.5313L256.183 11.5832C256.832 11.2948 257.526 11.0785 258.265 10.9343C259.022 10.7901 259.77 10.7181 260.509 10.7181C261.554 10.7181 262.528 10.8803 263.429 11.2047C264.348 11.5291 265.087 12.0428 265.646 12.7457C266.223 13.4486 266.511 14.3859 266.511 15.5574V28.0748H257.157Z" fill="#283841"></path> </g> <path d="M271.237 7.4809C271.237 8.9777 270.023 10.1911 268.526 10.1911C267.03 10.1911 265.816 8.9777 265.816 7.4809C265.816 5.98409 267.03 4.77069 268.526 4.77069C270.023 4.77069 271.237 5.98409 271.237 7.4809Z" fill="#283841"></path> </svg>