<svg height="700pt" preserveAspectRatio="xMidYMid meet" viewBox="0 0 700 700" width="700pt" xmlns="http://www.w3.org/2000/svg"><g class="a" transform="matrix(.1 0 0 -.1 0 700)"><path d="m2320 4275c-259-57-457-225-549-464-39-102-53-185-53-312 1-393 247-699 622-775 133-27 305-16 434 27 315 104 506 388 506 750v89h-395-395v-160-160h180c99 0 180-2 180-5 0-19-47-92-81-124-62-61-119-84-225-89-109-5-178 12-250 61-104 72-154 180-162 350-10 220 53 361 193 435 45 24 61 27 155 27 89 0 112-3 151-23 58-28 113-81 139-133l20-39h236 235l-6 23c-4 12-24 59-46 104-94 196-266 342-479 403-98 29-314 37-410 15z"/><path d="m220 3500v-760h343c300 0 354 3 437 20 174 36 339 135 435 261 122 161 178 372 155 579-40 349-261 585-605 645-67 11-168 15-426 15h-339zm732 390c87-27 154-86 194-172 28-61 29-68 29-213-1-184-17-239-100-321-70-70-140-92-322-101l-133-6v423 423l133-6c90-5 155-13 199-27z"/><path d="m3446 3733c74-291 160-631 192-758l58-230h204 204l121 457c66 251 122 459 125 462s60-203 126-457l121-462h203 203l187 735c103 405 190 746 194 758l7 22-197-2-198-3-101-442c-55-244-102-443-105-443s-57 200-120 445l-113 445h-203-204l-6-27c-59-236-232-864-236-857-3 5-50 206-104 446l-99 438h-196-197z"/><path d="m5550 3501v-761h200 200v230 230h108c212 0 345 25 466 88 162 84 255 248 256 448 0 208-87 362-253 446-132 66-172 71-594 76l-383 3zm702 409c44-13 93-52 113-91 17-33 20-116 4-156-14-38-46-71-94-96-34-18-62-22-182-25l-143-4v191 191h133c72 0 149-5 169-10z"/></g>  <style>
  @media (prefers-color-scheme: dark) {
    .a {
      fill: #fffffd;
    }
  }
  </style></svg>