<?xml version="1.0" standalone="no"?>
<!DOCTYPE svg PUBLIC "-//W3C//DTD SVG 20010904//EN"
 "http://www.w3.org/TR/2001/REC-SVG-20010904/DTD/svg10.dtd">
<svg version="1.0" xmlns="http://www.w3.org/2000/svg"
 width="700.000000pt" height="700.000000pt" viewBox="0 0 700.000000 700.000000"
 preserveAspectRatio="xMidYMid meet">
<metadata>
Created by potrace 1.14, written by Peter Selinger 2001-2017
</metadata>
<g transform="translate(0.000000,700.000000) scale(0.100000,-0.100000)"
fill="#000000" stroke="none">
<path d="M2320 4275 c-259 -57 -457 -225 -549 -464 -39 -102 -53 -185 -53
-312 1 -393 247 -699 622 -775 133 -27 305 -16 434 27 315 104 506 388 506
750 l0 89 -395 0 -395 0 0 -160 0 -160 180 0 c99 0 180 -2 180 -5 0 -19 -47
-92 -81 -124 -62 -61 -119 -84 -225 -89 -109 -5 -178 12 -250 61 -104 72 -154
180 -162 350 -10 220 53 361 193 435 45 24 61 27 155 27 89 0 112 -3 151 -23
58 -28 113 -81 139 -133 l20 -39 236 0 235 0 -6 23 c-4 12 -24 59 -46 104 -94
196 -266 342 -479 403 -98 29 -314 37 -410 15z"/>
<path d="M220 3500 l0 -760 343 0 c300 0 354 3 437 20 174 36 339 135 435 261
122 161 178 372 155 579 -40 349 -261 585 -605 645 -67 11 -168 15 -426 15
l-339 0 0 -760z m732 390 c87 -27 154 -86 194 -172 28 -61 29 -68 29 -213 -1
-184 -17 -239 -100 -321 -70 -70 -140 -92 -322 -101 l-133 -6 0 423 0 423 133
-6 c90 -5 155 -13 199 -27z"/>
<path d="M3446 3733 c74 -291 160 -631 192 -758 l58 -230 204 0 204 0 121 457
c66 251 122 459 125 462 3 3 60 -203 126 -457 l121 -462 203 0 203 0 187 735
c103 405 190 746 194 758 l7 22 -197 -2 -198 -3 -101 -442 c-55 -244 -102
-443 -105 -443 -3 0 -57 200 -120 445 l-113 445 -203 0 -204 0 -6 -27 c-59
-236 -232 -864 -236 -857 -3 5 -50 206 -104 446 l-99 438 -196 0 -197 0 134
-527z"/>
<path d="M5550 3501 l0 -761 200 0 200 0 0 230 0 230 108 0 c212 0 345 25 466
88 162 84 255 248 256 448 0 208 -87 362 -253 446 -132 66 -172 71 -594 76
l-383 3 0 -760z m702 409 c44 -13 93 -52 113 -91 17 -33 20 -116 4 -156 -14
-38 -46 -71 -94 -96 -34 -18 -62 -22 -182 -25 l-143 -4 0 191 0 191 133 0 c72
0 149 -5 169 -10z"/>
</g>
</svg>
